<svg width="1920" height="1080" viewBox="0 0 1920 1080" fill="none" xmlns="http://www.w3.org/2000/svg" xmlns:xlink="http://www.w3.org/1999/xlink">
<rect width="1920" height="1080" fill="#0000FF"/>
<path d="M61.28 1025.8H68.352V1026.89H62.496V1030.92H67.584V1032.01H62.496V1037H61.28V1025.8ZM70.1081 1025.58H71.2921V1037H70.1081V1025.58ZM73.6981 1027.21V1026.5L74.1781 1026.02H74.8821L75.3621 1026.5V1027.21L74.8821 1027.69H74.1781L73.6981 1027.21ZM73.9381 1029.03H75.1221V1037H73.9381V1029.03ZM77.6844 1029.03H78.8364V1030.46L80.2604 1029.03H83.2524L84.7244 1030.5V1035.53L83.2524 1037H80.1804L78.8684 1035.85V1040.39H77.6844V1029.03ZM82.7404 1035.94L83.5404 1035.16V1030.87L82.7404 1030.09H80.5804L78.8684 1031.8V1034.55L80.4044 1035.94H82.7404ZM93.5439 1026.87H90.1519V1025.8H98.1519V1026.87H94.7599V1037H93.5439V1026.87ZM98.2275 1035.53V1030.5L99.6995 1029.03H103.716L105.204 1030.5V1033.37H99.4115V1035.16L100.212 1035.94H103.204L104.004 1035.16V1034.55H105.188V1035.53L103.716 1037H99.6995L98.2275 1035.53ZM104.02 1032.34V1030.87L103.22 1030.09H100.212L99.4115 1030.87V1032.34H104.02ZM107.196 1035.53V1030.5L108.668 1029.03H112.508L113.98 1030.5V1031.48H112.796V1030.87L111.996 1030.09H109.18L108.38 1030.87V1035.16L109.18 1035.94H111.996L112.796 1035.16V1034.55H113.98V1035.53L112.508 1037H108.668L107.196 1035.53ZM115.903 1025.58H117.087V1030.7L118.751 1029.03H121.231L122.703 1030.5V1037H121.519V1030.87L120.719 1030.09H119.071L117.087 1032.07V1037H115.903V1025.58ZM125.028 1029.03H126.18V1030.73L127.876 1029.03H130.324L131.796 1030.5V1037H130.612V1030.87L129.812 1030.09H128.196L126.212 1032.07V1037H125.028V1029.03ZM133.962 1035.53V1030.5L135.434 1029.03H139.53L141.002 1030.5V1035.53L139.53 1037H135.434L133.962 1035.53ZM139.018 1035.94L139.818 1035.16V1030.87L139.018 1030.09H135.946L135.146 1030.87V1035.16L135.946 1035.94H139.018ZM143.327 1025.58H144.511V1037H143.327V1025.58ZM146.837 1035.53V1030.5L148.309 1029.03H152.405L153.877 1030.5V1035.53L152.405 1037H148.309L146.837 1035.53ZM151.893 1035.94L152.693 1035.16V1030.87L151.893 1030.09H148.821L148.021 1030.87V1035.16L148.821 1035.94H151.893ZM163.002 1029.03V1039.03L161.546 1040.49H157.594L156.362 1039.26V1038.28H157.546V1038.87L158.106 1039.43H161.018L161.818 1038.65V1035.67L160.346 1037H157.434L155.962 1035.53V1030.5L157.434 1029.03H160.458L161.85 1030.42V1029.03H163.002ZM161.818 1031.77L160.138 1030.09H157.946L157.146 1030.87V1035.16L157.946 1035.94H160.154L161.818 1034.39V1031.77ZM172.107 1029.03V1039.03L170.635 1040.49H166.795L165.563 1039.26V1038.28H166.747V1038.89L167.307 1039.43H170.123L170.923 1038.65V1035.3L169.227 1037H166.795L165.323 1035.53V1029.03H166.507V1035.16L167.307 1035.94H168.907L170.923 1033.93V1029.03H172.107ZM178.339 1035.24V1027.56L180.099 1025.8H184.899L186.595 1027.5V1028.52H185.379V1027.9L184.355 1026.89H180.643L179.555 1027.96V1034.84L180.643 1035.91H184.355L185.379 1034.9V1034.28H186.595V1035.3L184.899 1037H180.099L178.339 1035.24ZM188.353 1035.53V1030.5L189.825 1029.03H193.921L195.392 1030.5V1035.53L193.921 1037H189.825L188.353 1035.53ZM193.409 1035.94L194.209 1035.16V1030.87L193.409 1030.09H190.337L189.537 1030.87V1035.16L190.337 1035.94H193.409ZM197.638 1029.03H198.789V1030.46L200.214 1029.03H202.278V1030.09H200.518L198.822 1031.78V1037H197.638V1029.03ZM203.794 1029.03H204.946V1030.46L206.37 1029.03H209.362L210.834 1030.5V1035.53L209.362 1037H206.29L204.978 1035.85V1040.39H203.794V1029.03ZM208.85 1035.94L209.65 1035.16V1030.87L208.85 1030.09H206.69L204.978 1031.8V1034.55L206.514 1035.94H208.85ZM212.915 1035.53V1030.5L214.387 1029.03H218.483L219.955 1030.5V1035.53L218.483 1037H214.387L212.915 1035.53ZM217.971 1035.94L218.771 1035.16V1030.87L217.971 1030.09H214.899L214.099 1030.87V1035.16L214.899 1035.94H217.971ZM222.2 1029.03H223.352V1030.46L224.776 1029.03H226.84V1030.09H225.08L223.384 1031.78V1037H222.2V1029.03ZM227.71 1035.69V1033.66L229.022 1032.36H233.278V1030.84L232.478 1030.06H229.758L228.958 1030.84V1031.5H227.774V1030.5L229.246 1029.03H232.974L234.446 1030.5V1037H233.31V1035.59L231.838 1037H229.022L227.71 1035.69ZM231.598 1035.98L233.278 1034.36V1033.38H229.534L228.894 1034.01V1035.35L229.534 1035.98H231.598ZM237.326 1035.53V1030.07H235.886V1029.03H237.358V1026.44H238.51V1029.03H241.006V1030.07H238.51V1035.16L239.31 1035.96H241.006V1037H238.798L237.326 1035.53ZM242.761 1027.21V1026.5L243.241 1026.02H243.945L244.425 1026.5V1027.21L243.945 1027.69H243.241L242.761 1027.21ZM243.001 1029.03H244.185V1037H243.001V1029.03ZM246.587 1035.53V1030.5L248.059 1029.03H252.155L253.627 1030.5V1035.53L252.155 1037H248.059L246.587 1035.53ZM251.643 1035.94L252.443 1035.16V1030.87L251.643 1030.09H248.571L247.771 1030.87V1035.16L248.571 1035.94H251.643ZM255.872 1029.03H257.024V1030.73L258.72 1029.03H261.168L262.64 1030.5V1037H261.456V1030.87L260.656 1030.09H259.04L257.056 1032.07V1037H255.872V1029.03ZM268.952 1023.46H270.136V1040.26H268.952V1023.46ZM276.448 1035.53V1027.27L277.92 1025.8H282.4L283.872 1027.27V1028.52H282.656V1027.67L281.856 1026.89H278.464L277.664 1027.67V1031.45L278.96 1030.15H282.464L283.936 1031.62V1035.53L282.464 1037H277.92L276.448 1035.53ZM281.92 1035.91L282.72 1035.13V1032.02L281.92 1031.24H279.28L277.664 1032.86V1035.13L278.464 1035.91H281.92ZM285.851 1035.53V1034.28H287.067V1035.13L287.867 1035.91H291.227L292.027 1035.13V1031.93L291.227 1031.14H286.011V1025.8H293.019V1026.87H287.195V1030.06H291.755L293.243 1031.54V1035.53L291.771 1037H287.323L285.851 1035.53ZM295.323 1035.4V1027.4L296.923 1025.8H301.531L303.131 1027.4V1035.4L301.531 1037H296.923L295.323 1035.4ZM300.987 1035.91L301.915 1035V1027.8L300.987 1026.89H297.467L296.539 1027.8V1035L297.467 1035.91H300.987ZM309.276 1035.24V1027.56L311.036 1025.8H315.836L317.532 1027.5V1028.52H316.316V1027.9L315.292 1026.89H311.58L310.492 1027.96V1034.84L311.58 1035.91H315.292L316.316 1034.9V1034.28H317.532V1035.3L315.836 1037H311.036L309.276 1035.24ZM319.21 1035.69V1033.66L320.522 1032.36H324.778V1030.84L323.978 1030.06H321.258L320.458 1030.84V1031.5H319.274V1030.5L320.746 1029.03H324.474L325.946 1030.5V1037H324.81V1035.59L323.338 1037H320.522L319.21 1035.69ZM323.098 1035.98L324.778 1034.36V1033.38H321.034L320.394 1034.01V1035.35L321.034 1035.98H323.098ZM328.343 1025.58H329.527V1037H328.343V1025.58ZM331.933 1027.21V1026.5L332.413 1026.02H333.117L333.597 1026.5V1027.21L333.117 1027.69H332.413L331.933 1027.21ZM332.173 1029.03H333.357V1037H332.173V1029.03ZM336.639 1030.07H335.199V1029.03H336.639V1027.26L338.031 1025.86H340.335V1026.89H338.543L337.823 1027.59V1029.03H340.335V1030.07H337.823V1037H336.639V1030.07ZM341.462 1035.53V1030.5L342.934 1029.03H347.03L348.502 1030.5V1035.53L347.03 1037H342.934L341.462 1035.53ZM346.518 1035.94L347.318 1035.16V1030.87L346.518 1030.09H343.446L342.646 1030.87V1035.16L343.446 1035.94H346.518ZM350.747 1029.03H351.899V1030.46L353.323 1029.03H355.387V1030.09H353.627L351.931 1031.78V1037H350.747V1029.03ZM356.903 1029.03H358.055V1030.73L359.751 1029.03H362.199L363.671 1030.5V1037H362.487V1030.87L361.687 1030.09H360.071L358.087 1032.07V1037H356.903V1029.03ZM365.917 1027.21V1026.5L366.397 1026.02H367.101L367.581 1026.5V1027.21L367.101 1027.69H366.397L365.917 1027.21ZM366.157 1029.03H367.341V1037H366.157V1029.03ZM369.663 1035.69V1033.66L370.975 1032.36H375.231V1030.84L374.431 1030.06H371.711L370.911 1030.84V1031.5H369.727V1030.5L371.199 1029.03H374.927L376.399 1030.5V1037H375.263V1035.59L373.791 1037H370.975L369.663 1035.69ZM373.551 1035.98L375.231 1034.36V1033.38H371.487L370.847 1034.01V1035.35L371.487 1035.98H373.551ZM382.462 1035.53V1034.5H383.662V1035.13L384.43 1035.91H388.27L389.07 1035.1V1032.58L388.27 1031.8H383.966L382.494 1030.33V1027.27L383.966 1025.8H388.67L390.142 1027.27V1028.31H388.958V1027.67L388.158 1026.89H384.494L383.694 1027.67V1029.93L384.494 1030.71H388.798L390.27 1032.18V1035.5L388.766 1037H383.934L382.462 1035.53ZM392.998 1035.53V1030.07H391.558V1029.03H393.03V1026.44H394.182V1029.03H396.678V1030.07H394.182V1035.16L394.982 1035.96H396.678V1037H394.47L392.998 1035.53ZM398.801 1037H398.609L398.145 1036.54V1035.83L398.609 1035.37H399.312L399.777 1035.83V1037L398.977 1038.98H398.321L398.801 1037ZM410.628 1027.5V1026.89H404.836V1025.8H411.844V1027.58L407.46 1037H406.18L410.628 1027.5ZM414.404 1035.53V1030.07H412.964V1029.03H414.436V1026.44H415.588V1029.03H418.084V1030.07H415.588V1035.16L416.388 1035.96H418.084V1037H415.876L414.404 1035.53ZM419.919 1025.58H421.103V1030.7L422.767 1029.03H425.247L426.719 1030.5V1037H425.535V1030.87L424.735 1030.09H423.087L421.103 1032.07V1037H419.919V1025.58ZM433.03 1025.8H440.102V1026.89H434.246V1030.92H439.334V1032.01H434.246V1037H433.03V1025.8ZM441.858 1025.58H443.042V1037H441.858V1025.58ZM445.368 1035.53V1030.5L446.84 1029.03H450.936L452.408 1030.5V1035.53L450.936 1037H446.84L445.368 1035.53ZM450.424 1035.94L451.224 1035.16V1030.87L450.424 1030.09H447.352L446.552 1030.87V1035.16L447.352 1035.94H450.424ZM454.493 1035.53V1030.5L455.965 1029.03H460.061L461.533 1030.5V1035.53L460.061 1037H455.965L454.493 1035.53ZM459.549 1035.94L460.349 1035.16V1030.87L459.549 1030.09H456.477L455.677 1030.87V1035.16L456.477 1035.94H459.549ZM463.778 1029.03H464.93V1030.46L466.354 1029.03H468.418V1030.09H466.658L464.962 1031.78V1037H463.778V1029.03ZM469.269 1037H469.077L468.613 1036.54V1035.83L469.077 1035.37H469.781L470.245 1035.83V1037L469.445 1038.98H468.789L469.269 1037ZM476.024 1035.53V1034.5H477.224V1035.13L477.992 1035.91H481.832L482.632 1035.1V1032.58L481.832 1031.8H477.528L476.056 1030.33V1027.27L477.528 1025.8H482.232L483.704 1027.27V1028.31H482.52V1027.67L481.72 1026.89H478.056L477.256 1027.67V1029.93L478.056 1030.71H482.36L483.832 1032.18V1035.5L482.328 1037H477.496L476.024 1035.53ZM485.679 1035.69V1033.66L486.991 1032.36H491.247V1030.84L490.447 1030.06H487.727L486.927 1030.84V1031.5H485.743V1030.5L487.215 1029.03H490.943L492.415 1030.5V1037H491.279V1035.59L489.807 1037H486.991L485.679 1035.69ZM489.567 1035.98L491.247 1034.36V1033.38H487.503L486.863 1034.01V1035.35L487.503 1035.98H489.567ZM494.731 1029.03H495.883V1030.73L497.579 1029.03H500.027L501.499 1030.5V1037H500.315V1030.87L499.515 1030.09H497.899L495.915 1032.07V1037H494.731V1029.03ZM507.811 1025.8H514.883V1026.89H509.027V1030.92H514.115V1032.01H509.027V1037H507.811V1025.8ZM516.153 1029.03H517.305V1030.46L518.729 1029.03H520.793V1030.09H519.033L517.337 1031.78V1037H516.153V1029.03ZM521.663 1035.69V1033.66L522.975 1032.36H527.231V1030.84L526.431 1030.06H523.711L522.911 1030.84V1031.5H521.727V1030.5L523.199 1029.03H526.927L528.399 1030.5V1037H527.263V1035.59L525.791 1037H522.975L521.663 1035.69ZM525.551 1035.98L527.231 1034.36V1033.38H523.487L522.847 1034.01V1035.35L523.487 1035.98H525.551ZM530.716 1029.03H531.868V1030.73L533.564 1029.03H536.012L537.484 1030.5V1037H536.3V1030.87L535.5 1030.09H533.884L531.9 1032.07V1037H530.716V1029.03ZM539.649 1035.53V1030.5L541.121 1029.03H544.961L546.433 1030.5V1031.48H545.249V1030.87L544.449 1030.09H541.633L540.833 1030.87V1035.16L541.633 1035.94H544.449L545.249 1035.16V1034.55H546.433V1035.53L544.961 1037H541.121L539.649 1035.53ZM548.276 1027.21V1026.5L548.756 1026.02H549.46L549.94 1026.5V1027.21L549.46 1027.69H548.756L548.276 1027.21ZM548.516 1029.03H549.7V1037H548.516V1029.03ZM551.863 1035.69V1034.7H553.047V1035.35L553.687 1035.98H556.631L557.271 1035.35V1034.12L556.631 1033.48H553.191L551.927 1032.22V1030.34L553.239 1029.03H556.983L558.295 1030.34V1031.34H557.111V1030.68L556.471 1030.06H553.751L553.111 1030.68V1031.85L553.751 1032.49H557.143L558.455 1033.8V1035.69L557.143 1037H553.174L551.863 1035.69ZM560.29 1035.53V1030.5L561.762 1029.03H565.602L567.074 1030.5V1031.48H565.89V1030.87L565.09 1030.09H562.274L561.474 1030.87V1035.16L562.274 1035.94H565.09L565.89 1035.16V1034.55H567.074V1035.53L565.602 1037H561.762L560.29 1035.53ZM568.837 1035.53V1030.5L570.309 1029.03H574.405L575.877 1030.5V1035.53L574.405 1037H570.309L568.837 1035.53ZM573.893 1035.94L574.693 1035.16V1030.87L573.893 1030.09H570.821L570.021 1030.87V1035.16L570.821 1035.94H573.893ZM578.254 1037H578.062L577.598 1036.54V1035.83L578.062 1035.37H578.766L579.23 1035.83V1037L578.43 1038.98H577.774L578.254 1037ZM585.089 1035.24V1027.56L586.849 1025.8H591.649L593.345 1027.5V1028.52H592.129V1027.9L591.105 1026.89H587.393L586.305 1027.96V1034.84L587.393 1035.91H591.105L592.129 1034.9V1034.28H593.345V1035.3L591.649 1037H586.849L585.089 1035.24ZM598.288 1025.8H599.6L603.584 1037H602.32L601.28 1033.98H596.608L595.568 1037H594.304L598.288 1025.8ZM600.928 1032.92L598.96 1027.21H598.928L596.976 1032.92H600.928ZM609.013 1035.53V1034.28H610.229V1035.13L611.029 1035.91H614.325L615.125 1035.13V1031.58L613.989 1032.71H610.325L608.853 1031.24V1027.27L610.325 1025.8H614.869L616.341 1027.27V1035.53L614.869 1037H610.485L609.013 1035.53ZM613.669 1031.62L615.125 1030.17V1027.67L614.325 1026.89H610.869L610.069 1027.67V1030.84L610.869 1031.62H613.669ZM623.357 1034.71H617.853V1032.82L622.637 1025.8H624.573V1033.62H625.933V1034.71H624.573V1037H623.357V1034.71ZM623.357 1033.66V1026.82H623.261L619.037 1033.02V1033.66H623.357ZM629.48 1027.05L626.968 1028.34V1027.22L629.576 1025.8H630.696V1037H629.48V1027.05ZM633.183 1035.4V1027.4L634.783 1025.8H639.391L640.991 1027.4V1035.4L639.391 1037H634.783L633.183 1035.4ZM638.847 1035.91L639.775 1035V1027.8L638.847 1026.89H635.327L634.399 1027.8V1035L635.327 1035.91H638.847ZM643.149 1035.53V1032.23L644.157 1031.22L643.309 1030.38V1027.27L644.781 1025.8H649.261L650.733 1027.27V1030.38L649.885 1031.22L650.893 1032.23V1035.53L649.421 1037H644.621L643.149 1035.53ZM648.717 1030.78L649.517 1029.99V1027.67L648.717 1026.89H645.325L644.525 1027.67V1029.99L645.325 1030.78H648.717ZM648.877 1035.91L649.677 1035.13V1032.62L648.877 1031.83H645.165L644.365 1032.62V1035.13L645.165 1035.91H648.877ZM657.124 1023.46H658.308V1040.26H657.124V1023.46ZM664.7 1025.58H665.884V1030.7L667.548 1029.03H670.028L671.5 1030.5V1037H670.316V1030.87L669.516 1030.09H667.868L665.884 1032.07V1037H664.7V1025.58ZM674.389 1035.53V1030.07H672.949V1029.03H674.421V1026.44H675.573V1029.03H678.069V1030.07H675.573V1035.16L676.373 1035.96H678.069V1037H675.861L674.389 1035.53ZM680.623 1035.53V1030.07H679.183V1029.03H680.655V1026.44H681.807V1029.03H684.303V1030.07H681.807V1035.16L682.607 1035.96H684.303V1037H682.095L680.623 1035.53ZM686.138 1029.03H687.289V1030.46L688.714 1029.03H691.706L693.178 1030.5V1035.53L691.706 1037H688.634L687.322 1035.85V1040.39H686.138V1029.03ZM691.194 1035.94L691.994 1035.16V1030.87L691.194 1030.09H689.034L687.322 1031.8V1034.55L688.858 1035.94H691.194ZM695.019 1035.69V1034.7H696.203V1035.35L696.843 1035.98H699.787L700.427 1035.35V1034.12L699.787 1033.48H696.347L695.083 1032.22V1030.34L696.395 1029.03H700.139L701.451 1030.34V1031.34H700.267V1030.68L699.627 1030.06H696.907L696.267 1030.68V1031.85L696.907 1032.49H700.299L701.611 1033.8V1035.69L700.299 1037H696.331L695.019 1035.69ZM703.238 1030.84V1030.14L703.702 1029.67H704.406L704.87 1030.14V1030.84L704.406 1031.3H703.702L703.238 1030.84ZM703.238 1036.54V1035.83L703.702 1035.37H704.406L704.87 1035.83V1036.54L704.406 1037H703.702L703.238 1036.54ZM711.895 1025.78H713.143L706.951 1037H705.703L711.895 1025.78ZM719.333 1025.78H720.581L714.389 1037H713.141L719.333 1025.78ZM721.138 1029.03H722.354L723.714 1035.66H723.762L725.682 1029.03H726.834L728.578 1035.66H728.626L730.114 1029.03H731.33L729.314 1037H728.034L726.274 1030.42H726.226L724.306 1037H723.01L721.138 1029.03ZM732.451 1029.03H733.667L735.027 1035.66H735.075L736.995 1029.03H738.147L739.891 1035.66H739.939L741.427 1029.03H742.643L740.627 1037H739.347L737.587 1030.42H737.539L735.619 1037H734.323L732.451 1029.03ZM743.763 1029.03H744.979L746.339 1035.66H746.387L748.307 1029.03H749.459L751.203 1035.66H751.251L752.739 1029.03H753.955L751.939 1037H750.659L748.899 1030.42H748.851L746.931 1037H745.635L743.763 1029.03ZM754.707 1036.54V1035.83L755.171 1035.37H755.875L756.339 1035.83V1036.54L755.875 1037H755.171L754.707 1036.54ZM765.008 1037H763.824V1026.63H760.512L759.792 1027.35V1029.03H762.304V1030.09H759.792V1037H758.608V1030.09H757.168V1029.03H758.608V1027.03L760 1025.64H765.008V1037ZM767.401 1027.21V1026.5L767.881 1026.02H768.585L769.065 1026.5V1027.21L768.585 1027.69H767.881L767.401 1027.21ZM767.641 1029.03H768.825V1037H767.641V1029.03ZM771.388 1029.03H772.539V1030.46L773.964 1029.03H776.956L778.428 1030.5V1035.53L776.956 1037H773.884L772.572 1035.85V1040.39H771.388V1029.03ZM776.444 1035.94L777.244 1035.16V1030.87L776.444 1030.09H774.284L772.572 1031.8V1034.55L774.108 1035.94H776.444ZM780.066 1036.54V1035.83L780.53 1035.37H781.234L781.698 1035.83V1036.54L781.234 1037H780.53L780.066 1036.54ZM783.335 1035.69V1033.66L784.647 1032.36H788.903V1030.84L788.103 1030.06H785.383L784.583 1030.84V1031.5H783.399V1030.5L784.871 1029.03H788.599L790.071 1030.5V1037H788.935V1035.59L787.463 1037H784.647L783.335 1035.69ZM787.223 1035.98L788.903 1034.36V1033.38H785.159L784.519 1034.01V1035.35L785.159 1035.98H787.223ZM792.308 1027.21V1026.5L792.788 1026.02H793.492L793.972 1026.5V1027.21L793.492 1027.69H792.788L792.308 1027.21ZM792.548 1029.03H793.732V1037H792.548V1029.03ZM800.28 1023.46H801.464V1040.26H800.28V1023.46ZM807.536 1035.16V1027.64L809.376 1025.8H814.848L816.656 1027.61V1029.32H814.48V1028.41L813.728 1027.66H810.528L809.712 1028.47V1034.33L810.528 1035.14H813.728L814.48 1034.39V1033.48H816.656V1035.19L814.848 1037H809.376L807.536 1035.16ZM818.021 1035.16V1027.64L819.861 1025.8H825.621L827.461 1027.64V1035.16L825.621 1037H819.861L818.021 1035.16ZM824.469 1035.14L825.285 1034.33V1028.47L824.469 1027.66H821.013L820.197 1028.47V1034.33L821.013 1035.14H824.469ZM829.384 1025.8H831.336L836.328 1033.4H836.36V1025.8H838.456V1037H836.504L831.512 1029.42H831.48V1037H829.384V1025.8ZM840.54 1025.8H848.476V1027.64H842.716V1030.74H847.708V1032.58H842.716V1037H840.54V1025.8ZM849.839 1025.8H852.015V1037H849.839V1025.8ZM854.181 1025.8H861.349L863.269 1027.72V1035.08L861.349 1037H854.181V1025.8ZM860.277 1035.14L861.093 1034.33V1028.47L860.277 1027.66H856.357V1035.14H860.277ZM865.196 1025.8H873.292V1027.64H867.372V1030.47H872.828V1032.28H867.372V1035.16H873.292V1037H865.196V1025.8ZM874.899 1025.8H876.851L881.843 1033.4H881.875V1025.8H883.971V1037H882.019L877.027 1029.42H876.995V1037H874.899V1025.8ZM888.6 1027.64H885.256V1025.8H894.12V1027.64H890.776V1037H888.6V1027.64ZM895.479 1025.8H897.655V1037H895.479V1025.8ZM902.957 1025.8H904.941L909.037 1037H906.829L905.917 1034.52H901.981L901.069 1037H898.861L902.957 1025.8ZM905.437 1032.73L903.949 1028.47H903.917L902.477 1032.73H905.437ZM910.165 1025.8H912.341V1035.16H917.941V1037H910.165V1025.8Z" fill="white"/>
<rect x="60.5" y="300.5" width="1799" height="659" rx="49.5" fill="url(#pattern0_4_1514)" stroke="white"/>
<path d="M63.38 83.6H86.208L91.772 89.216V101.956L86.156 107.624H70.452V120H63.38V83.6ZM82.984 101.696L84.804 99.876V91.348L82.984 89.528H70.452V101.696H82.984ZM94.6369 115.216V109.288L99.4209 104.504H112.577V101.228L110.965 99.616H103.165L101.605 101.228V102.684H94.8449V99.72L100.409 94.104H113.773L119.337 99.72V120H113.149V116.308L109.301 120H99.4209L94.6369 115.216ZM108.833 114.696L112.577 111.108V109.392H102.801L101.397 110.796V113.396L102.697 114.696H108.833ZM127.159 114.696V99.876H122.479V94.104H127.263V85.68H134.023V94.104H141.927V99.928H134.023V112.46L135.791 114.176H141.927V120H132.515L127.159 114.696ZM148.69 114.696V99.876H144.01V94.104H148.794V85.68H155.554V94.104H163.458V99.928H155.554V112.46L157.322 114.176H163.458V120H154.046L148.69 114.696ZM166.6 114.696V99.512L171.956 94.104H186.568L191.976 99.512V109.34H173.464V112.668L175.128 114.384H183.604L185.164 112.772V111.42H191.924V114.8L186.776 120H171.852L166.6 114.696ZM185.112 104.556V101.54L183.344 99.72H175.232L173.464 101.54V104.556H185.112ZM197.436 94.104H203.78V98.42L207.94 94.104H215.324V99.928H209.344L204.3 105.128V120H197.436V94.104ZM218.714 94.104H225.058V98.42L229.374 94.104H237.746L243.518 99.876V120H236.654V101.748L234.886 99.928H230.518L225.578 104.92V120H218.714V94.104ZM263.915 83.6H287.211L293.451 89.84V113.76L287.211 120H263.915V83.6ZM283.727 113.968L286.379 111.316V92.284L283.727 89.632H270.987V113.968H283.727ZM298.936 114.696V99.512L304.292 94.104H318.904L324.312 99.512V109.34H305.8V112.668L307.464 114.384H315.94L317.5 112.772V111.42H324.26V114.8L319.112 120H304.188L298.936 114.696ZM317.448 104.556V101.54L315.68 99.72H307.568L305.8 101.54V104.556H317.448ZM328.472 114.904V111.732H335.232V113.188L336.376 114.384H344.8L345.944 113.188V110.952L344.748 109.704H333.568L328.68 104.764V99.096L333.62 94.104H347.14L352.184 99.2V102.372H345.424V100.916L344.28 99.72H336.584L335.44 100.916V102.944L336.636 104.192H347.816L352.704 109.132V115.008L347.764 120H333.516L328.472 114.904ZM357.391 88.696V85.368L359.783 82.976H363.423L365.815 85.368V88.696L363.423 91.088H359.783L357.391 88.696ZM358.171 94.104H365.035V120H358.171V94.104ZM396.883 94.104V125.928L391.267 131.492H377.175L372.339 126.708V123.172H379.203V124.732L380.191 125.772H388.251L390.019 123.952V116.62L386.431 120H376.655L371.299 114.592V99.512L376.655 94.104H386.847L390.539 97.64V94.104H396.883ZM390.019 103.1L386.483 99.928H380.139L378.163 101.956V112.148L380.139 114.176H385.807L390.019 109.86V103.1ZM403.1 94.104H409.444V98.42L413.76 94.104H422.132L427.904 99.876V120H421.04V101.748L419.272 99.928H414.904L409.964 104.92V120H403.1V94.104ZM454.074 91.14L446.222 95.196V88.696L455.478 83.6H461.146V120H454.074V91.14Z" fill="white"/>
<path d="M60.552 175.72L61.032 172.936L63.408 170.92H69.696L69.984 169.144L69.24 168.256H65.496L64.464 169.144L64.32 169.912H61.656L61.944 168.376L64.656 166.048H70.608L72.744 168.64L71.112 178H68.64L68.952 176.152L66.72 178H62.424L60.552 175.72ZM66.84 175.864L69.168 173.944L69.336 172.936H64.464L63.576 173.68L63.312 175.144L63.912 175.864H66.84ZM74.3372 175.456L75.6092 168.256L78.2012 166.048H82.9532L84.3932 167.56L85.5932 160.864H88.3052L85.2812 178H82.7132L83.0492 176.032L80.7692 178H76.4252L74.3372 175.456ZM80.8412 175.672L83.3612 173.512L83.9852 170.008L82.4252 168.376H79.3052L78.1292 169.384L77.1692 174.664L78.0092 175.672H80.8412ZM88.4426 175.72L88.9226 172.936L91.2986 170.92H97.5866L97.8746 169.144L97.1306 168.256H93.3866L92.3546 169.144L92.2106 169.912H89.5466L89.8346 168.376L92.5466 166.048H98.4986L100.635 168.64L99.0026 178H96.5306L96.8426 176.152L94.6106 178H90.3146L88.4426 175.72ZM94.7306 175.864L97.0586 173.944L97.2266 172.936H92.3546L91.4666 173.68L91.2026 175.144L91.8026 175.864H94.7306ZM104.124 166.048H106.644L106.308 167.92L108.54 166.048H112.956L115.068 168.616L113.772 175.816L111.204 178H106.524L104.988 176.44L103.836 183.088H101.124L104.124 166.048ZM110.124 175.672L111.252 174.736L112.236 169.312L111.444 168.376H108.564L106.044 170.512L105.468 173.848L107.172 175.672H110.124ZM117.446 175.48L118.718 168.352H116.558L116.966 166.048H119.174L119.846 162.16H122.51L121.838 166.048H125.51L125.102 168.352H121.43L120.278 174.76L121.07 175.696H123.806L123.398 178H119.558L117.446 175.48ZM125.732 175.72L126.212 172.936L128.588 170.92H134.876L135.164 169.144L134.42 168.256H130.676L129.644 169.144L129.5 169.912H126.836L127.124 168.376L129.836 166.048H135.788L137.924 168.64L136.292 178H133.82L134.132 176.152L131.9 178H127.604L125.732 175.72ZM132.02 175.864L134.348 173.944L134.516 172.936H129.644L128.756 173.68L128.492 175.144L129.092 175.864H132.02ZM139.781 175.408L142.325 160.864H145.037L143.789 167.92L146.069 166.048H150.221L152.309 168.616L151.013 175.84L148.493 178H141.893L139.781 175.408ZM147.341 175.672L148.541 174.664L149.453 169.384L148.637 168.376H146.093L143.285 170.752L142.613 174.664L143.429 175.672H147.341ZM155.975 163.48L156.215 162.088L157.391 161.128H158.831L159.623 162.088L159.383 163.504L158.279 164.44H156.791L155.975 163.48ZM155.903 166.048H158.591L156.479 178H153.791L155.903 166.048ZM163 160.864H165.712L162.664 178H159.952L163 160.864ZM168.35 163.48L168.59 162.088L169.766 161.128H171.206L171.998 162.088L171.758 163.504L170.654 164.44H169.166L168.35 163.48ZM168.278 166.048H170.966L168.854 178H166.166L168.278 166.048ZM173.719 175.48L174.991 168.352H172.831L173.239 166.048H175.447L176.119 162.16H178.783L178.111 166.048H181.783L181.375 168.352H177.703L176.551 174.76L177.343 175.696H180.079L179.671 178H175.831L173.719 175.48ZM194.872 166.048L192.232 181L189.52 183.28H183.424L181.528 181.024L181.792 179.608H184.48L184.36 180.4L184.84 181H188.584L189.688 180.04L190.408 175.96L188.032 178H184.048L182.128 175.672L183.832 166.048H186.544L185.008 174.736L185.776 175.672H187.984L190.912 173.08L192.16 166.048H194.872ZM205.88 157.696H208.616L204.176 182.896H201.44L205.88 157.696ZM216.694 166.048H219.214L218.878 167.92L221.11 166.048H225.526L227.638 168.616L226.342 175.816L223.774 178H219.094L217.558 176.44L216.406 183.088H213.694L216.694 166.048ZM222.694 175.672L223.822 174.736L224.806 169.312L224.014 168.376H221.134L218.614 170.512L218.038 173.848L219.742 175.672H222.694ZM230.968 166.048H233.488L233.128 168.088L235.48 166.048H238.792L238.384 168.376H235.72L232.792 170.896L231.568 178H228.856L230.968 166.048ZM238.095 175.504L239.367 168.256L241.959 166.048H248.487L250.599 168.616L249.831 172.912H241.263L240.927 174.832L241.671 175.744H245.751L246.807 174.856L246.927 174.136H249.591L249.279 175.888L246.807 178H240.159L238.095 175.504ZM247.479 170.92L247.791 169.264L246.999 168.304H243.015L241.911 169.264L241.599 170.92H247.479ZM251.923 175.504L253.195 168.232L255.739 166.048H262.051L264.163 168.616L263.851 170.416H261.139L261.331 169.312L260.539 168.376H256.819L255.691 169.312L254.755 174.736L255.547 175.672H259.243L260.371 174.736L260.587 173.632H263.275L262.867 175.816L260.323 178H253.963L251.923 175.504ZM267.35 163.48L267.59 162.088L268.766 161.128H270.206L270.998 162.088L270.758 163.504L269.654 164.44H268.166L267.35 163.48ZM267.278 166.048H269.966L267.854 178H265.166L267.278 166.048ZM271.039 175.624L271.255 174.304H273.943L273.799 175.072L274.351 175.768H278.407L279.199 175.072L279.415 173.776L278.863 173.08H273.823L271.951 170.8L272.455 168.04L274.783 166.048H280.855L282.799 168.448L282.559 169.744H279.895L280.015 168.976L279.463 168.28H275.743L274.951 168.976L274.759 170.176L275.311 170.872H280.303L282.223 173.176L281.719 175.984L279.367 178H272.983L271.039 175.624ZM286.335 163.48L286.575 162.088L287.751 161.128H289.191L289.983 162.088L289.743 163.504L288.639 164.44H287.151L286.335 163.48ZM286.263 166.048H288.951L286.839 178H284.151L286.263 166.048ZM290.408 175.456L291.68 168.256L294.248 166.048H300.896L303.008 168.616L301.736 175.84L299.216 178H292.496L290.408 175.456ZM298.088 175.72L299.216 174.76L300.176 169.288L299.384 168.328H295.328L294.2 169.288L293.24 174.76L294.032 175.72H298.088ZM306.343 166.048H308.863L308.479 168.208L311.023 166.048H314.695L316.879 168.712L315.247 178H312.535L314.071 169.312L313.303 168.376H311.215L308.167 170.968L306.943 178H304.231L306.343 166.048ZM328.247 157.696H330.983L326.543 182.896H323.807L328.247 157.696ZM339.061 166.048H341.581L341.221 168.088L343.573 166.048H346.885L346.477 168.376H343.813L340.885 170.896L339.661 178H336.949L339.061 166.048ZM346.189 175.504L347.461 168.256L350.053 166.048H356.581L358.693 168.616L357.925 172.912H349.357L349.021 174.832L349.765 175.744H353.845L354.901 174.856L355.021 174.136H357.685L357.373 175.888L354.901 178H348.253L346.189 175.504ZM355.573 170.92L355.885 169.264L355.093 168.304H351.109L350.005 169.264L349.693 170.92H355.573ZM362.969 160.864H365.681L362.633 178H359.921L362.969 160.864ZM368.319 163.48L368.559 162.088L369.735 161.128H371.175L371.967 162.088L371.727 163.504L370.623 164.44H369.135L368.319 163.48ZM368.247 166.048H370.935L368.823 178H366.135L368.247 166.048ZM372.224 175.72L372.704 172.936L375.08 170.92H381.368L381.656 169.144L380.912 168.256H377.168L376.136 169.144L375.992 169.912H373.328L373.616 168.376L376.328 166.048H382.28L384.416 168.64L382.784 178H380.312L380.624 176.152L378.392 178H374.096L372.224 175.72ZM378.512 175.864L380.84 173.944L381.008 172.936H376.136L375.248 173.68L374.984 175.144L375.584 175.864H378.512ZM386.273 175.408L388.817 160.864H391.529L390.281 167.92L392.561 166.048H396.713L398.801 168.616L397.505 175.84L394.985 178H388.385L386.273 175.408ZM393.833 175.672L395.033 174.664L395.945 169.384L395.129 168.376H392.585L389.777 170.752L389.105 174.664L389.921 175.672H393.833ZM402.468 163.48L402.708 162.088L403.884 161.128H405.324L406.116 162.088L405.876 163.504L404.772 164.44H403.284L402.468 163.48ZM402.396 166.048H405.084L402.972 178H400.284L402.396 166.048ZM409.492 160.864H412.204L409.156 178H406.444L409.492 160.864ZM414.843 163.48L415.083 162.088L416.259 161.128H417.699L418.491 162.088L418.251 163.504L417.147 164.44H415.659L414.843 163.48ZM414.771 166.048H417.459L415.347 178H412.659L414.771 166.048ZM420.211 175.48L421.483 168.352H419.323L419.731 166.048H421.939L422.611 162.16H425.275L424.603 166.048H428.275L427.867 168.352H424.195L423.043 174.76L423.835 175.696H426.571L426.163 178H422.323L420.211 175.48ZM441.364 166.048L438.724 181L436.012 183.28H429.916L428.02 181.024L428.284 179.608H430.972L430.852 180.4L431.332 181H435.076L436.18 180.04L436.9 175.96L434.524 178H430.54L428.62 175.672L430.324 166.048H433.036L431.5 174.736L432.268 175.672H434.476L437.404 173.08L438.652 166.048H441.364ZM61.92 223.2H63.888L69.288 236.208H69.336L74.736 223.2H76.728V240H75V226.728H74.952L70.032 238.32H68.592L63.696 226.728H63.648V240H61.92V223.2ZM80.2163 237.792V230.256L82.4243 228.048H88.5683L90.7762 230.256V237.792L88.5683 240H82.4243L80.2163 237.792ZM87.8003 238.416L89.0003 237.24V230.808L87.8003 229.632H83.1923L81.9923 230.808V237.24L83.1923 238.416H87.8003ZM94.1438 228.048H95.8717V230.592L98.4158 228.048H102.088L104.296 230.256V240H102.52V230.808L101.32 229.632H98.8958L95.9198 232.608V240H94.1438V228.048ZM107.544 237.792V230.256L109.752 228.048H115.896L118.104 230.256V237.792L115.896 240H109.752L107.544 237.792ZM115.128 238.416L116.328 237.24V230.808L115.128 229.632H110.52L109.32 230.808V237.24L110.52 238.416H115.128ZM131.792 228.048V243.048L129.608 245.232H123.68L121.832 243.384V241.92H123.608V242.808L124.448 243.648H128.816L130.016 242.472V238.008L127.808 240H123.44L121.232 237.792V230.256L123.44 228.048H127.976L130.064 230.136V228.048H131.792ZM130.016 232.152L127.496 229.632H124.208L123.008 230.808V237.24L124.208 238.416H127.52L130.016 236.088V232.152ZM135.394 228.048H137.122V230.184L139.258 228.048H142.354V229.632H139.714L137.17 232.176V240H135.394V228.048ZM143.659 238.032V234.984L145.627 233.04H152.011V230.76L150.811 229.584H146.731L145.531 230.76V231.744H143.755V230.256L145.963 228.048H151.555L153.763 230.256V240H152.059V237.888L149.851 240H145.627L143.659 238.032ZM149.491 238.464L152.011 236.04V234.576H146.395L145.435 235.512V237.528L146.395 238.464H149.491ZM157.238 228.048H158.965V230.352L161.27 228.048H164.126L165.998 229.92L167.87 228.048H171.638L173.846 230.256V240H172.07V230.808L170.87 229.632H168.23L166.55 231.312V240H164.822V230.808L163.622 229.632H161.605L159.014 232.224V240H157.238V228.048ZM183.063 237.36V225.84L185.703 223.2H192.903L195.447 225.744V227.28H193.623V226.344L192.087 224.832H186.519L184.887 226.44V236.76L186.519 238.368H192.087L193.623 236.856V235.92H195.447V237.456L192.903 240H185.703L183.063 237.36ZM197.963 238.032V234.984L199.931 233.04H206.315V230.76L205.115 229.584H201.035L199.835 230.76V231.744H198.059V230.256L200.267 228.048H205.859L208.067 230.256V240H206.363V237.888L204.155 240H199.931L197.963 238.032ZM203.795 238.464L206.315 236.04V234.576H200.699L199.739 235.512V237.528L200.699 238.464H203.795ZM211.542 228.048H213.27V230.184L215.406 228.048H219.894L222.102 230.256V237.792L219.894 240H215.286L213.318 238.272V245.088H211.542V228.048ZM219.126 238.416L220.326 237.24V230.808L219.126 229.632H215.886L213.318 232.2V236.328L215.622 238.416H219.126ZM225.104 238.032V234.984L227.072 233.04H233.456V230.76L232.256 229.584H228.176L226.976 230.76V231.744H225.2V230.256L227.408 228.048H233L235.208 230.256V240H233.504V237.888L231.296 240H227.072L225.104 238.032ZM230.936 238.464L233.456 236.04V234.576H227.84L226.88 235.512V237.528L227.84 238.464H230.936ZM238.683 237.792V222.864H240.459V230.376L242.787 228.048H246.987L249.195 230.256V237.792L246.987 240H240.891L238.683 237.792ZM246.219 238.416L247.419 237.24V230.808L246.219 229.632H243.291L240.459 232.464V237.24L241.659 238.416H246.219ZM252.438 225.312V224.256L253.158 223.536H254.214L254.934 224.256V225.312L254.214 226.032H253.158L252.438 225.312ZM252.798 228.048H254.574V240H252.798V228.048ZM258.537 222.864H260.313V240H258.537V222.864ZM263.922 225.312V224.256L264.642 223.536H265.698L266.418 224.256V225.312L265.698 226.032H264.642L263.922 225.312ZM264.282 228.048H266.058V240H264.282V228.048ZM270.982 237.792V229.608H268.822V228.048H271.03V224.16H272.758V228.048H276.502V229.608H272.758V237.24L273.958 238.44H276.502V240H273.19L270.982 237.792ZM279.133 225.312V224.256L279.853 223.536H280.909L281.629 224.256V225.312L280.909 226.032H279.853L279.133 225.312ZM279.493 228.048H281.269V240H279.493V228.048ZM284.873 237.792V230.256L287.081 228.048H293.105L295.337 230.256V234.552H286.649V237.24L287.849 238.416H292.337L293.537 237.24V236.328H295.312V237.792L293.105 240H287.081L284.873 237.792ZM293.561 233.016V230.808L292.361 229.632H287.849L286.649 230.808V233.016H293.561ZM297.966 238.032V236.544H299.742V237.528L300.702 238.464H305.118L306.078 237.528V235.68L305.118 234.72H299.958L298.062 232.824V230.016L300.03 228.048H305.646L307.614 230.016V231.504H305.838V230.52L304.878 229.584H300.798L299.838 230.52V232.272L300.798 233.232H305.886L307.854 235.2V238.032L305.886 240H299.934L297.966 238.032Z" fill="white"/>
<defs>
<pattern id="pattern0_4_1514" patternUnits="userSpaceOnUse" patternTransform="matrix(72 0 0 72 60 300)" preserveAspectRatio="none" viewBox="0 0 480 480" width="1" height="1">
<g id="pattern0_4_1514_inner">
<path d="M436.073 240.235C460.247 240.235 480 222.705 480 198.583V162.372C480 138.221 460.218 120.353 436.073 120.353H286.691C262.516 120.353 240 98.725 240 74.6032V43.8843C240 19.7334 222.982 3.05176e-05 198.836 3.05176e-05H43.9273C19.7818 -0.0290319 0 19.7334 0 43.8552V80.0669C0 104.218 19.7818 120.353 43.9273 120.353H193.309C217.484 120.353 240 143.714 240 167.835V193.062C240 217.212 217.455 240.235 193.309 240.235H43.9273C19.7527 240.235 0 256.708 0 280.83V317.042C0 341.193 19.7818 360.118 43.9273 360.118H118.618H193.309C217.484 360.118 240 380.688 240 404.81V435.529C240 459.68 257.018 480 281.164 480H436.044C460.218 480 479.971 459.651 479.971 435.529V399.317C479.971 375.167 460.189 360.118 436.044 360.118H286.662C262.487 360.118 240 335.671 240 311.549V298.936V286.323C240 262.172 262.516 240.235 286.662 240.235H436.044H436.073Z" fill="white"/>
</g>
</pattern></defs>
</svg>
