<svg width="1920" height="1080" viewBox="0 0 1920 1080" fill="none" xmlns="http://www.w3.org/2000/svg">
<rect width="1920" height="1080" fill="#0000FF"/>
<path d="M61.28 1025.8H68.352V1026.89H62.496V1030.92H67.584V1032.01H62.496V1037H61.28V1025.8ZM70.1081 1025.58H71.2921V1037H70.1081V1025.58ZM73.6981 1027.21V1026.5L74.1781 1026.02H74.8821L75.3621 1026.5V1027.21L74.8821 1027.69H74.1781L73.6981 1027.21ZM73.9381 1029.03H75.1221V1037H73.9381V1029.03ZM77.6844 1029.03H78.8364V1030.46L80.2604 1029.03H83.2524L84.7244 1030.5V1035.53L83.2524 1037H80.1804L78.8684 1035.85V1040.39H77.6844V1029.03ZM82.7404 1035.94L83.5404 1035.16V1030.87L82.7404 1030.09H80.5804L78.8684 1031.8V1034.55L80.4044 1035.94H82.7404ZM93.5439 1026.87H90.1519V1025.8H98.1519V1026.87H94.7599V1037H93.5439V1026.87ZM98.2275 1035.53V1030.5L99.6995 1029.03H103.716L105.204 1030.5V1033.37H99.4115V1035.16L100.212 1035.94H103.204L104.004 1035.16V1034.55H105.188V1035.53L103.716 1037H99.6995L98.2275 1035.53ZM104.02 1032.34V1030.87L103.22 1030.09H100.212L99.4115 1030.87V1032.34H104.02ZM107.196 1035.53V1030.5L108.668 1029.03H112.508L113.98 1030.5V1031.48H112.796V1030.87L111.996 1030.09H109.18L108.38 1030.87V1035.16L109.18 1035.94H111.996L112.796 1035.16V1034.55H113.98V1035.53L112.508 1037H108.668L107.196 1035.53ZM115.903 1025.58H117.087V1030.7L118.751 1029.03H121.231L122.703 1030.5V1037H121.519V1030.87L120.719 1030.09H119.071L117.087 1032.07V1037H115.903V1025.58ZM125.028 1029.03H126.18V1030.73L127.876 1029.03H130.324L131.796 1030.5V1037H130.612V1030.87L129.812 1030.09H128.196L126.212 1032.07V1037H125.028V1029.03ZM133.962 1035.53V1030.5L135.434 1029.03H139.53L141.002 1030.5V1035.53L139.53 1037H135.434L133.962 1035.53ZM139.018 1035.94L139.818 1035.16V1030.87L139.018 1030.09H135.946L135.146 1030.87V1035.16L135.946 1035.94H139.018ZM143.327 1025.58H144.511V1037H143.327V1025.58ZM146.837 1035.53V1030.5L148.309 1029.03H152.405L153.877 1030.5V1035.53L152.405 1037H148.309L146.837 1035.53ZM151.893 1035.94L152.693 1035.16V1030.87L151.893 1030.09H148.821L148.021 1030.87V1035.16L148.821 1035.94H151.893ZM163.002 1029.03V1039.03L161.546 1040.49H157.594L156.362 1039.26V1038.28H157.546V1038.87L158.106 1039.43H161.018L161.818 1038.65V1035.67L160.346 1037H157.434L155.962 1035.53V1030.5L157.434 1029.03H160.458L161.85 1030.42V1029.03H163.002ZM161.818 1031.77L160.138 1030.09H157.946L157.146 1030.87V1035.16L157.946 1035.94H160.154L161.818 1034.39V1031.77ZM172.107 1029.03V1039.03L170.635 1040.49H166.795L165.563 1039.26V1038.28H166.747V1038.89L167.307 1039.43H170.123L170.923 1038.65V1035.3L169.227 1037H166.795L165.323 1035.53V1029.03H166.507V1035.16L167.307 1035.94H168.907L170.923 1033.93V1029.03H172.107ZM178.339 1035.24V1027.56L180.099 1025.8H184.899L186.595 1027.5V1028.52H185.379V1027.9L184.355 1026.89H180.643L179.555 1027.96V1034.84L180.643 1035.91H184.355L185.379 1034.9V1034.28H186.595V1035.3L184.899 1037H180.099L178.339 1035.24ZM188.353 1035.53V1030.5L189.825 1029.03H193.921L195.392 1030.5V1035.53L193.921 1037H189.825L188.353 1035.53ZM193.409 1035.94L194.209 1035.16V1030.87L193.409 1030.09H190.337L189.537 1030.87V1035.16L190.337 1035.94H193.409ZM197.638 1029.03H198.789V1030.46L200.214 1029.03H202.278V1030.09H200.518L198.822 1031.78V1037H197.638V1029.03ZM203.794 1029.03H204.946V1030.46L206.37 1029.03H209.362L210.834 1030.5V1035.53L209.362 1037H206.29L204.978 1035.85V1040.39H203.794V1029.03ZM208.85 1035.94L209.65 1035.16V1030.87L208.85 1030.09H206.69L204.978 1031.8V1034.55L206.514 1035.94H208.85ZM212.915 1035.53V1030.5L214.387 1029.03H218.483L219.955 1030.5V1035.53L218.483 1037H214.387L212.915 1035.53ZM217.971 1035.94L218.771 1035.16V1030.87L217.971 1030.09H214.899L214.099 1030.87V1035.16L214.899 1035.94H217.971ZM222.2 1029.03H223.352V1030.46L224.776 1029.03H226.84V1030.09H225.08L223.384 1031.78V1037H222.2V1029.03ZM227.71 1035.69V1033.66L229.022 1032.36H233.278V1030.84L232.478 1030.06H229.758L228.958 1030.84V1031.5H227.774V1030.5L229.246 1029.03H232.974L234.446 1030.5V1037H233.31V1035.59L231.838 1037H229.022L227.71 1035.69ZM231.598 1035.98L233.278 1034.36V1033.38H229.534L228.894 1034.01V1035.35L229.534 1035.98H231.598ZM237.326 1035.53V1030.07H235.886V1029.03H237.358V1026.44H238.51V1029.03H241.006V1030.07H238.51V1035.16L239.31 1035.96H241.006V1037H238.798L237.326 1035.53ZM242.761 1027.21V1026.5L243.241 1026.02H243.945L244.425 1026.5V1027.21L243.945 1027.69H243.241L242.761 1027.21ZM243.001 1029.03H244.185V1037H243.001V1029.03ZM246.587 1035.53V1030.5L248.059 1029.03H252.155L253.627 1030.5V1035.53L252.155 1037H248.059L246.587 1035.53ZM251.643 1035.94L252.443 1035.16V1030.87L251.643 1030.09H248.571L247.771 1030.87V1035.16L248.571 1035.94H251.643ZM255.872 1029.03H257.024V1030.73L258.72 1029.03H261.168L262.64 1030.5V1037H261.456V1030.87L260.656 1030.09H259.04L257.056 1032.07V1037H255.872V1029.03ZM268.952 1023.46H270.136V1040.26H268.952V1023.46ZM276.448 1035.53V1027.27L277.92 1025.8H282.4L283.872 1027.27V1028.52H282.656V1027.67L281.856 1026.89H278.464L277.664 1027.67V1031.45L278.96 1030.15H282.464L283.936 1031.62V1035.53L282.464 1037H277.92L276.448 1035.53ZM281.92 1035.91L282.72 1035.13V1032.02L281.92 1031.24H279.28L277.664 1032.86V1035.13L278.464 1035.91H281.92ZM285.851 1035.53V1034.28H287.067V1035.13L287.867 1035.91H291.227L292.027 1035.13V1031.93L291.227 1031.14H286.011V1025.8H293.019V1026.87H287.195V1030.06H291.755L293.243 1031.54V1035.53L291.771 1037H287.323L285.851 1035.53ZM295.323 1035.4V1027.4L296.923 1025.8H301.531L303.131 1027.4V1035.4L301.531 1037H296.923L295.323 1035.4ZM300.987 1035.91L301.915 1035V1027.8L300.987 1026.89H297.467L296.539 1027.8V1035L297.467 1035.91H300.987ZM309.276 1035.24V1027.56L311.036 1025.8H315.836L317.532 1027.5V1028.52H316.316V1027.9L315.292 1026.89H311.58L310.492 1027.96V1034.84L311.58 1035.91H315.292L316.316 1034.9V1034.28H317.532V1035.3L315.836 1037H311.036L309.276 1035.24ZM319.21 1035.69V1033.66L320.522 1032.36H324.778V1030.84L323.978 1030.06H321.258L320.458 1030.84V1031.5H319.274V1030.5L320.746 1029.03H324.474L325.946 1030.5V1037H324.81V1035.59L323.338 1037H320.522L319.21 1035.69ZM323.098 1035.98L324.778 1034.36V1033.38H321.034L320.394 1034.01V1035.35L321.034 1035.98H323.098ZM328.343 1025.58H329.527V1037H328.343V1025.58ZM331.933 1027.21V1026.5L332.413 1026.02H333.117L333.597 1026.5V1027.21L333.117 1027.69H332.413L331.933 1027.21ZM332.173 1029.03H333.357V1037H332.173V1029.03ZM336.639 1030.07H335.199V1029.03H336.639V1027.26L338.031 1025.86H340.335V1026.89H338.543L337.823 1027.59V1029.03H340.335V1030.07H337.823V1037H336.639V1030.07ZM341.462 1035.53V1030.5L342.934 1029.03H347.03L348.502 1030.5V1035.53L347.03 1037H342.934L341.462 1035.53ZM346.518 1035.94L347.318 1035.16V1030.87L346.518 1030.09H343.446L342.646 1030.87V1035.16L343.446 1035.94H346.518ZM350.747 1029.03H351.899V1030.46L353.323 1029.03H355.387V1030.09H353.627L351.931 1031.78V1037H350.747V1029.03ZM356.903 1029.03H358.055V1030.73L359.751 1029.03H362.199L363.671 1030.5V1037H362.487V1030.87L361.687 1030.09H360.071L358.087 1032.07V1037H356.903V1029.03ZM365.917 1027.21V1026.5L366.397 1026.02H367.101L367.581 1026.5V1027.21L367.101 1027.69H366.397L365.917 1027.21ZM366.157 1029.03H367.341V1037H366.157V1029.03ZM369.663 1035.69V1033.66L370.975 1032.36H375.231V1030.84L374.431 1030.06H371.711L370.911 1030.84V1031.5H369.727V1030.5L371.199 1029.03H374.927L376.399 1030.5V1037H375.263V1035.59L373.791 1037H370.975L369.663 1035.69ZM373.551 1035.98L375.231 1034.36V1033.38H371.487L370.847 1034.01V1035.35L371.487 1035.98H373.551ZM382.462 1035.53V1034.5H383.662V1035.13L384.43 1035.91H388.27L389.07 1035.1V1032.58L388.27 1031.8H383.966L382.494 1030.33V1027.27L383.966 1025.8H388.67L390.142 1027.27V1028.31H388.958V1027.67L388.158 1026.89H384.494L383.694 1027.67V1029.93L384.494 1030.71H388.798L390.27 1032.18V1035.5L388.766 1037H383.934L382.462 1035.53ZM392.998 1035.53V1030.07H391.558V1029.03H393.03V1026.44H394.182V1029.03H396.678V1030.07H394.182V1035.16L394.982 1035.96H396.678V1037H394.47L392.998 1035.53ZM398.801 1037H398.609L398.145 1036.54V1035.83L398.609 1035.37H399.312L399.777 1035.83V1037L398.977 1038.98H398.321L398.801 1037ZM410.628 1027.5V1026.89H404.836V1025.8H411.844V1027.58L407.46 1037H406.18L410.628 1027.5ZM414.404 1035.53V1030.07H412.964V1029.03H414.436V1026.44H415.588V1029.03H418.084V1030.07H415.588V1035.16L416.388 1035.96H418.084V1037H415.876L414.404 1035.53ZM419.919 1025.58H421.103V1030.7L422.767 1029.03H425.247L426.719 1030.5V1037H425.535V1030.87L424.735 1030.09H423.087L421.103 1032.07V1037H419.919V1025.58ZM433.03 1025.8H440.102V1026.89H434.246V1030.92H439.334V1032.01H434.246V1037H433.03V1025.8ZM441.858 1025.58H443.042V1037H441.858V1025.58ZM445.368 1035.53V1030.5L446.84 1029.03H450.936L452.408 1030.5V1035.53L450.936 1037H446.84L445.368 1035.53ZM450.424 1035.94L451.224 1035.16V1030.87L450.424 1030.09H447.352L446.552 1030.87V1035.16L447.352 1035.94H450.424ZM454.493 1035.53V1030.5L455.965 1029.03H460.061L461.533 1030.5V1035.53L460.061 1037H455.965L454.493 1035.53ZM459.549 1035.94L460.349 1035.16V1030.87L459.549 1030.09H456.477L455.677 1030.87V1035.16L456.477 1035.94H459.549ZM463.778 1029.03H464.93V1030.46L466.354 1029.03H468.418V1030.09H466.658L464.962 1031.78V1037H463.778V1029.03ZM469.269 1037H469.077L468.613 1036.54V1035.83L469.077 1035.37H469.781L470.245 1035.83V1037L469.445 1038.98H468.789L469.269 1037ZM476.024 1035.53V1034.5H477.224V1035.13L477.992 1035.91H481.832L482.632 1035.1V1032.58L481.832 1031.8H477.528L476.056 1030.33V1027.27L477.528 1025.8H482.232L483.704 1027.27V1028.31H482.52V1027.67L481.72 1026.89H478.056L477.256 1027.67V1029.93L478.056 1030.71H482.36L483.832 1032.18V1035.5L482.328 1037H477.496L476.024 1035.53ZM485.679 1035.69V1033.66L486.991 1032.36H491.247V1030.84L490.447 1030.06H487.727L486.927 1030.84V1031.5H485.743V1030.5L487.215 1029.03H490.943L492.415 1030.5V1037H491.279V1035.59L489.807 1037H486.991L485.679 1035.69ZM489.567 1035.98L491.247 1034.36V1033.38H487.503L486.863 1034.01V1035.35L487.503 1035.98H489.567ZM494.731 1029.03H495.883V1030.73L497.579 1029.03H500.027L501.499 1030.5V1037H500.315V1030.87L499.515 1030.09H497.899L495.915 1032.07V1037H494.731V1029.03ZM507.811 1025.8H514.883V1026.89H509.027V1030.92H514.115V1032.01H509.027V1037H507.811V1025.8ZM516.153 1029.03H517.305V1030.46L518.729 1029.03H520.793V1030.09H519.033L517.337 1031.78V1037H516.153V1029.03ZM521.663 1035.69V1033.66L522.975 1032.36H527.231V1030.84L526.431 1030.06H523.711L522.911 1030.84V1031.5H521.727V1030.5L523.199 1029.03H526.927L528.399 1030.5V1037H527.263V1035.59L525.791 1037H522.975L521.663 1035.69ZM525.551 1035.98L527.231 1034.36V1033.38H523.487L522.847 1034.01V1035.35L523.487 1035.98H525.551ZM530.716 1029.03H531.868V1030.73L533.564 1029.03H536.012L537.484 1030.5V1037H536.3V1030.87L535.5 1030.09H533.884L531.9 1032.07V1037H530.716V1029.03ZM539.649 1035.53V1030.5L541.121 1029.03H544.961L546.433 1030.5V1031.48H545.249V1030.87L544.449 1030.09H541.633L540.833 1030.87V1035.16L541.633 1035.94H544.449L545.249 1035.16V1034.55H546.433V1035.53L544.961 1037H541.121L539.649 1035.53ZM548.276 1027.21V1026.5L548.756 1026.02H549.46L549.94 1026.5V1027.21L549.46 1027.69H548.756L548.276 1027.21ZM548.516 1029.03H549.7V1037H548.516V1029.03ZM551.863 1035.69V1034.7H553.047V1035.35L553.687 1035.98H556.631L557.271 1035.35V1034.12L556.631 1033.48H553.191L551.927 1032.22V1030.34L553.239 1029.03H556.983L558.295 1030.34V1031.34H557.111V1030.68L556.471 1030.06H553.751L553.111 1030.68V1031.85L553.751 1032.49H557.143L558.455 1033.8V1035.69L557.143 1037H553.174L551.863 1035.69ZM560.29 1035.53V1030.5L561.762 1029.03H565.602L567.074 1030.5V1031.48H565.89V1030.87L565.09 1030.09H562.274L561.474 1030.87V1035.16L562.274 1035.94H565.09L565.89 1035.16V1034.55H567.074V1035.53L565.602 1037H561.762L560.29 1035.53ZM568.837 1035.53V1030.5L570.309 1029.03H574.405L575.877 1030.5V1035.53L574.405 1037H570.309L568.837 1035.53ZM573.893 1035.94L574.693 1035.16V1030.87L573.893 1030.09H570.821L570.021 1030.87V1035.16L570.821 1035.94H573.893ZM578.254 1037H578.062L577.598 1036.54V1035.83L578.062 1035.37H578.766L579.23 1035.83V1037L578.43 1038.98H577.774L578.254 1037ZM585.089 1035.24V1027.56L586.849 1025.8H591.649L593.345 1027.5V1028.52H592.129V1027.9L591.105 1026.89H587.393L586.305 1027.96V1034.84L587.393 1035.91H591.105L592.129 1034.9V1034.28H593.345V1035.3L591.649 1037H586.849L585.089 1035.24ZM598.288 1025.8H599.6L603.584 1037H602.32L601.28 1033.98H596.608L595.568 1037H594.304L598.288 1025.8ZM600.928 1032.92L598.96 1027.21H598.928L596.976 1032.92H600.928ZM609.013 1035.53V1034.28H610.229V1035.13L611.029 1035.91H614.325L615.125 1035.13V1031.58L613.989 1032.71H610.325L608.853 1031.24V1027.27L610.325 1025.8H614.869L616.341 1027.27V1035.53L614.869 1037H610.485L609.013 1035.53ZM613.669 1031.62L615.125 1030.17V1027.67L614.325 1026.89H610.869L610.069 1027.67V1030.84L610.869 1031.62H613.669ZM623.357 1034.71H617.853V1032.82L622.637 1025.8H624.573V1033.62H625.933V1034.71H624.573V1037H623.357V1034.71ZM623.357 1033.66V1026.82H623.261L619.037 1033.02V1033.66H623.357ZM629.48 1027.05L626.968 1028.34V1027.22L629.576 1025.8H630.696V1037H629.48V1027.05ZM633.183 1035.4V1027.4L634.783 1025.8H639.391L640.991 1027.4V1035.4L639.391 1037H634.783L633.183 1035.4ZM638.847 1035.91L639.775 1035V1027.8L638.847 1026.89H635.327L634.399 1027.8V1035L635.327 1035.91H638.847ZM643.149 1035.53V1032.23L644.157 1031.22L643.309 1030.38V1027.27L644.781 1025.8H649.261L650.733 1027.27V1030.38L649.885 1031.22L650.893 1032.23V1035.53L649.421 1037H644.621L643.149 1035.53ZM648.717 1030.78L649.517 1029.99V1027.67L648.717 1026.89H645.325L644.525 1027.67V1029.99L645.325 1030.78H648.717ZM648.877 1035.91L649.677 1035.13V1032.62L648.877 1031.83H645.165L644.365 1032.62V1035.13L645.165 1035.91H648.877ZM657.124 1023.46H658.308V1040.26H657.124V1023.46ZM664.7 1025.58H665.884V1030.7L667.548 1029.03H670.028L671.5 1030.5V1037H670.316V1030.87L669.516 1030.09H667.868L665.884 1032.07V1037H664.7V1025.58ZM674.389 1035.53V1030.07H672.949V1029.03H674.421V1026.44H675.573V1029.03H678.069V1030.07H675.573V1035.16L676.373 1035.96H678.069V1037H675.861L674.389 1035.53ZM680.623 1035.53V1030.07H679.183V1029.03H680.655V1026.44H681.807V1029.03H684.303V1030.07H681.807V1035.16L682.607 1035.96H684.303V1037H682.095L680.623 1035.53ZM686.138 1029.03H687.289V1030.46L688.714 1029.03H691.706L693.178 1030.5V1035.53L691.706 1037H688.634L687.322 1035.85V1040.39H686.138V1029.03ZM691.194 1035.94L691.994 1035.16V1030.87L691.194 1030.09H689.034L687.322 1031.8V1034.55L688.858 1035.94H691.194ZM695.019 1035.69V1034.7H696.203V1035.35L696.843 1035.98H699.787L700.427 1035.35V1034.12L699.787 1033.48H696.347L695.083 1032.22V1030.34L696.395 1029.03H700.139L701.451 1030.34V1031.34H700.267V1030.68L699.627 1030.06H696.907L696.267 1030.68V1031.85L696.907 1032.49H700.299L701.611 1033.8V1035.69L700.299 1037H696.331L695.019 1035.69ZM703.238 1030.84V1030.14L703.702 1029.67H704.406L704.87 1030.14V1030.84L704.406 1031.3H703.702L703.238 1030.84ZM703.238 1036.54V1035.83L703.702 1035.37H704.406L704.87 1035.83V1036.54L704.406 1037H703.702L703.238 1036.54ZM711.895 1025.78H713.143L706.951 1037H705.703L711.895 1025.78ZM719.333 1025.78H720.581L714.389 1037H713.141L719.333 1025.78ZM721.138 1029.03H722.354L723.714 1035.66H723.762L725.682 1029.03H726.834L728.578 1035.66H728.626L730.114 1029.03H731.33L729.314 1037H728.034L726.274 1030.42H726.226L724.306 1037H723.01L721.138 1029.03ZM732.451 1029.03H733.667L735.027 1035.66H735.075L736.995 1029.03H738.147L739.891 1035.66H739.939L741.427 1029.03H742.643L740.627 1037H739.347L737.587 1030.42H737.539L735.619 1037H734.323L732.451 1029.03ZM743.763 1029.03H744.979L746.339 1035.66H746.387L748.307 1029.03H749.459L751.203 1035.66H751.251L752.739 1029.03H753.955L751.939 1037H750.659L748.899 1030.42H748.851L746.931 1037H745.635L743.763 1029.03ZM754.707 1036.54V1035.83L755.171 1035.37H755.875L756.339 1035.83V1036.54L755.875 1037H755.171L754.707 1036.54ZM765.008 1037H763.824V1026.63H760.512L759.792 1027.35V1029.03H762.304V1030.09H759.792V1037H758.608V1030.09H757.168V1029.03H758.608V1027.03L760 1025.64H765.008V1037ZM767.401 1027.21V1026.5L767.881 1026.02H768.585L769.065 1026.5V1027.21L768.585 1027.69H767.881L767.401 1027.21ZM767.641 1029.03H768.825V1037H767.641V1029.03ZM771.388 1029.03H772.539V1030.46L773.964 1029.03H776.956L778.428 1030.5V1035.53L776.956 1037H773.884L772.572 1035.85V1040.39H771.388V1029.03ZM776.444 1035.94L777.244 1035.16V1030.87L776.444 1030.09H774.284L772.572 1031.8V1034.55L774.108 1035.94H776.444ZM780.066 1036.54V1035.83L780.53 1035.37H781.234L781.698 1035.83V1036.54L781.234 1037H780.53L780.066 1036.54ZM783.335 1035.69V1033.66L784.647 1032.36H788.903V1030.84L788.103 1030.06H785.383L784.583 1030.84V1031.5H783.399V1030.5L784.871 1029.03H788.599L790.071 1030.5V1037H788.935V1035.59L787.463 1037H784.647L783.335 1035.69ZM787.223 1035.98L788.903 1034.36V1033.38H785.159L784.519 1034.01V1035.35L785.159 1035.98H787.223ZM792.308 1027.21V1026.5L792.788 1026.02H793.492L793.972 1026.5V1027.21L793.492 1027.69H792.788L792.308 1027.21ZM792.548 1029.03H793.732V1037H792.548V1029.03ZM800.28 1023.46H801.464V1040.26H800.28V1023.46ZM807.536 1035.16V1027.64L809.376 1025.8H814.848L816.656 1027.61V1029.32H814.48V1028.41L813.728 1027.66H810.528L809.712 1028.47V1034.33L810.528 1035.14H813.728L814.48 1034.39V1033.48H816.656V1035.19L814.848 1037H809.376L807.536 1035.16ZM818.021 1035.16V1027.64L819.861 1025.8H825.621L827.461 1027.64V1035.16L825.621 1037H819.861L818.021 1035.16ZM824.469 1035.14L825.285 1034.33V1028.47L824.469 1027.66H821.013L820.197 1028.47V1034.33L821.013 1035.14H824.469ZM829.384 1025.8H831.336L836.328 1033.4H836.36V1025.8H838.456V1037H836.504L831.512 1029.42H831.48V1037H829.384V1025.8ZM840.54 1025.8H848.476V1027.64H842.716V1030.74H847.708V1032.58H842.716V1037H840.54V1025.8ZM849.839 1025.8H852.015V1037H849.839V1025.8ZM854.181 1025.8H861.349L863.269 1027.72V1035.08L861.349 1037H854.181V1025.8ZM860.277 1035.14L861.093 1034.33V1028.47L860.277 1027.66H856.357V1035.14H860.277ZM865.196 1025.8H873.292V1027.64H867.372V1030.47H872.828V1032.28H867.372V1035.16H873.292V1037H865.196V1025.8ZM874.899 1025.8H876.851L881.843 1033.4H881.875V1025.8H883.971V1037H882.019L877.027 1029.42H876.995V1037H874.899V1025.8ZM888.6 1027.64H885.256V1025.8H894.12V1027.64H890.776V1037H888.6V1027.64ZM895.479 1025.8H897.655V1037H895.479V1025.8ZM902.957 1025.8H904.941L909.037 1037H906.829L905.917 1034.52H901.981L901.069 1037H898.861L902.957 1025.8ZM905.437 1032.73L903.949 1028.47H903.917L902.477 1032.73H905.437ZM910.165 1025.8H912.341V1035.16H917.941V1037H910.165V1025.8Z" fill="white"/>
<path d="M115.678 76.968L91.1858 89.604V78.684L116.614 64.8H127.534V174H115.678V76.968ZM148.968 169.476V162.612L153.492 158.088H160.356L164.88 162.612V169.476L160.356 174H153.492L148.968 169.476ZM266.964 64.8H279.756L318.6 174H306.276L296.136 144.516H250.584L240.444 174H228.12L266.964 64.8ZM292.704 134.22L273.516 78.528H273.204L254.172 134.22H292.704ZM329.593 159.648V110.664L343.945 96.312H373.897L386.689 107.544V62.616H398.233V174H387.001V159.804L372.805 174H343.945L329.593 159.648ZM370.309 163.704L386.689 147.324V119.712L371.713 106.608H348.937L341.137 114.252V156.06L348.937 163.704H370.309ZM419.305 161.208V141.396L432.097 128.76H473.593V113.94L465.793 106.296H439.273L431.473 113.94V120.336H419.929V110.664L434.281 96.312H470.629L484.981 110.664V174H473.905V160.272L459.553 174H432.097L419.305 161.208ZM457.213 164.016L473.593 148.26V138.744H437.089L430.849 144.828V157.932L437.089 164.016H457.213ZM507.567 96.312H518.799V110.196L532.683 96.312H561.855L576.207 110.664V159.648L561.855 174H531.903L519.111 162.768V207.072H507.567V96.312ZM556.863 163.704L564.663 156.06V114.252L556.863 106.608H535.803L519.111 123.3V150.132L534.087 163.704H556.863ZM602.794 159.648V106.452H588.754V96.312H603.106V71.04H614.338V96.312H638.674V106.452H614.338V156.06L622.138 163.86H638.674V174H617.146L602.794 159.648ZM654.219 161.208V141.396L667.011 128.76H708.507V113.94L700.707 106.296H674.187L666.387 113.94V120.336H654.843V110.664L669.195 96.312H705.543L719.895 110.664V174H708.819V160.272L694.467 174H667.011L654.219 161.208ZM692.127 164.016L708.507 148.26V138.744H672.003L665.763 144.828V157.932L672.003 164.016H692.127ZM742.481 159.648V62.616H754.025V111.444L769.157 96.312H796.457L810.809 110.664V159.648L796.457 174H756.833L742.481 159.648ZM791.465 163.704L799.265 156.06V114.252L791.465 106.608H772.433L754.025 125.016V156.06L761.825 163.704H791.465ZM831.889 78.528V71.664L836.569 66.984H843.433L848.113 71.664V78.528L843.433 83.208H836.569L831.889 78.528ZM834.229 96.312H845.773V174H834.229V96.312ZM871.535 62.616H883.079V174H871.535V62.616ZM906.537 78.528V71.664L911.217 66.984H918.081L922.761 71.664V78.528L918.081 83.208H911.217L906.537 78.528ZM908.877 96.312H920.421V174H908.877V96.312ZM952.423 159.648V106.452H938.383V96.312H952.735V71.04H963.967V96.312H988.303V106.452H963.967V156.06L971.767 163.86H988.303V174H966.775L952.423 159.648ZM1070.79 96.312V193.812L1056.44 208.008H1019L1006.99 195.996V186.48H1018.53V192.408L1023.99 197.712H1051.45L1059.25 190.068V157.464L1042.71 174H1019L1004.65 159.648V96.312H1016.19V156.06L1023.99 163.704H1039.59L1059.25 144.048V96.312H1070.79ZM1123.83 175V145.04L1127.51 141.36H1131.99V144H1128.79L1126.79 145.96V174.08L1128.79 176.04H1131.99V178.68H1127.51L1123.83 175ZM1153.77 174H1150.81V148.08H1142.53L1140.73 149.88V154.08H1147.01V156.72H1140.73V174H1137.77V156.72H1134.17V154.08H1137.77V149.08L1141.25 145.6H1153.77V174ZM1159.76 149.52V147.76L1160.96 146.56H1162.72L1163.92 147.76V149.52L1162.72 150.72H1160.96L1159.76 149.52ZM1160.36 154.08H1163.32V174H1160.36V154.08ZM1169.72 154.08H1172.6V157.64L1176.16 154.08H1183.64L1187.32 157.76V170.32L1183.64 174H1175.96L1172.68 171.12V182.48H1169.72V154.08ZM1182.36 171.36L1184.36 169.4V158.68L1182.36 156.72H1176.96L1172.68 161V167.88L1176.52 171.36H1182.36ZM1202.49 149.52V147.76L1203.69 146.56H1205.45L1206.65 147.76V149.52L1205.45 150.72H1203.69L1202.49 149.52ZM1203.09 154.08H1206.05V174H1203.09V154.08ZM1211.46 170.72V168.24H1214.42V169.88L1216.02 171.44H1223.38L1224.98 169.88V166.8L1223.38 165.2H1214.78L1211.62 162.04V157.36L1214.9 154.08H1224.26L1227.54 157.36V159.84H1224.58V158.2L1222.98 156.64H1216.18L1214.58 158.2V161.12L1216.18 162.72H1224.66L1227.94 166V170.72L1224.66 174H1214.74L1211.46 170.72ZM1242.09 170.72V165.64L1245.37 162.4H1256.01V158.6L1254.01 156.64H1247.21L1245.21 158.6V160.24H1242.25V157.76L1245.93 154.08H1255.25L1258.93 157.76V174H1256.09V170.48L1252.41 174H1245.37L1242.09 170.72ZM1251.81 171.44L1256.01 167.4V164.96H1246.65L1245.05 166.52V169.88L1246.65 171.44H1251.81ZM1264.72 154.08H1267.6V158.32L1271.84 154.08H1277.96L1281.64 157.76V174H1278.68V158.68L1276.68 156.72H1272.64L1267.68 161.68V174H1264.72V154.08ZM1296.62 170.72V165.64L1299.9 162.4H1310.54V158.6L1308.54 156.64H1301.74L1299.74 158.6V160.24H1296.78V157.76L1300.46 154.08H1309.78L1313.46 157.76V174H1310.62V170.48L1306.94 174H1299.9L1296.62 170.72ZM1306.34 171.44L1310.54 167.4V164.96H1301.18L1299.58 166.52V169.88L1301.18 171.44H1306.34ZM1318.85 170.32V157.76L1322.53 154.08H1330.21L1333.49 156.96V145.44H1336.45V174H1333.57V170.36L1329.93 174H1322.53L1318.85 170.32ZM1329.29 171.36L1333.49 167.16V160.08L1329.65 156.72H1323.81L1321.81 158.68V169.4L1323.81 171.36H1329.29ZM1341.86 170.72V165.64L1345.14 162.4H1355.78V158.6L1353.78 156.64H1346.98L1344.98 158.6V160.24H1342.02V157.76L1345.7 154.08H1355.02L1358.7 157.76V174H1355.86V170.48L1352.18 174H1345.14L1341.86 170.72ZM1351.58 171.44L1355.78 167.4V164.96H1346.42L1344.82 166.52V169.88L1346.42 171.44H1351.58ZM1364.49 154.08H1367.37V157.64L1370.93 154.08H1378.41L1382.09 157.76V170.32L1378.41 174H1370.73L1367.45 171.12V182.48H1364.49V154.08ZM1377.13 171.36L1379.13 169.4V158.68L1377.13 156.72H1371.73L1367.45 161V167.88L1371.29 171.36H1377.13ZM1388.91 170.32V156.68H1385.31V154.08H1388.99V147.6H1391.87V154.08H1398.11V156.68H1391.87V169.4L1393.87 171.4H1398.11V174H1392.59L1388.91 170.32ZM1402.49 149.52V147.76L1403.69 146.56H1405.45L1406.65 147.76V149.52L1405.45 150.72H1403.69L1402.49 149.52ZM1403.09 154.08H1406.05V174H1403.09V154.08ZM1410.06 154.08H1413.1L1419.02 171.04H1419.18L1425.1 154.08H1428.14L1420.82 174H1417.38L1410.06 154.08ZM1430.96 170.32V157.76L1434.64 154.08H1444.68L1448.4 157.76V164.92H1433.92V169.4L1435.92 171.36H1443.4L1445.4 169.4V167.88H1448.36V170.32L1444.68 174H1434.64L1430.96 170.32ZM1445.44 162.36V158.68L1443.44 156.72H1435.92L1433.92 158.68V162.36H1445.44ZM1483.59 165.44V174H1480.55V166.28L1476.71 162.24H1466.79V174H1463.75V146H1479.75L1483.43 149.68V158.52L1480.19 161.76L1483.59 165.44ZM1466.79 159.6H1478.43L1480.43 157.64V150.6L1478.43 148.64H1466.79V159.6ZM1489.41 169.6V150.4L1493.81 146H1505.81L1510.05 150.24V152.8H1507.01V151.24L1504.45 148.72H1495.17L1492.45 151.4V168.6L1495.17 171.28H1504.45L1507.01 168.76V167.2H1510.05V169.76L1505.81 174H1493.81L1489.41 169.6ZM1522.4 146H1525.68L1535.64 174H1532.48L1529.88 166.44H1518.2L1515.6 174H1512.44L1522.4 146ZM1529 163.8L1524.08 149.52H1524L1519.12 163.8H1529ZM1548.81 170.32V157.76L1552.49 154.08H1562.53L1566.25 157.76V164.92H1551.77V169.4L1553.77 171.36H1561.25L1563.25 169.4V167.88H1566.21V170.32L1562.53 174H1552.49L1548.81 170.32ZM1563.29 162.36V158.68L1561.29 156.72H1553.77L1551.77 158.68V162.36H1563.29ZM1583.45 174L1577.81 166.16L1572.17 174H1568.85L1576.17 163.88L1569.05 154.08H1572.37L1577.81 161.64L1583.25 154.08H1586.57L1579.49 163.96L1586.77 174H1583.45ZM1590.58 154.08H1593.46V157.64L1597.02 154.08H1604.5L1608.18 157.76V170.32L1604.5 174H1596.82L1593.54 171.12V182.48H1590.58V154.08ZM1603.22 171.36L1605.22 169.4V158.68L1603.22 156.72H1597.82L1593.54 161V167.88L1597.38 171.36H1603.22ZM1613.39 170.32V157.76L1617.07 154.08H1627.11L1630.83 157.76V164.92H1616.35V169.4L1618.35 171.36H1625.83L1627.83 169.4V167.88H1630.79V170.32L1627.11 174H1617.07L1613.39 170.32ZM1627.87 162.36V158.68L1625.87 156.72H1618.35L1616.35 158.68V162.36H1627.87ZM1636.21 154.08H1639.09V157.64L1642.65 154.08H1647.81V156.72H1643.41L1639.17 160.96V174H1636.21V154.08ZM1651.4 149.52V147.76L1652.6 146.56H1654.36L1655.56 147.76V149.52L1654.36 150.72H1652.6L1651.4 149.52ZM1652 154.08H1654.96V174H1652V154.08ZM1660.96 170.32V157.76L1664.64 154.08H1674.68L1678.4 157.76V164.92H1663.92V169.4L1665.92 171.36H1673.4L1675.4 169.4V167.88H1678.36V170.32L1674.68 174H1664.64L1660.96 170.32ZM1675.44 162.36V158.68L1673.44 156.72H1665.92L1663.92 158.68V162.36H1675.44ZM1683.79 154.08H1686.67V158.32L1690.91 154.08H1697.03L1700.71 157.76V174H1697.75V158.68L1695.75 156.72H1691.71L1686.75 161.68V174H1683.79V154.08ZM1706.12 170.32V157.76L1709.8 154.08H1719.4L1723.08 157.76V160.2H1720.12V158.68L1718.12 156.72H1711.08L1709.08 158.68V169.4L1711.08 171.36H1718.12L1720.12 169.4V167.88H1723.08V170.32L1719.4 174H1709.8L1706.12 170.32ZM1727.49 170.32V157.76L1731.17 154.08H1741.21L1744.93 157.76V164.92H1730.45V169.4L1732.45 171.36H1739.93L1741.93 169.4V167.88H1744.89V170.32L1741.21 174H1731.17L1727.49 170.32ZM1741.97 162.36V158.68L1739.97 156.72H1732.45L1730.45 158.68V162.36H1741.97ZM1748.31 178.68V176.04H1751.51L1753.51 174.08V145.96L1751.51 144H1748.31V141.36H1752.79L1756.47 145.04V175L1752.79 178.68H1748.31ZM63.5105 336.096L120.606 279.624V266.052L112.806 258.408H82.5425L74.7425 266.052V274.32H62.8865V262.152L77.2385 247.8H118.11L132.462 262.152V283.056L75.3665 339.528V346.392H133.086V357H63.5105V336.096ZM148.968 352.476V345.612L153.492 341.088H160.356L164.88 345.612V352.476L160.356 357H153.492L148.968 352.476ZM237.48 247.8H299.88L314.232 262.152V297.252L299.724 311.76H249.336V357H237.48V247.8ZM294.732 301.464L302.532 293.82V265.74L294.732 258.096H249.336V301.464H294.732ZM332.22 279.312H343.452V293.196L357.336 279.312H377.46V289.608H360.3L343.764 306.144V357H332.22V279.312ZM386.722 342.648V293.664L401.074 279.312H440.23L454.738 293.664V321.588H398.266V339.06L406.066 346.704H435.238L443.038 339.06V333.132H454.582V342.648L440.23 357H401.074L386.722 342.648ZM443.194 311.604V297.252L435.394 289.608H406.066L398.266 297.252V311.604H443.194ZM474.167 342.648V293.664L488.519 279.312H525.959L540.311 293.664V303.18H528.767V297.252L520.967 289.608H493.511L485.711 297.252V339.06L493.511 346.704H520.967L528.767 339.06V333.132H540.311V342.648L525.959 357H488.519L474.167 342.648ZM558.279 261.528V254.664L562.959 249.984H569.823L574.503 254.664V261.528L569.823 266.208H562.959L558.279 261.528ZM560.619 279.312H572.163V357H560.619V279.312ZM593.245 344.208V334.536H604.789V340.932L611.029 347.016H639.733L645.973 340.932V328.92L639.733 322.68H606.193L593.869 310.356V292.104L606.661 279.312H643.165L655.957 292.104V301.776H644.413V295.38L638.173 289.296H611.653L605.413 295.38V306.768L611.653 313.008H644.725L657.517 325.8V344.208L644.725 357H606.037L593.245 344.208ZM676.193 261.528V254.664L680.873 249.984H687.737L692.417 254.664V261.528L687.737 266.208H680.873L676.193 261.528ZM678.533 279.312H690.077V357H678.533V279.312ZM713.499 342.648V293.664L727.851 279.312H767.787L782.139 293.664V342.648L767.787 357H727.851L713.499 342.648ZM762.795 346.704L770.595 339.06V297.252L762.795 289.608H732.843L725.043 297.252V339.06L732.843 346.704H762.795ZM804.028 279.312H815.26V295.848L831.796 279.312H855.664L870.016 293.664V357H858.472V297.252L850.672 289.608H834.916L815.572 308.952V357H804.028V279.312ZM922.278 358V328.04L925.958 324.36H930.438V327H927.238L925.238 328.96V357.08L927.238 359.04H930.438V361.68H925.958L922.278 358ZM952.222 357H949.262V331.08H940.982L939.182 332.88V337.08H945.462V339.72H939.182V357H936.222V339.72H932.622V337.08H936.222V332.08L939.702 328.6H952.222V357ZM958.206 332.52V330.76L959.406 329.56H961.166L962.366 330.76V332.52L961.166 333.72H959.406L958.206 332.52ZM958.806 337.08H961.766V357H958.806V337.08ZM968.172 337.08H971.052V340.64L974.612 337.08H982.092L985.772 340.76V353.32L982.092 357H974.412L971.132 354.12V365.48H968.172V337.08ZM980.812 354.36L982.812 352.4V341.68L980.812 339.72H975.412L971.132 344V350.88L974.972 354.36H980.812ZM1002.94 353.32V339.68H999.341V337.08H1003.02V330.6H1005.9V337.08H1012.14V339.68H1005.9V352.4L1007.9 354.4H1012.14V357H1006.62L1002.94 353.32ZM1015.74 353.32V340.76L1019.42 337.08H1029.46L1033.18 340.76V347.92H1018.7V352.4L1020.7 354.36H1028.18L1030.18 352.4V350.88H1033.14V353.32L1029.46 357H1019.42L1015.74 353.32ZM1030.22 345.36V341.68L1028.22 339.72H1020.7L1018.7 341.68V345.36H1030.22ZM1038.16 353.32V340.76L1041.84 337.08H1051.44L1055.12 340.76V343.2H1052.16V341.68L1050.16 339.72H1043.12L1041.12 341.68V352.4L1043.12 354.36H1050.16L1052.16 352.4V350.88H1055.12V353.32L1051.44 357H1041.84L1038.16 353.32ZM1059.93 328.44H1062.89V341.24L1067.05 337.08H1073.25L1076.93 340.76V357H1073.97V341.68L1071.97 339.72H1067.85L1062.89 344.68V357H1059.93V328.44ZM1082.74 337.08H1085.62V341.32L1089.86 337.08H1095.98L1099.66 340.76V357H1096.7V341.68L1094.7 339.72H1090.66L1085.7 344.68V357H1082.74V337.08ZM1105.08 353.32V340.76L1108.76 337.08H1119L1122.68 340.76V353.32L1119 357H1108.76L1105.08 353.32ZM1117.72 354.36L1119.72 352.4V341.68L1117.72 339.72H1110.04L1108.04 341.68V352.4L1110.04 354.36H1117.72ZM1128.49 328.44H1131.45V357H1128.49V328.44ZM1137.26 353.32V340.76L1140.94 337.08H1151.18L1154.86 340.76V353.32L1151.18 357H1140.94L1137.26 353.32ZM1149.9 354.36L1151.9 352.4V341.68L1149.9 339.72H1142.22L1140.22 341.68V352.4L1142.22 354.36H1149.9ZM1177.68 337.08V362.08L1174.04 365.72H1164.16L1161.08 362.64V360.2H1164.04V361.68L1165.44 363.08H1172.72L1174.72 361.12V353.68L1171.04 357H1163.76L1160.08 353.32V340.76L1163.76 337.08H1171.32L1174.8 340.56V337.08H1177.68ZM1174.72 343.92L1170.52 339.72H1165.04L1163.04 341.68V352.4L1165.04 354.36H1170.56L1174.72 350.48V343.92ZM1200.44 337.08V362.08L1196.76 365.72H1187.16L1184.08 362.64V360.2H1187.04V361.72L1188.44 363.08H1195.48L1197.48 361.12V352.76L1193.24 357H1187.16L1183.48 353.32V337.08H1186.44V352.4L1188.44 354.36H1192.44L1197.48 349.32V337.08H1200.44ZM1216.02 332.52V330.76L1217.22 329.56H1218.98L1220.18 330.76V332.52L1218.98 333.72H1217.22L1216.02 332.52ZM1216.62 337.08H1219.58V357H1216.62V337.08ZM1224.98 353.72V351.24H1227.94V352.88L1229.54 354.44H1236.9L1238.5 352.88V349.8L1236.9 348.2H1228.3L1225.14 345.04V340.36L1228.42 337.08H1237.78L1241.06 340.36V342.84H1238.1V341.2L1236.5 339.64H1229.7L1228.1 341.2V344.12L1229.7 345.72H1238.18L1241.46 349V353.72L1238.18 357H1228.26L1224.98 353.72ZM1256.22 337.08H1259.1V340.64L1262.66 337.08H1270.14L1273.82 340.76V353.32L1270.14 357H1262.46L1259.18 354.12V365.48H1256.22V337.08ZM1268.86 354.36L1270.86 352.4V341.68L1268.86 339.72H1263.46L1259.18 344V350.88L1263.02 354.36H1268.86ZM1279.42 337.08H1282.3V340.64L1285.86 337.08H1291.02V339.72H1286.62L1282.38 343.96V357H1279.42V337.08ZM1293.4 353.32V340.76L1297.08 337.08H1307.12L1310.84 340.76V347.92H1296.36V352.4L1298.36 354.36H1305.84L1307.84 352.4V350.88H1310.8V353.32L1307.12 357H1297.08L1293.4 353.32ZM1307.88 345.36V341.68L1305.88 339.72H1298.36L1296.36 341.68V345.36H1307.88ZM1315.82 353.32V340.76L1319.5 337.08H1329.1L1332.78 340.76V343.2H1329.82V341.68L1327.82 339.72H1320.78L1318.78 341.68V352.4L1320.78 354.36H1327.82L1329.82 352.4V350.88H1332.78V353.32L1329.1 357H1319.5L1315.82 353.32ZM1337.39 332.52V330.76L1338.59 329.56H1340.35L1341.55 330.76V332.52L1340.35 333.72H1338.59L1337.39 332.52ZM1337.99 337.08H1340.95V357H1337.99V337.08ZM1346.35 353.72V351.24H1349.31V352.88L1350.91 354.44H1358.27L1359.87 352.88V349.8L1358.27 348.2H1349.67L1346.51 345.04V340.36L1349.79 337.08H1359.15L1362.43 340.36V342.84H1359.47V341.2L1357.87 339.64H1351.07L1349.47 341.2V344.12L1351.07 345.72H1359.55L1362.83 349V353.72L1359.55 357H1349.63L1346.35 353.72ZM1367.42 353.32V340.76L1371.1 337.08H1381.14L1384.86 340.76V347.92H1370.38V352.4L1372.38 354.36H1379.86L1381.86 352.4V350.88H1384.82V353.32L1381.14 357H1371.1L1367.42 353.32ZM1381.9 345.36V341.68L1379.9 339.72H1372.38L1370.38 341.68V345.36H1381.9ZM1399.81 332.52V330.76L1401.01 329.56H1402.77L1403.97 330.76V332.52L1402.77 333.72H1401.01L1399.81 332.52ZM1400.41 337.08H1403.37V357H1400.41V337.08ZM1409.77 337.08H1412.65V341.32L1416.89 337.08H1423.01L1426.69 340.76V357H1423.73V341.68L1421.73 339.72H1417.69L1412.73 344.68V357H1409.77V337.08ZM1444.07 353.32V339.68H1440.47V337.08H1444.15V330.6H1447.03V337.08H1453.27V339.68H1447.03V352.4L1449.03 354.4H1453.27V357H1447.75L1444.07 353.32ZM1457.86 328.44H1460.82V341.24L1464.98 337.08H1471.18L1474.86 340.76V357H1471.9V341.68L1469.9 339.72H1465.78L1460.82 344.68V357H1457.86V328.44ZM1480.27 353.32V340.76L1483.95 337.08H1493.99L1497.71 340.76V347.92H1483.23V352.4L1485.23 354.36H1492.71L1494.71 352.4V350.88H1497.67V353.32L1493.99 357H1483.95L1480.27 353.32ZM1494.75 345.36V341.68L1492.75 339.72H1485.23L1483.23 341.68V345.36H1494.75ZM1502.89 332.52V330.76L1504.09 329.56H1505.85L1507.05 330.76V332.52L1505.85 333.72H1504.09L1502.89 332.52ZM1503.49 337.08H1506.45V357H1503.49V337.08ZM1512.86 337.08H1515.74V340.64L1519.3 337.08H1524.46V339.72H1520.06L1515.82 343.96V357H1512.86V337.08ZM1558.06 348.44V357H1555.02V349.28L1551.18 345.24H1541.26V357H1538.22V329H1554.22L1557.9 332.68V341.52L1554.66 344.76L1558.06 348.44ZM1541.26 342.6H1552.9L1554.9 340.64V333.6L1552.9 331.64H1541.26V342.6ZM1563.87 352.6V333.4L1568.27 329H1580.27L1584.51 333.24V335.8H1581.47V334.24L1578.91 331.72H1569.63L1566.91 334.4V351.6L1569.63 354.28H1578.91L1581.47 351.76V350.2H1584.51V352.76L1580.27 357H1568.27L1563.87 352.6ZM1596.87 329H1600.15L1610.11 357H1606.95L1604.35 349.44H1592.67L1590.07 357H1586.91L1596.87 329ZM1603.47 346.8L1598.55 332.52H1598.47L1593.59 346.8H1603.47ZM1623.08 353.72V348.64L1626.36 345.4H1637V341.6L1635 339.64H1628.2L1626.2 341.6V343.24H1623.24V340.76L1626.92 337.08H1636.24L1639.92 340.76V357H1637.08V353.48L1633.4 357H1626.36L1623.08 353.72ZM1632.8 354.44L1637 350.4V347.96H1627.64L1626.04 349.52V352.88L1627.64 354.44H1632.8ZM1645.71 337.08H1648.59V341.32L1652.83 337.08H1658.95L1662.63 340.76V357H1659.67V341.68L1657.67 339.72H1653.63L1648.67 344.68V357H1645.71V337.08ZM1667.85 353.72V348.64L1671.13 345.4H1681.77V341.6L1679.77 339.64H1672.97L1670.97 341.6V343.24H1668.01V340.76L1671.69 337.08H1681.01L1684.69 340.76V357H1681.85V353.48L1678.17 357H1671.13L1667.85 353.72ZM1677.57 354.44L1681.77 350.4V347.96H1672.41L1670.81 349.52V352.88L1672.41 354.44H1677.57ZM1690.68 328.44H1693.64V357H1690.68V328.44ZM1716.61 337.08V362.08L1712.93 365.72H1703.33L1700.25 362.64V360.2H1703.21V361.72L1704.61 363.08H1711.65L1713.65 361.12V352.76L1709.41 357H1703.33L1699.65 353.32V337.08H1702.61V352.4L1704.61 354.36H1708.61L1713.65 349.32V337.08H1716.61ZM1721.63 353.72V351.24H1724.59V352.88L1726.19 354.44H1733.55L1735.15 352.88V349.8L1733.55 348.2H1724.95L1721.79 345.04V340.36L1725.07 337.08H1734.43L1737.71 340.36V342.84H1734.75V341.2L1733.15 339.64H1726.35L1724.75 341.2V344.12L1726.35 345.72H1734.83L1738.11 349V353.72L1734.83 357H1724.9L1721.63 353.72ZM1742.89 332.52V330.76L1744.09 329.56H1745.85L1747.05 330.76V332.52L1745.85 333.72H1744.09L1742.89 332.52ZM1743.49 337.08H1746.45V357H1743.49V337.08ZM1751.86 353.72V351.24H1754.82V352.88L1756.42 354.44H1763.78L1765.38 352.88V349.8L1763.78 348.2H1755.18L1752.02 345.04V340.36L1755.3 337.08H1764.66L1767.94 340.36V342.84H1764.98V341.2L1763.38 339.64H1756.58L1754.98 341.2V344.12L1756.58 345.72H1765.06L1768.34 349V353.72L1765.06 357H1755.14L1751.86 353.72ZM1771.33 361.68V359.04H1774.53L1776.53 357.08V328.96L1774.53 327H1771.33V324.36H1775.81L1779.49 328.04V358L1775.81 361.68H1771.33ZM60.6013 525.648V513.48H72.4573V521.748L80.2573 529.392H113.329L121.129 521.748V497.88L113.641 490.392H82.4413V479.784H113.641L121.129 472.296V449.052L113.329 441.408H81.1933L73.3933 449.052V457.32H61.5373V445.152L75.8893 430.8H118.633L132.985 445.152V475.728L123.469 485.088L132.985 494.604V525.648L118.633 540H74.9533L60.6013 525.648ZM148.968 535.476V528.612L153.492 524.088H160.356L164.88 528.612V535.476L160.356 540H153.492L148.968 535.476ZM314.856 506.616V540H303V509.892L288.024 494.136H249.336V540H237.48V430.8H299.88L314.232 445.152V479.628L301.596 492.264L314.856 506.616ZM249.336 483.84H294.732L302.532 476.196V448.74L294.732 441.096H249.336V483.84ZM336.753 525.648V476.664L351.105 462.312H390.261L404.769 476.664V504.588H348.297V522.06L356.097 529.704H385.269L393.069 522.06V516.132H404.613V525.648L390.261 540H351.105L336.753 525.648ZM393.225 494.604V480.252L385.425 472.608H356.097L348.297 480.252V494.604H393.225ZM426.539 428.616H438.083V540H426.539V428.616ZM461.541 444.528V437.664L466.221 432.984H473.085L477.765 437.664V444.528L473.085 449.208H466.221L461.541 444.528ZM463.881 462.312H475.425V540H463.881V462.312ZM498.067 527.208V507.396L510.859 494.76H552.355V479.94L544.555 472.296H518.035L510.235 479.94V486.336H498.691V476.664L513.043 462.312H549.391L563.743 476.664V540H552.667V526.272L538.315 540H510.859L498.067 527.208ZM535.975 530.016L552.355 514.26V504.744H515.851L509.611 510.828V523.932L515.851 530.016H535.975ZM586.329 525.648V428.616H597.873V477.444L613.005 462.312H640.305L654.657 476.664V525.648L640.305 540H600.681L586.329 525.648ZM635.313 529.704L643.113 522.06V480.252L635.313 472.608H616.281L597.873 491.016V522.06L605.673 529.704H635.313ZM675.736 444.528V437.664L680.416 432.984H687.28L691.96 437.664V444.528L687.28 449.208H680.416L675.736 444.528ZM678.076 462.312H689.62V540H678.076V462.312ZM715.382 428.616H726.926V540H715.382V428.616ZM750.385 444.528V437.664L755.065 432.984H761.929L766.609 437.664V444.528L761.929 449.208H755.065L750.385 444.528ZM752.725 462.312H764.269V540H752.725V462.312ZM796.271 525.648V472.452H782.231V462.312H796.583V437.04H807.815V462.312H832.151V472.452H807.815V522.06L815.615 529.86H832.151V540H810.623L796.271 525.648ZM914.638 462.312V559.812L900.286 574.008H862.846L850.834 561.996V552.48H862.378V558.408L867.838 563.712H895.294L903.094 556.068V523.464L886.558 540H862.846L848.494 525.648V462.312H860.038V522.06L867.838 529.704H883.438L903.094 510.048V462.312H914.638ZM967.677 541V511.04L971.357 507.36H975.837V510H972.637L970.637 511.96V540.08L972.637 542.04H975.837V544.68H971.357L967.677 541ZM997.62 540H994.66V514.08H986.38L984.58 515.88V520.08H990.86V522.72H984.58V540H981.62V522.72H978.02V520.08H981.62V515.08L985.1 511.6H997.62V540ZM1003.6 515.52V513.76L1004.8 512.56H1006.56L1007.76 513.76V515.52L1006.56 516.72H1004.8L1003.6 515.52ZM1004.2 520.08H1007.16V540H1004.2V520.08ZM1013.57 520.08H1016.45V523.64L1020.01 520.08H1027.49L1031.17 523.76V536.32L1027.49 540H1019.81L1016.53 537.12V548.48H1013.57V520.08ZM1026.21 537.36L1028.21 535.4V524.68L1026.21 522.72H1020.81L1016.53 527V533.88L1020.37 537.36H1026.21ZM1046.34 515.52V513.76L1047.54 512.56H1049.3L1050.5 513.76V515.52L1049.3 516.72H1047.54L1046.34 515.52ZM1046.94 520.08H1049.9V540H1046.94V520.08ZM1055.3 536.72V534.24H1058.26V535.88L1059.86 537.44H1067.22L1068.82 535.88V532.8L1067.22 531.2H1058.62L1055.46 528.04V523.36L1058.74 520.08H1068.1L1071.38 523.36V525.84H1068.42V524.2L1066.82 522.64H1060.02L1058.42 524.2V527.12L1060.02 528.72H1068.5L1071.78 532V536.72L1068.5 540H1058.58L1055.3 536.72ZM1085.94 536.72V531.64L1089.22 528.4H1099.86V524.6L1097.86 522.64H1091.06L1089.06 524.6V526.24H1086.1V523.76L1089.78 520.08H1099.1L1102.78 523.76V540H1099.94V536.48L1096.26 540H1089.22L1085.94 536.72ZM1095.66 537.44L1099.86 533.4V530.96H1090.5L1088.9 532.52V535.88L1090.5 537.44H1095.66ZM1118.34 520.08H1121.22V523.64L1124.78 520.08H1129.94V522.72H1125.54L1121.3 526.96V540H1118.34V520.08ZM1132.31 536.32V523.76L1135.99 520.08H1146.03L1149.75 523.76V530.92H1135.27V535.4L1137.27 537.36H1144.75L1146.75 535.4V533.88H1149.71V536.32L1146.03 540H1135.99L1132.31 536.32ZM1146.79 528.36V524.68L1144.79 522.72H1137.27L1135.27 524.68V528.36H1146.79ZM1155.33 511.44H1158.29V540H1155.33V511.44ZM1164.31 515.52V513.76L1165.51 512.56H1167.27L1168.47 513.76V515.52L1167.27 516.72H1165.51L1164.31 515.52ZM1164.91 520.08H1167.87V540H1164.91V520.08ZM1173.67 536.72V531.64L1176.95 528.4H1187.59V524.6L1185.59 522.64H1178.79L1176.79 524.6V526.24H1173.83V523.76L1177.51 520.08H1186.83L1190.51 523.76V540H1187.67V536.48L1183.99 540H1176.95L1173.67 536.72ZM1183.39 537.44L1187.59 533.4V530.96H1178.23L1176.63 532.52V535.88L1178.23 537.44H1183.39ZM1196.3 536.32V511.44H1199.26V523.96L1203.14 520.08H1210.14L1213.82 523.76V536.32L1210.14 540H1199.98L1196.3 536.32ZM1208.86 537.36L1210.86 535.4V524.68L1208.86 522.72H1203.98L1199.26 527.44V535.4L1201.26 537.36H1208.86ZM1219.63 511.44H1222.59V540H1219.63V511.44ZM1228.4 536.32V523.76L1232.08 520.08H1242.12L1245.84 523.76V530.92H1231.36V535.4L1233.36 537.36H1240.84L1242.84 535.4V533.88H1245.8V536.32L1242.12 540H1232.08L1228.4 536.32ZM1242.88 528.36V524.68L1240.88 522.72H1233.36L1231.36 524.68V528.36H1242.88ZM1281.03 531.44V540H1277.99V532.28L1274.15 528.24H1264.23V540H1261.19V512H1277.19L1280.87 515.68V524.52L1277.63 527.76L1281.03 531.44ZM1264.23 525.6H1275.87L1277.87 523.64V516.6L1275.87 514.64H1264.23V525.6ZM1286.85 535.6V516.4L1291.25 512H1303.25L1307.49 516.24V518.8H1304.45V517.24L1301.89 514.72H1292.61L1289.89 517.4V534.6L1292.61 537.28H1301.89L1304.45 534.76V533.2H1307.49V535.76L1303.25 540H1291.25L1286.85 535.6ZM1319.85 512H1323.13L1333.09 540H1329.93L1327.33 532.44H1315.65L1313.05 540H1309.89L1319.85 512ZM1326.45 529.8L1321.53 515.52H1321.45L1316.57 529.8H1326.45ZM1348.46 536.32V522.68H1344.86V520.08H1348.54V513.6H1351.42V520.08H1357.66V522.68H1351.42V535.4L1353.42 537.4H1357.66V540H1352.14L1348.46 536.32ZM1361.26 536.32V523.76L1364.94 520.08H1375.18L1378.86 523.76V536.32L1375.18 540H1364.94L1361.26 536.32ZM1373.9 537.36L1375.9 535.4V524.68L1373.9 522.72H1366.22L1364.22 524.68V535.4L1366.22 537.36H1373.9ZM1384.07 536.32V523.76L1387.75 520.08H1397.99L1401.67 523.76V536.32L1397.99 540H1387.75L1384.07 536.32ZM1396.71 537.36L1398.71 535.4V524.68L1396.71 522.72H1389.03L1387.03 524.68V535.4L1389.03 537.36H1396.71ZM1407.48 511.44H1410.44V540H1407.48V511.44ZM1414.66 544.68V542.04H1417.86L1419.86 540.08V511.96L1417.86 510H1414.66V507.36H1419.14L1422.82 511.04V541L1419.14 544.68H1414.66Z" fill="white"/>
</svg>
