<svg width="1920" height="1080" viewBox="0 0 1920 1080" fill="none" xmlns="http://www.w3.org/2000/svg">
<rect width="1920" height="1080" fill="#0000FF"/>
<path d="M61.28 1025.8H68.352V1026.89H62.496V1030.92H67.584V1032.01H62.496V1037H61.28V1025.8ZM70.1081 1025.58H71.2921V1037H70.1081V1025.58ZM73.6981 1027.21V1026.5L74.1781 1026.02H74.8821L75.3621 1026.5V1027.21L74.8821 1027.69H74.1781L73.6981 1027.21ZM73.9381 1029.03H75.1221V1037H73.9381V1029.03ZM77.6844 1029.03H78.8364V1030.46L80.2604 1029.03H83.2524L84.7244 1030.5V1035.53L83.2524 1037H80.1804L78.8684 1035.85V1040.39H77.6844V1029.03ZM82.7404 1035.94L83.5404 1035.16V1030.87L82.7404 1030.09H80.5804L78.8684 1031.8V1034.55L80.4044 1035.94H82.7404ZM93.5439 1026.87H90.1519V1025.8H98.1519V1026.87H94.7599V1037H93.5439V1026.87ZM98.2275 1035.53V1030.5L99.6995 1029.03H103.716L105.204 1030.5V1033.37H99.4115V1035.16L100.212 1035.94H103.204L104.004 1035.16V1034.55H105.188V1035.53L103.716 1037H99.6995L98.2275 1035.53ZM104.02 1032.34V1030.87L103.22 1030.09H100.212L99.4115 1030.87V1032.34H104.02ZM107.196 1035.53V1030.5L108.668 1029.03H112.508L113.98 1030.5V1031.48H112.796V1030.87L111.996 1030.09H109.18L108.38 1030.87V1035.16L109.18 1035.94H111.996L112.796 1035.16V1034.55H113.98V1035.53L112.508 1037H108.668L107.196 1035.53ZM115.903 1025.58H117.087V1030.7L118.751 1029.03H121.231L122.703 1030.5V1037H121.519V1030.87L120.719 1030.09H119.071L117.087 1032.07V1037H115.903V1025.58ZM125.028 1029.03H126.18V1030.73L127.876 1029.03H130.324L131.796 1030.5V1037H130.612V1030.87L129.812 1030.09H128.196L126.212 1032.07V1037H125.028V1029.03ZM133.962 1035.53V1030.5L135.434 1029.03H139.53L141.002 1030.5V1035.53L139.53 1037H135.434L133.962 1035.53ZM139.018 1035.94L139.818 1035.16V1030.87L139.018 1030.09H135.946L135.146 1030.87V1035.16L135.946 1035.94H139.018ZM143.327 1025.58H144.511V1037H143.327V1025.58ZM146.837 1035.53V1030.5L148.309 1029.03H152.405L153.877 1030.5V1035.53L152.405 1037H148.309L146.837 1035.53ZM151.893 1035.94L152.693 1035.16V1030.87L151.893 1030.09H148.821L148.021 1030.87V1035.16L148.821 1035.94H151.893ZM163.002 1029.03V1039.03L161.546 1040.49H157.594L156.362 1039.26V1038.28H157.546V1038.87L158.106 1039.43H161.018L161.818 1038.65V1035.67L160.346 1037H157.434L155.962 1035.53V1030.5L157.434 1029.03H160.458L161.85 1030.42V1029.03H163.002ZM161.818 1031.77L160.138 1030.09H157.946L157.146 1030.87V1035.16L157.946 1035.94H160.154L161.818 1034.39V1031.77ZM172.107 1029.03V1039.03L170.635 1040.49H166.795L165.563 1039.26V1038.28H166.747V1038.89L167.307 1039.43H170.123L170.923 1038.65V1035.3L169.227 1037H166.795L165.323 1035.53V1029.03H166.507V1035.16L167.307 1035.94H168.907L170.923 1033.93V1029.03H172.107ZM178.339 1035.24V1027.56L180.099 1025.8H184.899L186.595 1027.5V1028.52H185.379V1027.9L184.355 1026.89H180.643L179.555 1027.96V1034.84L180.643 1035.91H184.355L185.379 1034.9V1034.28H186.595V1035.3L184.899 1037H180.099L178.339 1035.24ZM188.353 1035.53V1030.5L189.825 1029.03H193.921L195.392 1030.5V1035.53L193.921 1037H189.825L188.353 1035.53ZM193.409 1035.94L194.209 1035.16V1030.87L193.409 1030.09H190.337L189.537 1030.87V1035.16L190.337 1035.94H193.409ZM197.638 1029.03H198.789V1030.46L200.214 1029.03H202.278V1030.09H200.518L198.822 1031.78V1037H197.638V1029.03ZM203.794 1029.03H204.946V1030.46L206.37 1029.03H209.362L210.834 1030.5V1035.53L209.362 1037H206.29L204.978 1035.85V1040.39H203.794V1029.03ZM208.85 1035.94L209.65 1035.16V1030.87L208.85 1030.09H206.69L204.978 1031.8V1034.55L206.514 1035.94H208.85ZM212.915 1035.53V1030.5L214.387 1029.03H218.483L219.955 1030.5V1035.53L218.483 1037H214.387L212.915 1035.53ZM217.971 1035.94L218.771 1035.16V1030.87L217.971 1030.09H214.899L214.099 1030.87V1035.16L214.899 1035.94H217.971ZM222.2 1029.03H223.352V1030.46L224.776 1029.03H226.84V1030.09H225.08L223.384 1031.78V1037H222.2V1029.03ZM227.71 1035.69V1033.66L229.022 1032.36H233.278V1030.84L232.478 1030.06H229.758L228.958 1030.84V1031.5H227.774V1030.5L229.246 1029.03H232.974L234.446 1030.5V1037H233.31V1035.59L231.838 1037H229.022L227.71 1035.69ZM231.598 1035.98L233.278 1034.36V1033.38H229.534L228.894 1034.01V1035.35L229.534 1035.98H231.598ZM237.326 1035.53V1030.07H235.886V1029.03H237.358V1026.44H238.51V1029.03H241.006V1030.07H238.51V1035.16L239.31 1035.96H241.006V1037H238.798L237.326 1035.53ZM242.761 1027.21V1026.5L243.241 1026.02H243.945L244.425 1026.5V1027.21L243.945 1027.69H243.241L242.761 1027.21ZM243.001 1029.03H244.185V1037H243.001V1029.03ZM246.587 1035.53V1030.5L248.059 1029.03H252.155L253.627 1030.5V1035.53L252.155 1037H248.059L246.587 1035.53ZM251.643 1035.94L252.443 1035.16V1030.87L251.643 1030.09H248.571L247.771 1030.87V1035.16L248.571 1035.94H251.643ZM255.872 1029.03H257.024V1030.73L258.72 1029.03H261.168L262.64 1030.5V1037H261.456V1030.87L260.656 1030.09H259.04L257.056 1032.07V1037H255.872V1029.03ZM268.952 1023.46H270.136V1040.26H268.952V1023.46ZM276.448 1035.53V1027.27L277.92 1025.8H282.4L283.872 1027.27V1028.52H282.656V1027.67L281.856 1026.89H278.464L277.664 1027.67V1031.45L278.96 1030.15H282.464L283.936 1031.62V1035.53L282.464 1037H277.92L276.448 1035.53ZM281.92 1035.91L282.72 1035.13V1032.02L281.92 1031.24H279.28L277.664 1032.86V1035.13L278.464 1035.91H281.92ZM285.851 1035.53V1034.28H287.067V1035.13L287.867 1035.91H291.227L292.027 1035.13V1031.93L291.227 1031.14H286.011V1025.8H293.019V1026.87H287.195V1030.06H291.755L293.243 1031.54V1035.53L291.771 1037H287.323L285.851 1035.53ZM295.323 1035.4V1027.4L296.923 1025.8H301.531L303.131 1027.4V1035.4L301.531 1037H296.923L295.323 1035.4ZM300.987 1035.91L301.915 1035V1027.8L300.987 1026.89H297.467L296.539 1027.8V1035L297.467 1035.91H300.987ZM309.276 1035.24V1027.56L311.036 1025.8H315.836L317.532 1027.5V1028.52H316.316V1027.9L315.292 1026.89H311.58L310.492 1027.96V1034.84L311.58 1035.91H315.292L316.316 1034.9V1034.28H317.532V1035.3L315.836 1037H311.036L309.276 1035.24ZM319.21 1035.69V1033.66L320.522 1032.36H324.778V1030.84L323.978 1030.06H321.258L320.458 1030.84V1031.5H319.274V1030.5L320.746 1029.03H324.474L325.946 1030.5V1037H324.81V1035.59L323.338 1037H320.522L319.21 1035.69ZM323.098 1035.98L324.778 1034.36V1033.38H321.034L320.394 1034.01V1035.35L321.034 1035.98H323.098ZM328.343 1025.58H329.527V1037H328.343V1025.58ZM331.933 1027.21V1026.5L332.413 1026.02H333.117L333.597 1026.5V1027.21L333.117 1027.69H332.413L331.933 1027.21ZM332.173 1029.03H333.357V1037H332.173V1029.03ZM336.639 1030.07H335.199V1029.03H336.639V1027.26L338.031 1025.86H340.335V1026.89H338.543L337.823 1027.59V1029.03H340.335V1030.07H337.823V1037H336.639V1030.07ZM341.462 1035.53V1030.5L342.934 1029.03H347.03L348.502 1030.5V1035.53L347.03 1037H342.934L341.462 1035.53ZM346.518 1035.94L347.318 1035.16V1030.87L346.518 1030.09H343.446L342.646 1030.87V1035.16L343.446 1035.94H346.518ZM350.747 1029.03H351.899V1030.46L353.323 1029.03H355.387V1030.09H353.627L351.931 1031.78V1037H350.747V1029.03ZM356.903 1029.03H358.055V1030.73L359.751 1029.03H362.199L363.671 1030.5V1037H362.487V1030.87L361.687 1030.09H360.071L358.087 1032.07V1037H356.903V1029.03ZM365.917 1027.21V1026.5L366.397 1026.02H367.101L367.581 1026.5V1027.21L367.101 1027.69H366.397L365.917 1027.21ZM366.157 1029.03H367.341V1037H366.157V1029.03ZM369.663 1035.69V1033.66L370.975 1032.36H375.231V1030.84L374.431 1030.06H371.711L370.911 1030.84V1031.5H369.727V1030.5L371.199 1029.03H374.927L376.399 1030.5V1037H375.263V1035.59L373.791 1037H370.975L369.663 1035.69ZM373.551 1035.98L375.231 1034.36V1033.38H371.487L370.847 1034.01V1035.35L371.487 1035.98H373.551ZM382.462 1035.53V1034.5H383.662V1035.13L384.43 1035.91H388.27L389.07 1035.1V1032.58L388.27 1031.8H383.966L382.494 1030.33V1027.27L383.966 1025.8H388.67L390.142 1027.27V1028.31H388.958V1027.67L388.158 1026.89H384.494L383.694 1027.67V1029.93L384.494 1030.71H388.798L390.27 1032.18V1035.5L388.766 1037H383.934L382.462 1035.53ZM392.998 1035.53V1030.07H391.558V1029.03H393.03V1026.44H394.182V1029.03H396.678V1030.07H394.182V1035.16L394.982 1035.96H396.678V1037H394.47L392.998 1035.53ZM398.801 1037H398.609L398.145 1036.54V1035.83L398.609 1035.37H399.312L399.777 1035.83V1037L398.977 1038.98H398.321L398.801 1037ZM410.628 1027.5V1026.89H404.836V1025.8H411.844V1027.58L407.46 1037H406.18L410.628 1027.5ZM414.404 1035.53V1030.07H412.964V1029.03H414.436V1026.44H415.588V1029.03H418.084V1030.07H415.588V1035.16L416.388 1035.96H418.084V1037H415.876L414.404 1035.53ZM419.919 1025.58H421.103V1030.7L422.767 1029.03H425.247L426.719 1030.5V1037H425.535V1030.87L424.735 1030.09H423.087L421.103 1032.07V1037H419.919V1025.58ZM433.03 1025.8H440.102V1026.89H434.246V1030.92H439.334V1032.01H434.246V1037H433.03V1025.8ZM441.858 1025.58H443.042V1037H441.858V1025.58ZM445.368 1035.53V1030.5L446.84 1029.03H450.936L452.408 1030.5V1035.53L450.936 1037H446.84L445.368 1035.53ZM450.424 1035.94L451.224 1035.16V1030.87L450.424 1030.09H447.352L446.552 1030.87V1035.16L447.352 1035.94H450.424ZM454.493 1035.53V1030.5L455.965 1029.03H460.061L461.533 1030.5V1035.53L460.061 1037H455.965L454.493 1035.53ZM459.549 1035.94L460.349 1035.16V1030.87L459.549 1030.09H456.477L455.677 1030.87V1035.16L456.477 1035.94H459.549ZM463.778 1029.03H464.93V1030.46L466.354 1029.03H468.418V1030.09H466.658L464.962 1031.78V1037H463.778V1029.03ZM469.269 1037H469.077L468.613 1036.54V1035.83L469.077 1035.37H469.781L470.245 1035.83V1037L469.445 1038.98H468.789L469.269 1037ZM476.024 1035.53V1034.5H477.224V1035.13L477.992 1035.91H481.832L482.632 1035.1V1032.58L481.832 1031.8H477.528L476.056 1030.33V1027.27L477.528 1025.8H482.232L483.704 1027.27V1028.31H482.52V1027.67L481.72 1026.89H478.056L477.256 1027.67V1029.93L478.056 1030.71H482.36L483.832 1032.18V1035.5L482.328 1037H477.496L476.024 1035.53ZM485.679 1035.69V1033.66L486.991 1032.36H491.247V1030.84L490.447 1030.06H487.727L486.927 1030.84V1031.5H485.743V1030.5L487.215 1029.03H490.943L492.415 1030.5V1037H491.279V1035.59L489.807 1037H486.991L485.679 1035.69ZM489.567 1035.98L491.247 1034.36V1033.38H487.503L486.863 1034.01V1035.35L487.503 1035.98H489.567ZM494.731 1029.03H495.883V1030.73L497.579 1029.03H500.027L501.499 1030.5V1037H500.315V1030.87L499.515 1030.09H497.899L495.915 1032.07V1037H494.731V1029.03ZM507.811 1025.8H514.883V1026.89H509.027V1030.92H514.115V1032.01H509.027V1037H507.811V1025.8ZM516.153 1029.03H517.305V1030.46L518.729 1029.03H520.793V1030.09H519.033L517.337 1031.78V1037H516.153V1029.03ZM521.663 1035.69V1033.66L522.975 1032.36H527.231V1030.84L526.431 1030.06H523.711L522.911 1030.84V1031.5H521.727V1030.5L523.199 1029.03H526.927L528.399 1030.5V1037H527.263V1035.59L525.791 1037H522.975L521.663 1035.69ZM525.551 1035.98L527.231 1034.36V1033.38H523.487L522.847 1034.01V1035.35L523.487 1035.98H525.551ZM530.716 1029.03H531.868V1030.73L533.564 1029.03H536.012L537.484 1030.5V1037H536.3V1030.87L535.5 1030.09H533.884L531.9 1032.07V1037H530.716V1029.03ZM539.649 1035.53V1030.5L541.121 1029.03H544.961L546.433 1030.5V1031.48H545.249V1030.87L544.449 1030.09H541.633L540.833 1030.87V1035.16L541.633 1035.94H544.449L545.249 1035.16V1034.55H546.433V1035.53L544.961 1037H541.121L539.649 1035.53ZM548.276 1027.21V1026.5L548.756 1026.02H549.46L549.94 1026.5V1027.21L549.46 1027.69H548.756L548.276 1027.21ZM548.516 1029.03H549.7V1037H548.516V1029.03ZM551.863 1035.69V1034.7H553.047V1035.35L553.687 1035.98H556.631L557.271 1035.35V1034.12L556.631 1033.48H553.191L551.927 1032.22V1030.34L553.239 1029.03H556.983L558.295 1030.34V1031.34H557.111V1030.68L556.471 1030.06H553.751L553.111 1030.68V1031.85L553.751 1032.49H557.143L558.455 1033.8V1035.69L557.143 1037H553.174L551.863 1035.69ZM560.29 1035.53V1030.5L561.762 1029.03H565.602L567.074 1030.5V1031.48H565.89V1030.87L565.09 1030.09H562.274L561.474 1030.87V1035.16L562.274 1035.94H565.09L565.89 1035.16V1034.55H567.074V1035.53L565.602 1037H561.762L560.29 1035.53ZM568.837 1035.53V1030.5L570.309 1029.03H574.405L575.877 1030.5V1035.53L574.405 1037H570.309L568.837 1035.53ZM573.893 1035.94L574.693 1035.16V1030.87L573.893 1030.09H570.821L570.021 1030.87V1035.16L570.821 1035.94H573.893ZM578.254 1037H578.062L577.598 1036.54V1035.83L578.062 1035.37H578.766L579.23 1035.83V1037L578.43 1038.98H577.774L578.254 1037ZM585.089 1035.24V1027.56L586.849 1025.8H591.649L593.345 1027.5V1028.52H592.129V1027.9L591.105 1026.89H587.393L586.305 1027.96V1034.84L587.393 1035.91H591.105L592.129 1034.9V1034.28H593.345V1035.3L591.649 1037H586.849L585.089 1035.24ZM598.288 1025.8H599.6L603.584 1037H602.32L601.28 1033.98H596.608L595.568 1037H594.304L598.288 1025.8ZM600.928 1032.92L598.96 1027.21H598.928L596.976 1032.92H600.928ZM609.013 1035.53V1034.28H610.229V1035.13L611.029 1035.91H614.325L615.125 1035.13V1031.58L613.989 1032.71H610.325L608.853 1031.24V1027.27L610.325 1025.8H614.869L616.341 1027.27V1035.53L614.869 1037H610.485L609.013 1035.53ZM613.669 1031.62L615.125 1030.17V1027.67L614.325 1026.89H610.869L610.069 1027.67V1030.84L610.869 1031.62H613.669ZM623.357 1034.71H617.853V1032.82L622.637 1025.8H624.573V1033.62H625.933V1034.71H624.573V1037H623.357V1034.71ZM623.357 1033.66V1026.82H623.261L619.037 1033.02V1033.66H623.357ZM629.48 1027.05L626.968 1028.34V1027.22L629.576 1025.8H630.696V1037H629.48V1027.05ZM633.183 1035.4V1027.4L634.783 1025.8H639.391L640.991 1027.4V1035.4L639.391 1037H634.783L633.183 1035.4ZM638.847 1035.91L639.775 1035V1027.8L638.847 1026.89H635.327L634.399 1027.8V1035L635.327 1035.91H638.847ZM643.149 1035.53V1032.23L644.157 1031.22L643.309 1030.38V1027.27L644.781 1025.8H649.261L650.733 1027.27V1030.38L649.885 1031.22L650.893 1032.23V1035.53L649.421 1037H644.621L643.149 1035.53ZM648.717 1030.78L649.517 1029.99V1027.67L648.717 1026.89H645.325L644.525 1027.67V1029.99L645.325 1030.78H648.717ZM648.877 1035.91L649.677 1035.13V1032.62L648.877 1031.83H645.165L644.365 1032.62V1035.13L645.165 1035.91H648.877ZM657.124 1023.46H658.308V1040.26H657.124V1023.46ZM664.7 1025.58H665.884V1030.7L667.548 1029.03H670.028L671.5 1030.5V1037H670.316V1030.87L669.516 1030.09H667.868L665.884 1032.07V1037H664.7V1025.58ZM674.389 1035.53V1030.07H672.949V1029.03H674.421V1026.44H675.573V1029.03H678.069V1030.07H675.573V1035.16L676.373 1035.96H678.069V1037H675.861L674.389 1035.53ZM680.623 1035.53V1030.07H679.183V1029.03H680.655V1026.44H681.807V1029.03H684.303V1030.07H681.807V1035.16L682.607 1035.96H684.303V1037H682.095L680.623 1035.53ZM686.138 1029.03H687.289V1030.46L688.714 1029.03H691.706L693.178 1030.5V1035.53L691.706 1037H688.634L687.322 1035.85V1040.39H686.138V1029.03ZM691.194 1035.94L691.994 1035.16V1030.87L691.194 1030.09H689.034L687.322 1031.8V1034.55L688.858 1035.94H691.194ZM695.019 1035.69V1034.7H696.203V1035.35L696.843 1035.98H699.787L700.427 1035.35V1034.12L699.787 1033.48H696.347L695.083 1032.22V1030.34L696.395 1029.03H700.139L701.451 1030.34V1031.34H700.267V1030.68L699.627 1030.06H696.907L696.267 1030.68V1031.85L696.907 1032.49H700.299L701.611 1033.8V1035.69L700.299 1037H696.331L695.019 1035.69ZM703.238 1030.84V1030.14L703.702 1029.67H704.406L704.87 1030.14V1030.84L704.406 1031.3H703.702L703.238 1030.84ZM703.238 1036.54V1035.83L703.702 1035.37H704.406L704.87 1035.83V1036.54L704.406 1037H703.702L703.238 1036.54ZM711.895 1025.78H713.143L706.951 1037H705.703L711.895 1025.78ZM719.333 1025.78H720.581L714.389 1037H713.141L719.333 1025.78ZM721.138 1029.03H722.354L723.714 1035.66H723.762L725.682 1029.03H726.834L728.578 1035.66H728.626L730.114 1029.03H731.33L729.314 1037H728.034L726.274 1030.42H726.226L724.306 1037H723.01L721.138 1029.03ZM732.451 1029.03H733.667L735.027 1035.66H735.075L736.995 1029.03H738.147L739.891 1035.66H739.939L741.427 1029.03H742.643L740.627 1037H739.347L737.587 1030.42H737.539L735.619 1037H734.323L732.451 1029.03ZM743.763 1029.03H744.979L746.339 1035.66H746.387L748.307 1029.03H749.459L751.203 1035.66H751.251L752.739 1029.03H753.955L751.939 1037H750.659L748.899 1030.42H748.851L746.931 1037H745.635L743.763 1029.03ZM754.707 1036.54V1035.83L755.171 1035.37H755.875L756.339 1035.83V1036.54L755.875 1037H755.171L754.707 1036.54ZM765.008 1037H763.824V1026.63H760.512L759.792 1027.35V1029.03H762.304V1030.09H759.792V1037H758.608V1030.09H757.168V1029.03H758.608V1027.03L760 1025.64H765.008V1037ZM767.401 1027.21V1026.5L767.881 1026.02H768.585L769.065 1026.5V1027.21L768.585 1027.69H767.881L767.401 1027.21ZM767.641 1029.03H768.825V1037H767.641V1029.03ZM771.388 1029.03H772.539V1030.46L773.964 1029.03H776.956L778.428 1030.5V1035.53L776.956 1037H773.884L772.572 1035.85V1040.39H771.388V1029.03ZM776.444 1035.94L777.244 1035.16V1030.87L776.444 1030.09H774.284L772.572 1031.8V1034.55L774.108 1035.94H776.444ZM780.066 1036.54V1035.83L780.53 1035.37H781.234L781.698 1035.83V1036.54L781.234 1037H780.53L780.066 1036.54ZM783.335 1035.69V1033.66L784.647 1032.36H788.903V1030.84L788.103 1030.06H785.383L784.583 1030.84V1031.5H783.399V1030.5L784.871 1029.03H788.599L790.071 1030.5V1037H788.935V1035.59L787.463 1037H784.647L783.335 1035.69ZM787.223 1035.98L788.903 1034.36V1033.38H785.159L784.519 1034.01V1035.35L785.159 1035.98H787.223ZM792.308 1027.21V1026.5L792.788 1026.02H793.492L793.972 1026.5V1027.21L793.492 1027.69H792.788L792.308 1027.21ZM792.548 1029.03H793.732V1037H792.548V1029.03ZM800.28 1023.46H801.464V1040.26H800.28V1023.46ZM807.536 1035.16V1027.64L809.376 1025.8H814.848L816.656 1027.61V1029.32H814.48V1028.41L813.728 1027.66H810.528L809.712 1028.47V1034.33L810.528 1035.14H813.728L814.48 1034.39V1033.48H816.656V1035.19L814.848 1037H809.376L807.536 1035.16ZM818.021 1035.16V1027.64L819.861 1025.8H825.621L827.461 1027.64V1035.16L825.621 1037H819.861L818.021 1035.16ZM824.469 1035.14L825.285 1034.33V1028.47L824.469 1027.66H821.013L820.197 1028.47V1034.33L821.013 1035.14H824.469ZM829.384 1025.8H831.336L836.328 1033.4H836.36V1025.8H838.456V1037H836.504L831.512 1029.42H831.48V1037H829.384V1025.8ZM840.54 1025.8H848.476V1027.64H842.716V1030.74H847.708V1032.58H842.716V1037H840.54V1025.8ZM849.839 1025.8H852.015V1037H849.839V1025.8ZM854.181 1025.8H861.349L863.269 1027.72V1035.08L861.349 1037H854.181V1025.8ZM860.277 1035.14L861.093 1034.33V1028.47L860.277 1027.66H856.357V1035.14H860.277ZM865.196 1025.8H873.292V1027.64H867.372V1030.47H872.828V1032.28H867.372V1035.16H873.292V1037H865.196V1025.8ZM874.899 1025.8H876.851L881.843 1033.4H881.875V1025.8H883.971V1037H882.019L877.027 1029.42H876.995V1037H874.899V1025.8ZM888.6 1027.64H885.256V1025.8H894.12V1027.64H890.776V1037H888.6V1027.64ZM895.479 1025.8H897.655V1037H895.479V1025.8ZM902.957 1025.8H904.941L909.037 1037H906.829L905.917 1034.52H901.981L901.069 1037H898.861L902.957 1025.8ZM905.437 1032.73L903.949 1028.47H903.917L902.477 1032.73H905.437ZM910.165 1025.8H912.341V1035.16H917.941V1037H910.165V1025.8Z" fill="white"/>
<path d="M64.16 69.568H74.768V72.896H68.008V114.756H74.768V118.084H64.16V69.568ZM79.4269 107.216V90.888L84.2109 86.104H97.2629L102.099 90.888V100.196H83.2749V106.02L85.8749 108.568H95.5989L98.1989 106.02V104.044H102.047V107.216L97.2629 112H84.2109L79.4269 107.216ZM98.2509 96.868V92.084L95.6509 89.536H85.8749L83.2749 92.084V96.868H98.2509ZM109.095 86.104H112.839V91.616L118.351 86.104H126.307L131.091 90.888V112H127.243V92.084L124.643 89.536H119.391L112.943 95.984V112H109.095V86.104ZM138.13 107.216V90.888L142.914 86.104H152.898L157.162 89.848V74.872H161.01V112H157.266V107.268L152.534 112H142.914L138.13 107.216ZM151.702 108.568L157.162 103.108V93.904L152.17 89.536H144.578L141.978 92.084V106.02L144.578 108.568H151.702ZM166.214 118.084V114.756H172.974V72.896H166.214V69.568H176.822V118.084H166.214Z" fill="white"/>
</svg>
