<svg width="1920" height="1080" viewBox="0 0 1920 1080" fill="none" xmlns="http://www.w3.org/2000/svg">
<g clip-path="url(#clip0_13_2)">
<rect width="1920" height="1080" fill="#0000FF"/>
<path d="M61.28 1025.8H68.352V1026.89H62.496V1030.92H67.584V1032.01H62.496V1037H61.28V1025.8ZM70.1081 1025.58H71.2921V1037H70.1081V1025.58ZM73.6981 1027.21V1026.5L74.1781 1026.02H74.8821L75.3621 1026.5V1027.21L74.8821 1027.69H74.1781L73.6981 1027.21ZM73.9381 1029.03H75.1221V1037H73.9381V1029.03ZM77.6844 1029.03H78.8364V1030.46L80.2604 1029.03H83.2524L84.7244 1030.5V1035.53L83.2524 1037H80.1804L78.8684 1035.85V1040.39H77.6844V1029.03ZM82.7404 1035.94L83.5404 1035.16V1030.87L82.7404 1030.09H80.5804L78.8684 1031.8V1034.55L80.4044 1035.94H82.7404ZM93.5439 1026.87H90.1519V1025.8H98.1519V1026.87H94.7599V1037H93.5439V1026.87ZM98.2275 1035.53V1030.5L99.6995 1029.03H103.716L105.204 1030.5V1033.37H99.4115V1035.16L100.212 1035.94H103.204L104.004 1035.16V1034.55H105.188V1035.53L103.716 1037H99.6995L98.2275 1035.53ZM104.02 1032.34V1030.87L103.22 1030.09H100.212L99.4115 1030.87V1032.34H104.02ZM107.196 1035.53V1030.5L108.668 1029.03H112.508L113.98 1030.5V1031.48H112.796V1030.87L111.996 1030.09H109.18L108.38 1030.87V1035.16L109.18 1035.94H111.996L112.796 1035.16V1034.55H113.98V1035.53L112.508 1037H108.668L107.196 1035.53ZM115.903 1025.58H117.087V1030.7L118.751 1029.03H121.231L122.703 1030.5V1037H121.519V1030.87L120.719 1030.09H119.071L117.087 1032.07V1037H115.903V1025.58ZM125.028 1029.03H126.18V1030.73L127.876 1029.03H130.324L131.796 1030.5V1037H130.612V1030.87L129.812 1030.09H128.196L126.212 1032.07V1037H125.028V1029.03ZM133.962 1035.53V1030.5L135.434 1029.03H139.53L141.002 1030.5V1035.53L139.53 1037H135.434L133.962 1035.53ZM139.018 1035.94L139.818 1035.16V1030.87L139.018 1030.09H135.946L135.146 1030.87V1035.16L135.946 1035.94H139.018ZM143.327 1025.58H144.511V1037H143.327V1025.58ZM146.837 1035.53V1030.5L148.309 1029.03H152.405L153.877 1030.5V1035.53L152.405 1037H148.309L146.837 1035.53ZM151.893 1035.94L152.693 1035.16V1030.87L151.893 1030.09H148.821L148.021 1030.87V1035.16L148.821 1035.94H151.893ZM163.002 1029.03V1039.03L161.546 1040.49H157.594L156.362 1039.26V1038.28H157.546V1038.87L158.106 1039.43H161.018L161.818 1038.65V1035.67L160.346 1037H157.434L155.962 1035.53V1030.5L157.434 1029.03H160.458L161.85 1030.42V1029.03H163.002ZM161.818 1031.77L160.138 1030.09H157.946L157.146 1030.87V1035.16L157.946 1035.94H160.154L161.818 1034.39V1031.77ZM172.107 1029.03V1039.03L170.635 1040.49H166.795L165.563 1039.26V1038.28H166.747V1038.89L167.307 1039.43H170.123L170.923 1038.65V1035.3L169.227 1037H166.795L165.323 1035.53V1029.03H166.507V1035.16L167.307 1035.94H168.907L170.923 1033.93V1029.03H172.107ZM178.339 1035.24V1027.56L180.099 1025.8H184.899L186.595 1027.5V1028.52H185.379V1027.9L184.355 1026.89H180.643L179.555 1027.96V1034.84L180.643 1035.91H184.355L185.379 1034.9V1034.28H186.595V1035.3L184.899 1037H180.099L178.339 1035.24ZM188.353 1035.53V1030.5L189.825 1029.03H193.921L195.392 1030.5V1035.53L193.921 1037H189.825L188.353 1035.53ZM193.409 1035.94L194.209 1035.16V1030.87L193.409 1030.09H190.337L189.537 1030.87V1035.16L190.337 1035.94H193.409ZM197.638 1029.03H198.789V1030.46L200.214 1029.03H202.278V1030.09H200.518L198.822 1031.78V1037H197.638V1029.03ZM203.794 1029.03H204.946V1030.46L206.37 1029.03H209.362L210.834 1030.5V1035.53L209.362 1037H206.29L204.978 1035.85V1040.39H203.794V1029.03ZM208.85 1035.94L209.65 1035.16V1030.87L208.85 1030.09H206.69L204.978 1031.8V1034.55L206.514 1035.94H208.85ZM212.915 1035.53V1030.5L214.387 1029.03H218.483L219.955 1030.5V1035.53L218.483 1037H214.387L212.915 1035.53ZM217.971 1035.94L218.771 1035.16V1030.87L217.971 1030.09H214.899L214.099 1030.87V1035.16L214.899 1035.94H217.971ZM222.2 1029.03H223.352V1030.46L224.776 1029.03H226.84V1030.09H225.08L223.384 1031.78V1037H222.2V1029.03ZM227.71 1035.69V1033.66L229.022 1032.36H233.278V1030.84L232.478 1030.06H229.758L228.958 1030.84V1031.5H227.774V1030.5L229.246 1029.03H232.974L234.446 1030.5V1037H233.31V1035.59L231.838 1037H229.022L227.71 1035.69ZM231.598 1035.98L233.278 1034.36V1033.38H229.534L228.894 1034.01V1035.35L229.534 1035.98H231.598ZM237.326 1035.53V1030.07H235.886V1029.03H237.358V1026.44H238.51V1029.03H241.006V1030.07H238.51V1035.16L239.31 1035.96H241.006V1037H238.798L237.326 1035.53ZM242.761 1027.21V1026.5L243.241 1026.02H243.945L244.425 1026.5V1027.21L243.945 1027.69H243.241L242.761 1027.21ZM243.001 1029.03H244.185V1037H243.001V1029.03ZM246.587 1035.53V1030.5L248.059 1029.03H252.155L253.627 1030.5V1035.53L252.155 1037H248.059L246.587 1035.53ZM251.643 1035.94L252.443 1035.16V1030.87L251.643 1030.09H248.571L247.771 1030.87V1035.16L248.571 1035.94H251.643ZM255.872 1029.03H257.024V1030.73L258.72 1029.03H261.168L262.64 1030.5V1037H261.456V1030.87L260.656 1030.09H259.04L257.056 1032.07V1037H255.872V1029.03ZM268.952 1023.46H270.136V1040.26H268.952V1023.46ZM276.448 1035.53V1027.27L277.92 1025.8H282.4L283.872 1027.27V1028.52H282.656V1027.67L281.856 1026.89H278.464L277.664 1027.67V1031.45L278.96 1030.15H282.464L283.936 1031.62V1035.53L282.464 1037H277.92L276.448 1035.53ZM281.92 1035.91L282.72 1035.13V1032.02L281.92 1031.24H279.28L277.664 1032.86V1035.13L278.464 1035.91H281.92ZM285.851 1035.53V1034.28H287.067V1035.13L287.867 1035.91H291.227L292.027 1035.13V1031.93L291.227 1031.14H286.011V1025.8H293.019V1026.87H287.195V1030.06H291.755L293.243 1031.54V1035.53L291.771 1037H287.323L285.851 1035.53ZM295.323 1035.4V1027.4L296.923 1025.8H301.531L303.131 1027.4V1035.4L301.531 1037H296.923L295.323 1035.4ZM300.987 1035.91L301.915 1035V1027.8L300.987 1026.89H297.467L296.539 1027.8V1035L297.467 1035.91H300.987ZM309.276 1035.24V1027.56L311.036 1025.8H315.836L317.532 1027.5V1028.52H316.316V1027.9L315.292 1026.89H311.58L310.492 1027.96V1034.84L311.58 1035.91H315.292L316.316 1034.9V1034.28H317.532V1035.3L315.836 1037H311.036L309.276 1035.24ZM319.21 1035.69V1033.66L320.522 1032.36H324.778V1030.84L323.978 1030.06H321.258L320.458 1030.84V1031.5H319.274V1030.5L320.746 1029.03H324.474L325.946 1030.5V1037H324.81V1035.59L323.338 1037H320.522L319.21 1035.69ZM323.098 1035.98L324.778 1034.36V1033.38H321.034L320.394 1034.01V1035.35L321.034 1035.98H323.098ZM328.343 1025.58H329.527V1037H328.343V1025.58ZM331.933 1027.21V1026.5L332.413 1026.02H333.117L333.597 1026.5V1027.21L333.117 1027.69H332.413L331.933 1027.21ZM332.173 1029.03H333.357V1037H332.173V1029.03ZM336.639 1030.07H335.199V1029.03H336.639V1027.26L338.031 1025.86H340.335V1026.89H338.543L337.823 1027.59V1029.03H340.335V1030.07H337.823V1037H336.639V1030.07ZM341.462 1035.53V1030.5L342.934 1029.03H347.03L348.502 1030.5V1035.53L347.03 1037H342.934L341.462 1035.53ZM346.518 1035.94L347.318 1035.16V1030.87L346.518 1030.09H343.446L342.646 1030.87V1035.16L343.446 1035.94H346.518ZM350.747 1029.03H351.899V1030.46L353.323 1029.03H355.387V1030.09H353.627L351.931 1031.78V1037H350.747V1029.03ZM356.903 1029.03H358.055V1030.73L359.751 1029.03H362.199L363.671 1030.5V1037H362.487V1030.87L361.687 1030.09H360.071L358.087 1032.07V1037H356.903V1029.03ZM365.917 1027.21V1026.5L366.397 1026.02H367.101L367.581 1026.5V1027.21L367.101 1027.69H366.397L365.917 1027.21ZM366.157 1029.03H367.341V1037H366.157V1029.03ZM369.663 1035.69V1033.66L370.975 1032.36H375.231V1030.84L374.431 1030.06H371.711L370.911 1030.84V1031.5H369.727V1030.5L371.199 1029.03H374.927L376.399 1030.5V1037H375.263V1035.59L373.791 1037H370.975L369.663 1035.69ZM373.551 1035.98L375.231 1034.36V1033.38H371.487L370.847 1034.01V1035.35L371.487 1035.98H373.551ZM382.462 1035.53V1034.5H383.662V1035.13L384.43 1035.91H388.27L389.07 1035.1V1032.58L388.27 1031.8H383.966L382.494 1030.33V1027.27L383.966 1025.8H388.67L390.142 1027.27V1028.31H388.958V1027.67L388.158 1026.89H384.494L383.694 1027.67V1029.93L384.494 1030.71H388.798L390.27 1032.18V1035.5L388.766 1037H383.934L382.462 1035.53ZM392.998 1035.53V1030.07H391.558V1029.03H393.03V1026.44H394.182V1029.03H396.678V1030.07H394.182V1035.16L394.982 1035.96H396.678V1037H394.47L392.998 1035.53ZM398.801 1037H398.609L398.145 1036.54V1035.83L398.609 1035.37H399.312L399.777 1035.83V1037L398.977 1038.98H398.321L398.801 1037ZM410.628 1027.5V1026.89H404.836V1025.8H411.844V1027.58L407.46 1037H406.18L410.628 1027.5ZM414.404 1035.53V1030.07H412.964V1029.03H414.436V1026.44H415.588V1029.03H418.084V1030.07H415.588V1035.16L416.388 1035.96H418.084V1037H415.876L414.404 1035.53ZM419.919 1025.58H421.103V1030.7L422.767 1029.03H425.247L426.719 1030.5V1037H425.535V1030.87L424.735 1030.09H423.087L421.103 1032.07V1037H419.919V1025.58ZM433.03 1025.8H440.102V1026.89H434.246V1030.92H439.334V1032.01H434.246V1037H433.03V1025.8ZM441.858 1025.58H443.042V1037H441.858V1025.58ZM445.368 1035.53V1030.5L446.84 1029.03H450.936L452.408 1030.5V1035.53L450.936 1037H446.84L445.368 1035.53ZM450.424 1035.94L451.224 1035.16V1030.87L450.424 1030.09H447.352L446.552 1030.87V1035.16L447.352 1035.94H450.424ZM454.493 1035.53V1030.5L455.965 1029.03H460.061L461.533 1030.5V1035.53L460.061 1037H455.965L454.493 1035.53ZM459.549 1035.94L460.349 1035.16V1030.87L459.549 1030.09H456.477L455.677 1030.87V1035.16L456.477 1035.94H459.549ZM463.778 1029.03H464.93V1030.46L466.354 1029.03H468.418V1030.09H466.658L464.962 1031.78V1037H463.778V1029.03ZM469.269 1037H469.077L468.613 1036.54V1035.83L469.077 1035.37H469.781L470.245 1035.83V1037L469.445 1038.98H468.789L469.269 1037ZM476.024 1035.53V1034.5H477.224V1035.13L477.992 1035.91H481.832L482.632 1035.1V1032.58L481.832 1031.8H477.528L476.056 1030.33V1027.27L477.528 1025.8H482.232L483.704 1027.27V1028.31H482.52V1027.67L481.72 1026.89H478.056L477.256 1027.67V1029.93L478.056 1030.71H482.36L483.832 1032.18V1035.5L482.328 1037H477.496L476.024 1035.53ZM485.679 1035.69V1033.66L486.991 1032.36H491.247V1030.84L490.447 1030.06H487.727L486.927 1030.84V1031.5H485.743V1030.5L487.215 1029.03H490.943L492.415 1030.5V1037H491.279V1035.59L489.807 1037H486.991L485.679 1035.69ZM489.567 1035.98L491.247 1034.36V1033.38H487.503L486.863 1034.01V1035.35L487.503 1035.98H489.567ZM494.731 1029.03H495.883V1030.73L497.579 1029.03H500.027L501.499 1030.5V1037H500.315V1030.87L499.515 1030.09H497.899L495.915 1032.07V1037H494.731V1029.03ZM507.811 1025.8H514.883V1026.89H509.027V1030.92H514.115V1032.01H509.027V1037H507.811V1025.8ZM516.153 1029.03H517.305V1030.46L518.729 1029.03H520.793V1030.09H519.033L517.337 1031.78V1037H516.153V1029.03ZM521.663 1035.69V1033.66L522.975 1032.36H527.231V1030.84L526.431 1030.06H523.711L522.911 1030.84V1031.5H521.727V1030.5L523.199 1029.03H526.927L528.399 1030.5V1037H527.263V1035.59L525.791 1037H522.975L521.663 1035.69ZM525.551 1035.98L527.231 1034.36V1033.38H523.487L522.847 1034.01V1035.35L523.487 1035.98H525.551ZM530.716 1029.03H531.868V1030.73L533.564 1029.03H536.012L537.484 1030.5V1037H536.3V1030.87L535.5 1030.09H533.884L531.9 1032.07V1037H530.716V1029.03ZM539.649 1035.53V1030.5L541.121 1029.03H544.961L546.433 1030.5V1031.48H545.249V1030.87L544.449 1030.09H541.633L540.833 1030.87V1035.16L541.633 1035.94H544.449L545.249 1035.16V1034.55H546.433V1035.53L544.961 1037H541.121L539.649 1035.53ZM548.276 1027.21V1026.5L548.756 1026.02H549.46L549.94 1026.5V1027.21L549.46 1027.69H548.756L548.276 1027.21ZM548.516 1029.03H549.7V1037H548.516V1029.03ZM551.863 1035.69V1034.7H553.047V1035.35L553.687 1035.98H556.631L557.271 1035.35V1034.12L556.631 1033.48H553.191L551.927 1032.22V1030.34L553.239 1029.03H556.983L558.295 1030.34V1031.34H557.111V1030.68L556.471 1030.06H553.751L553.111 1030.68V1031.85L553.751 1032.49H557.143L558.455 1033.8V1035.69L557.143 1037H553.174L551.863 1035.69ZM560.29 1035.53V1030.5L561.762 1029.03H565.602L567.074 1030.5V1031.48H565.89V1030.87L565.09 1030.09H562.274L561.474 1030.87V1035.16L562.274 1035.94H565.09L565.89 1035.16V1034.55H567.074V1035.53L565.602 1037H561.762L560.29 1035.53ZM568.837 1035.53V1030.5L570.309 1029.03H574.405L575.877 1030.5V1035.53L574.405 1037H570.309L568.837 1035.53ZM573.893 1035.94L574.693 1035.16V1030.87L573.893 1030.09H570.821L570.021 1030.87V1035.16L570.821 1035.94H573.893ZM578.254 1037H578.062L577.598 1036.54V1035.83L578.062 1035.37H578.766L579.23 1035.83V1037L578.43 1038.98H577.774L578.254 1037ZM585.089 1035.24V1027.56L586.849 1025.8H591.649L593.345 1027.5V1028.52H592.129V1027.9L591.105 1026.89H587.393L586.305 1027.96V1034.84L587.393 1035.91H591.105L592.129 1034.9V1034.28H593.345V1035.3L591.649 1037H586.849L585.089 1035.24ZM598.288 1025.8H599.6L603.584 1037H602.32L601.28 1033.98H596.608L595.568 1037H594.304L598.288 1025.8ZM600.928 1032.92L598.96 1027.21H598.928L596.976 1032.92H600.928ZM609.013 1035.53V1034.28H610.229V1035.13L611.029 1035.91H614.325L615.125 1035.13V1031.58L613.989 1032.71H610.325L608.853 1031.24V1027.27L610.325 1025.8H614.869L616.341 1027.27V1035.53L614.869 1037H610.485L609.013 1035.53ZM613.669 1031.62L615.125 1030.17V1027.67L614.325 1026.89H610.869L610.069 1027.67V1030.84L610.869 1031.62H613.669ZM623.357 1034.71H617.853V1032.82L622.637 1025.8H624.573V1033.62H625.933V1034.71H624.573V1037H623.357V1034.71ZM623.357 1033.66V1026.82H623.261L619.037 1033.02V1033.66H623.357ZM629.48 1027.05L626.968 1028.34V1027.22L629.576 1025.8H630.696V1037H629.48V1027.05ZM633.183 1035.4V1027.4L634.783 1025.8H639.391L640.991 1027.4V1035.4L639.391 1037H634.783L633.183 1035.4ZM638.847 1035.91L639.775 1035V1027.8L638.847 1026.89H635.327L634.399 1027.8V1035L635.327 1035.91H638.847ZM643.149 1035.53V1032.23L644.157 1031.22L643.309 1030.38V1027.27L644.781 1025.8H649.261L650.733 1027.27V1030.38L649.885 1031.22L650.893 1032.23V1035.53L649.421 1037H644.621L643.149 1035.53ZM648.717 1030.78L649.517 1029.99V1027.67L648.717 1026.89H645.325L644.525 1027.67V1029.99L645.325 1030.78H648.717ZM648.877 1035.91L649.677 1035.13V1032.62L648.877 1031.83H645.165L644.365 1032.62V1035.13L645.165 1035.91H648.877ZM657.124 1023.46H658.308V1040.26H657.124V1023.46ZM664.7 1025.58H665.884V1030.7L667.548 1029.03H670.028L671.5 1030.5V1037H670.316V1030.87L669.516 1030.09H667.868L665.884 1032.07V1037H664.7V1025.58ZM674.389 1035.53V1030.07H672.949V1029.03H674.421V1026.44H675.573V1029.03H678.069V1030.07H675.573V1035.16L676.373 1035.96H678.069V1037H675.861L674.389 1035.53ZM680.623 1035.53V1030.07H679.183V1029.03H680.655V1026.44H681.807V1029.03H684.303V1030.07H681.807V1035.16L682.607 1035.96H684.303V1037H682.095L680.623 1035.53ZM686.138 1029.03H687.289V1030.46L688.714 1029.03H691.706L693.178 1030.5V1035.53L691.706 1037H688.634L687.322 1035.85V1040.39H686.138V1029.03ZM691.194 1035.94L691.994 1035.16V1030.87L691.194 1030.09H689.034L687.322 1031.8V1034.55L688.858 1035.94H691.194ZM695.019 1035.69V1034.7H696.203V1035.35L696.843 1035.98H699.787L700.427 1035.35V1034.12L699.787 1033.48H696.347L695.083 1032.22V1030.34L696.395 1029.03H700.139L701.451 1030.34V1031.34H700.267V1030.68L699.627 1030.06H696.907L696.267 1030.68V1031.85L696.907 1032.49H700.299L701.611 1033.8V1035.69L700.299 1037H696.331L695.019 1035.69ZM703.238 1030.84V1030.14L703.702 1029.67H704.406L704.87 1030.14V1030.84L704.406 1031.3H703.702L703.238 1030.84ZM703.238 1036.54V1035.83L703.702 1035.37H704.406L704.87 1035.83V1036.54L704.406 1037H703.702L703.238 1036.54ZM711.895 1025.78H713.143L706.951 1037H705.703L711.895 1025.78ZM719.333 1025.78H720.581L714.389 1037H713.141L719.333 1025.78ZM721.138 1029.03H722.354L723.714 1035.66H723.762L725.682 1029.03H726.834L728.578 1035.66H728.626L730.114 1029.03H731.33L729.314 1037H728.034L726.274 1030.42H726.226L724.306 1037H723.01L721.138 1029.03ZM732.451 1029.03H733.667L735.027 1035.66H735.075L736.995 1029.03H738.147L739.891 1035.66H739.939L741.427 1029.03H742.643L740.627 1037H739.347L737.587 1030.42H737.539L735.619 1037H734.323L732.451 1029.03ZM743.763 1029.03H744.979L746.339 1035.66H746.387L748.307 1029.03H749.459L751.203 1035.66H751.251L752.739 1029.03H753.955L751.939 1037H750.659L748.899 1030.42H748.851L746.931 1037H745.635L743.763 1029.03ZM754.707 1036.54V1035.83L755.171 1035.37H755.875L756.339 1035.83V1036.54L755.875 1037H755.171L754.707 1036.54ZM765.008 1037H763.824V1026.63H760.512L759.792 1027.35V1029.03H762.304V1030.09H759.792V1037H758.608V1030.09H757.168V1029.03H758.608V1027.03L760 1025.64H765.008V1037ZM767.401 1027.21V1026.5L767.881 1026.02H768.585L769.065 1026.5V1027.21L768.585 1027.69H767.881L767.401 1027.21ZM767.641 1029.03H768.825V1037H767.641V1029.03ZM771.388 1029.03H772.539V1030.46L773.964 1029.03H776.956L778.428 1030.5V1035.53L776.956 1037H773.884L772.572 1035.85V1040.39H771.388V1029.03ZM776.444 1035.94L777.244 1035.16V1030.87L776.444 1030.09H774.284L772.572 1031.8V1034.55L774.108 1035.94H776.444ZM780.066 1036.54V1035.83L780.53 1035.37H781.234L781.698 1035.83V1036.54L781.234 1037H780.53L780.066 1036.54ZM783.335 1035.69V1033.66L784.647 1032.36H788.903V1030.84L788.103 1030.06H785.383L784.583 1030.84V1031.5H783.399V1030.5L784.871 1029.03H788.599L790.071 1030.5V1037H788.935V1035.59L787.463 1037H784.647L783.335 1035.69ZM787.223 1035.98L788.903 1034.36V1033.38H785.159L784.519 1034.01V1035.35L785.159 1035.98H787.223ZM792.308 1027.21V1026.5L792.788 1026.02H793.492L793.972 1026.5V1027.21L793.492 1027.69H792.788L792.308 1027.21ZM792.548 1029.03H793.732V1037H792.548V1029.03ZM800.28 1023.46H801.464V1040.26H800.28V1023.46ZM807.536 1035.16V1027.64L809.376 1025.8H814.848L816.656 1027.61V1029.32H814.48V1028.41L813.728 1027.66H810.528L809.712 1028.47V1034.33L810.528 1035.14H813.728L814.48 1034.39V1033.48H816.656V1035.19L814.848 1037H809.376L807.536 1035.16ZM818.021 1035.16V1027.64L819.861 1025.8H825.621L827.461 1027.64V1035.16L825.621 1037H819.861L818.021 1035.16ZM824.469 1035.14L825.285 1034.33V1028.47L824.469 1027.66H821.013L820.197 1028.47V1034.33L821.013 1035.14H824.469ZM829.384 1025.8H831.336L836.328 1033.4H836.36V1025.8H838.456V1037H836.504L831.512 1029.42H831.48V1037H829.384V1025.8ZM840.54 1025.8H848.476V1027.64H842.716V1030.74H847.708V1032.58H842.716V1037H840.54V1025.8ZM849.839 1025.8H852.015V1037H849.839V1025.8ZM854.181 1025.8H861.349L863.269 1027.72V1035.08L861.349 1037H854.181V1025.8ZM860.277 1035.14L861.093 1034.33V1028.47L860.277 1027.66H856.357V1035.14H860.277ZM865.196 1025.8H873.292V1027.64H867.372V1030.47H872.828V1032.28H867.372V1035.16H873.292V1037H865.196V1025.8ZM874.899 1025.8H876.851L881.843 1033.4H881.875V1025.8H883.971V1037H882.019L877.027 1029.42H876.995V1037H874.899V1025.8ZM888.6 1027.64H885.256V1025.8H894.12V1027.64H890.776V1037H888.6V1027.64ZM895.479 1025.8H897.655V1037H895.479V1025.8ZM902.957 1025.8H904.941L909.037 1037H906.829L905.917 1034.52H901.981L901.069 1037H898.861L902.957 1025.8ZM905.437 1032.73L903.949 1028.47H903.917L902.477 1032.73H905.437ZM910.165 1025.8H912.341V1035.16H917.941V1037H910.165V1025.8Z" fill="white"/>
<path d="M63.38 83.6H86.676L92.916 89.84V113.76L86.676 120H63.38V83.6ZM83.192 113.968L85.844 111.316V92.284L83.192 89.632H70.452V113.968H83.192ZM98.4008 114.696V99.512L103.757 94.104H118.369L123.777 99.512V109.34H105.265V112.668L106.929 114.384H115.405L116.965 112.772V111.42H123.725V114.8L118.577 120H103.653L98.4008 114.696ZM116.913 104.556V101.54L115.145 99.72H107.033L105.265 101.54V104.556H116.913ZM127.937 114.904V111.732H134.697V113.188L135.841 114.384H144.265L145.409 113.188V110.952L144.213 109.704H133.033L128.145 104.764V99.096L133.085 94.104H146.605L151.649 99.2V102.372H144.889V100.916L143.745 99.72H136.049L134.905 100.916V102.944L136.101 104.192H147.281L152.169 109.132V115.008L147.229 120H132.981L127.937 114.904ZM156.856 88.696V85.368L159.248 82.976H162.888L165.28 85.368V88.696L162.888 91.088H159.248L156.856 88.696ZM157.636 94.104H164.5V120H157.636V94.104ZM196.348 94.104V125.928L190.732 131.492H176.64L171.804 126.708V123.172H178.668V124.732L179.656 125.772H187.716L189.484 123.952V116.62L185.896 120H176.12L170.764 114.592V99.512L176.12 94.104H186.312L190.004 97.64V94.104H196.348ZM189.484 103.1L185.948 99.928H179.604L177.628 101.956V112.148L179.604 114.176H185.272L189.484 109.86V103.1ZM202.565 94.104H208.909V98.42L213.225 94.104H221.597L227.369 99.876V120H220.505V101.748L218.737 99.928H214.369L209.429 104.92V120H202.565V94.104ZM247.767 83.6H274.079V89.58H254.839V98.784H272.571V104.66H254.839V114.02H274.079V120H247.767V83.6ZM279.042 94.104H285.386V98.368L289.598 94.104H296.15L299.686 97.692L303.222 94.104H312.27L317.834 99.72V120H310.97V101.748L309.202 99.928H304.834L302.078 102.684V120H295.422V101.644L293.758 99.928H290.638L285.906 104.712V120H279.042V94.104ZM323.831 94.104H330.175V97.9L333.971 94.104H344.059L349.415 99.512V114.592L344.059 120H334.023L330.695 117.244V131.024H323.831V94.104ZM340.731 114.176L342.551 112.356V101.748L340.731 99.928H334.855L330.695 104.14V110.484L334.803 114.176H340.731ZM355.372 82.872H362.236V120H355.372V82.872ZM368.202 114.592V99.512L373.558 94.104H388.43L393.786 99.512V114.592L388.43 120H373.558L368.202 114.592ZM385.102 114.28L386.922 112.46V101.644L385.102 99.824H376.886L375.066 101.644V112.46L376.886 114.28H385.102ZM424.091 94.104V125.928L418.475 131.492H404.851L400.015 126.708V123.172H406.879V124.732L407.867 125.772H415.459L417.227 123.952V116.152L413.379 120H404.799L399.235 114.384V94.104H406.099V112.356L407.867 114.176H412.391L417.227 109.028V94.104H424.091ZM430.319 94.104H436.663V98.368L440.875 94.104H447.427L450.963 97.692L454.499 94.104H463.547L469.111 99.72V120H462.247V101.748L460.479 99.928H456.111L453.355 102.684V120H446.699V101.644L445.035 99.928H441.915L437.183 104.712V120H430.319V94.104ZM474.588 114.696V99.512L479.944 94.104H494.556L499.964 99.512V109.34H481.452V112.668L483.116 114.384H491.592L493.152 112.772V111.42H499.912V114.8L494.764 120H479.84L474.588 114.696ZM493.1 104.556V101.54L491.332 99.72H483.22L481.452 101.54V104.556H493.1ZM505.425 94.104H511.769V98.42L516.085 94.104H524.457L530.229 99.876V120H523.365V101.748L521.597 99.928H517.229L512.289 104.92V120H505.425V94.104ZM538.03 114.696V99.876H533.35V94.104H538.134V85.68H544.894V94.104H552.798V99.928H544.894V112.46L546.662 114.176H552.798V120H543.386L538.03 114.696ZM577.422 91.14L569.57 95.196V88.696L578.826 83.6H584.494V120H577.422V91.14Z" fill="white"/>
<path d="M60.552 175.72L61.032 172.936L63.408 170.92H69.696L69.984 169.144L69.24 168.256H65.496L64.464 169.144L64.32 169.912H61.656L61.944 168.376L64.656 166.048H70.608L72.744 168.64L71.112 178H68.64L68.952 176.152L66.72 178H62.424L60.552 175.72ZM66.84 175.864L69.168 173.944L69.336 172.936H64.464L63.576 173.68L63.312 175.144L63.912 175.864H66.84ZM74.3372 175.456L75.6092 168.256L78.2012 166.048H82.9532L84.3932 167.56L85.5932 160.864H88.3052L85.2812 178H82.7132L83.0492 176.032L80.7692 178H76.4252L74.3372 175.456ZM80.8412 175.672L83.3612 173.512L83.9852 170.008L82.4252 168.376H79.3052L78.1292 169.384L77.1692 174.664L78.0092 175.672H80.8412ZM88.4426 175.72L88.9226 172.936L91.2986 170.92H97.5866L97.8746 169.144L97.1306 168.256H93.3866L92.3546 169.144L92.2106 169.912H89.5466L89.8346 168.376L92.5466 166.048H98.4986L100.635 168.64L99.0026 178H96.5306L96.8426 176.152L94.6106 178H90.3146L88.4426 175.72ZM94.7306 175.864L97.0586 173.944L97.2266 172.936H92.3546L91.4666 173.68L91.2026 175.144L91.8026 175.864H94.7306ZM104.124 166.048H106.644L106.308 167.92L108.54 166.048H112.956L115.068 168.616L113.772 175.816L111.204 178H106.524L104.988 176.44L103.836 183.088H101.124L104.124 166.048ZM110.124 175.672L111.252 174.736L112.236 169.312L111.444 168.376H108.564L106.044 170.512L105.468 173.848L107.172 175.672H110.124ZM117.446 175.48L118.718 168.352H116.558L116.966 166.048H119.174L119.846 162.16H122.51L121.838 166.048H125.51L125.102 168.352H121.43L120.278 174.76L121.07 175.696H123.806L123.398 178H119.558L117.446 175.48ZM125.732 175.72L126.212 172.936L128.588 170.92H134.876L135.164 169.144L134.42 168.256H130.676L129.644 169.144L129.5 169.912H126.836L127.124 168.376L129.836 166.048H135.788L137.924 168.64L136.292 178H133.82L134.132 176.152L131.9 178H127.604L125.732 175.72ZM132.02 175.864L134.348 173.944L134.516 172.936H129.644L128.756 173.68L128.492 175.144L129.092 175.864H132.02ZM139.781 175.408L142.325 160.864H145.037L143.789 167.92L146.069 166.048H150.221L152.309 168.616L151.013 175.84L148.493 178H141.893L139.781 175.408ZM147.341 175.672L148.541 174.664L149.453 169.384L148.637 168.376H146.093L143.285 170.752L142.613 174.664L143.429 175.672H147.341ZM155.975 163.48L156.215 162.088L157.391 161.128H158.831L159.623 162.088L159.383 163.504L158.279 164.44H156.791L155.975 163.48ZM155.903 166.048H158.591L156.479 178H153.791L155.903 166.048ZM163 160.864H165.712L162.664 178H159.952L163 160.864ZM168.35 163.48L168.59 162.088L169.766 161.128H171.206L171.998 162.088L171.758 163.504L170.654 164.44H169.166L168.35 163.48ZM168.278 166.048H170.966L168.854 178H166.166L168.278 166.048ZM173.719 175.48L174.991 168.352H172.831L173.239 166.048H175.447L176.119 162.16H178.783L178.111 166.048H181.783L181.375 168.352H177.703L176.551 174.76L177.343 175.696H180.079L179.671 178H175.831L173.719 175.48ZM194.872 166.048L192.232 181L189.52 183.28H183.424L181.528 181.024L181.792 179.608H184.48L184.36 180.4L184.84 181H188.584L189.688 180.04L190.408 175.96L188.032 178H184.048L182.128 175.672L183.832 166.048H186.544L185.008 174.736L185.776 175.672H187.984L190.912 173.08L192.16 166.048H194.872ZM205.88 157.696H208.616L204.176 182.896H201.44L205.88 157.696ZM216.694 166.048H219.214L218.878 167.92L221.11 166.048H225.526L227.638 168.616L226.342 175.816L223.774 178H219.094L217.558 176.44L216.406 183.088H213.694L216.694 166.048ZM222.694 175.672L223.822 174.736L224.806 169.312L224.014 168.376H221.134L218.614 170.512L218.038 173.848L219.742 175.672H222.694ZM230.968 166.048H233.488L233.128 168.088L235.48 166.048H238.792L238.384 168.376H235.72L232.792 170.896L231.568 178H228.856L230.968 166.048ZM238.095 175.504L239.367 168.256L241.959 166.048H248.487L250.599 168.616L249.831 172.912H241.263L240.927 174.832L241.671 175.744H245.751L246.807 174.856L246.927 174.136H249.591L249.279 175.888L246.807 178H240.159L238.095 175.504ZM247.479 170.92L247.791 169.264L246.999 168.304H243.015L241.911 169.264L241.599 170.92H247.479ZM251.923 175.504L253.195 168.232L255.739 166.048H262.051L264.163 168.616L263.851 170.416H261.139L261.331 169.312L260.539 168.376H256.819L255.691 169.312L254.755 174.736L255.547 175.672H259.243L260.371 174.736L260.587 173.632H263.275L262.867 175.816L260.323 178H253.963L251.923 175.504ZM267.35 163.48L267.59 162.088L268.766 161.128H270.206L270.998 162.088L270.758 163.504L269.654 164.44H268.166L267.35 163.48ZM267.278 166.048H269.966L267.854 178H265.166L267.278 166.048ZM271.039 175.624L271.255 174.304H273.943L273.799 175.072L274.351 175.768H278.407L279.199 175.072L279.415 173.776L278.863 173.08H273.823L271.951 170.8L272.455 168.04L274.783 166.048H280.855L282.799 168.448L282.559 169.744H279.895L280.015 168.976L279.463 168.28H275.743L274.951 168.976L274.759 170.176L275.311 170.872H280.303L282.223 173.176L281.719 175.984L279.367 178H272.983L271.039 175.624ZM286.335 163.48L286.575 162.088L287.751 161.128H289.191L289.983 162.088L289.743 163.504L288.639 164.44H287.151L286.335 163.48ZM286.263 166.048H288.951L286.839 178H284.151L286.263 166.048ZM290.408 175.456L291.68 168.256L294.248 166.048H300.896L303.008 168.616L301.736 175.84L299.216 178H292.496L290.408 175.456ZM298.088 175.72L299.216 174.76L300.176 169.288L299.384 168.328H295.328L294.2 169.288L293.24 174.76L294.032 175.72H298.088ZM306.343 166.048H308.863L308.479 168.208L311.023 166.048H314.695L316.879 168.712L315.247 178H312.535L314.071 169.312L313.303 168.376H311.215L308.167 170.968L306.943 178H304.231L306.343 166.048ZM328.247 157.696H330.983L326.543 182.896H323.807L328.247 157.696ZM339.061 166.048H341.581L341.221 168.088L343.573 166.048H346.885L346.477 168.376H343.813L340.885 170.896L339.661 178H336.949L339.061 166.048ZM346.189 175.504L347.461 168.256L350.053 166.048H356.581L358.693 168.616L357.925 172.912H349.357L349.021 174.832L349.765 175.744H353.845L354.901 174.856L355.021 174.136H357.685L357.373 175.888L354.901 178H348.253L346.189 175.504ZM355.573 170.92L355.885 169.264L355.093 168.304H351.109L350.005 169.264L349.693 170.92H355.573ZM362.969 160.864H365.681L362.633 178H359.921L362.969 160.864ZM368.319 163.48L368.559 162.088L369.735 161.128H371.175L371.967 162.088L371.727 163.504L370.623 164.44H369.135L368.319 163.48ZM368.247 166.048H370.935L368.823 178H366.135L368.247 166.048ZM372.224 175.72L372.704 172.936L375.08 170.92H381.368L381.656 169.144L380.912 168.256H377.168L376.136 169.144L375.992 169.912H373.328L373.616 168.376L376.328 166.048H382.28L384.416 168.64L382.784 178H380.312L380.624 176.152L378.392 178H374.096L372.224 175.72ZM378.512 175.864L380.84 173.944L381.008 172.936H376.136L375.248 173.68L374.984 175.144L375.584 175.864H378.512ZM386.273 175.408L388.817 160.864H391.529L390.281 167.92L392.561 166.048H396.713L398.801 168.616L397.505 175.84L394.985 178H388.385L386.273 175.408ZM393.833 175.672L395.033 174.664L395.945 169.384L395.129 168.376H392.585L389.777 170.752L389.105 174.664L389.921 175.672H393.833ZM402.468 163.48L402.708 162.088L403.884 161.128H405.324L406.116 162.088L405.876 163.504L404.772 164.44H403.284L402.468 163.48ZM402.396 166.048H405.084L402.972 178H400.284L402.396 166.048ZM409.492 160.864H412.204L409.156 178H406.444L409.492 160.864ZM414.843 163.48L415.083 162.088L416.259 161.128H417.699L418.491 162.088L418.251 163.504L417.147 164.44H415.659L414.843 163.48ZM414.771 166.048H417.459L415.347 178H412.659L414.771 166.048ZM420.211 175.48L421.483 168.352H419.323L419.731 166.048H421.939L422.611 162.16H425.275L424.603 166.048H428.275L427.867 168.352H424.195L423.043 174.76L423.835 175.696H426.571L426.163 178H422.323L420.211 175.48ZM441.364 166.048L438.724 181L436.012 183.28H429.916L428.02 181.024L428.284 179.608H430.972L430.852 180.4L431.332 181H435.076L436.18 180.04L436.9 175.96L434.524 178H430.54L428.62 175.672L430.324 166.048H433.036L431.5 174.736L432.268 175.672H434.476L437.404 173.08L438.652 166.048H441.364ZM60.96 223.2H62.808L65.496 237.408H65.544L69.576 223.2H71.352L75.24 237.408H75.288L77.904 223.2H79.752L76.368 240H74.4L70.488 225.792H70.44L66.312 240H64.344L60.96 223.2ZM81.2006 237.792V230.256L83.4086 228.048H89.4326L91.6646 230.256V234.552H82.9766V237.24L84.1766 238.416H88.6646L89.8646 237.24V236.328H91.6406V237.792L89.4326 240H83.4086L81.2006 237.792ZM89.8886 233.016V230.808L88.6886 229.632H84.1766L82.9766 230.808V233.016H89.8886ZM94.8938 237.792V222.864H96.6698V230.376L98.9978 228.048H103.198L105.406 230.256V237.792L103.198 240H97.1018L94.8938 237.792ZM102.43 238.416L103.63 237.24V230.808L102.43 229.632H99.5018L96.6698 232.464V237.24L97.8698 238.416H102.43ZM114.748 223.2H125.356V224.832H116.572V230.88H124.204V232.512H116.572V240H114.748V223.2ZM126.901 238.032V234.984L128.869 233.04H135.253V230.76L134.053 229.584H129.973L128.773 230.76V231.744H126.997V230.256L129.205 228.048H134.797L137.005 230.256V240H135.301V237.888L133.093 240H128.869L126.901 238.032ZM132.733 238.464L135.253 236.04V234.576H129.637L128.677 235.512V237.528L129.637 238.464H132.733ZM138.805 228.048H140.629L144.181 238.224H144.277L147.829 228.048H149.653L145.261 240H143.197L138.805 228.048ZM157.923 223.2H159.747V240H157.923V223.2ZM163.349 237.792V230.256L165.557 228.048H171.317L173.525 230.256V231.72H171.749V230.808L170.549 229.632H166.325L165.125 230.808V237.24L166.325 238.416H170.549L171.749 237.24V236.328H173.525V237.792L171.317 240H165.557L163.349 237.792ZM176.169 237.792V230.256L178.377 228.048H184.521L186.729 230.256V237.792L184.521 240H178.377L176.169 237.792ZM183.753 238.416L184.953 237.24V230.808L183.753 229.632H179.145L177.945 230.808V237.24L179.145 238.416H183.753ZM190.097 228.048H191.825V230.592L194.369 228.048H198.041L200.249 230.256V240H198.473V230.808L197.273 229.632H194.849L191.873 232.608V240H190.097V228.048Z" fill="white"/>
<path d="M960 280C960 267.85 969.85 258 982 258H2660V529H960V280Z" fill="#1E1E1E"/>
<path d="M960 523H2660V750H960V523Z" fill="#35363A"/>
<g filter="url(#filter0_i_13_2)">
<path d="M960 750H2660V1118H960V750Z" fill="#35363A"/>
</g>
<line x1="1052.65" y1="638.889" x2="1132.55" y2="638.889" stroke="#5F6368" stroke-width="8.49536" stroke-linecap="round" stroke-linejoin="round"/>
<path d="M1092.6 598.943L1048.4 636.825L1092.6 674.707" stroke="#5F6368" stroke-width="8.49536" stroke-linecap="round" stroke-linejoin="round"/>
<line x1="1334.59" y1="634.762" x2="1254.69" y2="634.762" stroke="#5F6368" stroke-width="8.49536" stroke-linecap="round" stroke-linejoin="round"/>
<path d="M1294.64 674.707L1338.84 636.825L1294.64 598.942" stroke="#5F6368" stroke-width="8.49536" stroke-linecap="round" stroke-linejoin="round"/>
<path d="M1540.89 630.509L1496.7 630.509L1540.89 586.313L1540.89 630.509Z" fill="#5F6368"/>
<path d="M1534.58 647.647C1529.82 663.295 1515.02 674.706 1497.5 674.706C1476.13 674.706 1458.81 657.745 1458.81 636.824C1458.81 615.902 1476.13 598.941 1497.5 598.941C1508.95 598.941 1519.25 603.819 1526.33 611.569" stroke="#5F6368" stroke-width="8.49536"/>
<path d="M1678.34 636.825C1678.34 685.643 1717.92 725.218 1766.73 725.218H3241.66C3241.66 725.218 3241.66 725.218 3241.66 725.217C3241.66 725.217 3241.66 725.217 3241.66 725.217L3241.66 725.218C3241.66 725.218 3241.66 725.218 3241.66 725.218C3251.24 725.216 3259.01 685.642 3259.01 636.825C3259.01 588.008 3251.24 548.435 3241.66 548.434H3241.66C3241.66 548.434 3241.66 548.433 3241.66 548.433C3241.66 548.433 3241.66 548.433 3241.66 548.433H1766.73C1717.92 548.433 1678.34 588.007 1678.34 636.825Z" fill="#F1F3F4"/>
<path d="M1862.53 661.797V630.297H1857.43V625.235H1862.53V620.735C1862.53 618.391 1862.89 616.458 1863.62 614.934C1864.37 613.387 1865.48 612.239 1866.96 611.489C1868.44 610.739 1870.3 610.364 1872.55 610.364C1873.23 610.364 1873.91 610.387 1874.59 610.434C1875.27 610.481 1875.83 610.54 1876.28 610.61V615.567C1875.9 615.52 1875.48 615.485 1875.01 615.461C1874.57 615.438 1874.11 615.426 1873.64 615.426C1871.95 615.426 1870.69 615.872 1869.84 616.762C1869 617.629 1868.58 618.965 1868.58 620.77V625.235H1876.1V630.297H1868.65V661.797H1862.53ZM1883.11 661.797V611.067H1889.22V661.797H1883.11ZM1898.23 661.797V625.235H1904.35V661.797H1898.23ZM1901.29 619.047C1900.24 619.047 1899.33 618.672 1898.58 617.922C1897.83 617.172 1897.46 616.27 1897.46 615.215C1897.46 614.137 1897.83 613.235 1898.58 612.508C1899.33 611.758 1900.24 611.383 1901.29 611.383C1902.37 611.383 1903.27 611.758 1904 612.508C1904.75 613.235 1905.12 614.137 1905.12 615.215C1905.12 616.27 1904.75 617.172 1904 617.922C1903.27 618.672 1902.37 619.047 1901.29 619.047ZM1913.04 674.102V625.235H1919.16V631.422H1919.3C1920.07 629.993 1921.02 628.774 1922.15 627.766C1923.29 626.735 1924.61 625.938 1926.08 625.375C1927.56 624.813 1929.17 624.532 1930.9 624.532C1934.02 624.532 1936.74 625.317 1939.06 626.887C1941.4 628.434 1943.22 630.637 1944.51 633.497C1945.79 636.333 1946.44 639.672 1946.44 643.516V643.551C1946.44 647.395 1945.78 650.735 1944.47 653.571C1943.18 656.407 1941.38 658.61 1939.06 660.18C1936.76 661.727 1934.08 662.5 1931.01 662.5C1929.29 662.5 1927.69 662.231 1926.19 661.692C1924.69 661.129 1923.35 660.344 1922.18 659.336C1921.03 658.305 1920.07 657.086 1919.3 655.68H1919.16V674.102H1913.04ZM1929.71 657.086C1931.86 657.086 1933.72 656.536 1935.29 655.434C1936.87 654.333 1938.07 652.774 1938.92 650.758C1939.76 648.719 1940.18 646.317 1940.18 643.551V643.516C1940.18 640.704 1939.76 638.29 1938.92 636.274C1938.07 634.235 1936.87 632.676 1935.29 631.598C1933.72 630.497 1931.86 629.946 1929.71 629.946C1927.64 629.946 1925.81 630.508 1924.22 631.633C1922.63 632.758 1921.37 634.34 1920.46 636.379C1919.57 638.395 1919.12 640.774 1919.12 643.516V643.551C1919.12 646.27 1919.58 648.649 1920.49 650.688C1921.41 652.704 1922.65 654.274 1924.22 655.399C1925.81 656.524 1927.64 657.086 1929.71 657.086ZM1954.64 662.29C1953.51 662.29 1952.57 661.903 1951.79 661.129C1951.02 660.356 1950.63 659.407 1950.63 658.282C1950.63 657.157 1951.02 656.208 1951.79 655.434C1952.57 654.661 1953.51 654.274 1954.64 654.274C1955.76 654.274 1956.71 654.661 1957.49 655.434C1958.26 656.208 1958.65 657.157 1958.65 658.282C1958.65 659.407 1958.26 660.356 1957.49 661.129C1956.71 661.903 1955.76 662.29 1954.64 662.29ZM1979.68 662.5C1976.82 662.5 1974.35 662.043 1972.26 661.129C1970.18 660.215 1968.52 658.938 1967.3 657.297C1966.11 655.657 1965.38 653.747 1965.12 651.567L1965.09 651.25H1971.21L1971.28 651.602C1971.65 653.43 1972.53 654.86 1973.91 655.891C1975.3 656.899 1977.23 657.403 1979.71 657.403C1981.38 657.403 1982.8 657.192 1983.97 656.77C1985.14 656.325 1986.04 655.704 1986.68 654.907C1987.31 654.086 1987.62 653.125 1987.62 652.024V651.989C1987.62 650.676 1987.23 649.622 1986.43 648.825C1985.63 648.028 1984.19 647.372 1982.1 646.856L1976.3 645.45C1974.01 644.887 1972.1 644.161 1970.57 643.27C1969.07 642.356 1967.95 641.243 1967.2 639.93C1966.45 638.618 1966.07 637.083 1966.07 635.325V635.29C1966.07 633.18 1966.64 631.317 1967.76 629.7C1968.91 628.083 1970.49 626.817 1972.51 625.903C1974.55 624.989 1976.88 624.532 1979.5 624.532C1982.18 624.532 1984.5 625.012 1986.46 625.973C1988.46 626.911 1990.01 628.2 1991.14 629.84C1992.29 631.458 1992.93 633.286 1993.07 635.325L1993.11 635.782H1987.27L1987.24 635.536C1987 633.754 1986.22 632.325 1984.88 631.247C1983.57 630.168 1981.78 629.629 1979.5 629.629C1978.03 629.629 1976.75 629.852 1975.67 630.297C1974.59 630.743 1973.76 631.375 1973.18 632.196C1972.61 632.993 1972.33 633.93 1972.33 635.008V635.043C1972.33 635.864 1972.52 636.614 1972.89 637.293C1973.29 637.95 1973.91 638.524 1974.76 639.016C1975.6 639.508 1976.69 639.918 1978.03 640.247L1983.83 641.653C1987.53 642.543 1990.13 643.774 1991.63 645.344C1993.13 646.891 1993.88 648.965 1993.88 651.567V651.602C1993.88 653.735 1993.26 655.622 1992.02 657.262C1990.8 658.903 1989.11 660.192 1986.96 661.129C1984.82 662.043 1982.4 662.5 1979.68 662.5ZM2000.61 674.102V625.235H2006.72V631.422H2006.86C2007.64 629.993 2008.59 628.774 2009.71 627.766C2010.86 626.735 2012.17 625.938 2013.65 625.375C2015.12 624.813 2016.73 624.532 2018.46 624.532C2021.58 624.532 2024.3 625.317 2026.62 626.887C2028.96 628.434 2030.78 630.637 2032.07 633.497C2033.36 636.333 2034 639.672 2034 643.516V643.551C2034 647.395 2033.35 650.735 2032.04 653.571C2030.75 656.407 2028.94 658.61 2026.62 660.18C2024.32 661.727 2021.64 662.5 2018.57 662.5C2016.86 662.5 2015.25 662.231 2013.75 661.692C2012.25 661.129 2010.92 660.344 2009.75 659.336C2008.6 658.305 2007.64 657.086 2006.86 655.68H2006.72V674.102H2000.61ZM2017.27 657.086C2019.43 657.086 2021.29 656.536 2022.86 655.434C2024.43 654.333 2025.64 652.774 2026.48 650.758C2027.32 648.719 2027.75 646.317 2027.75 643.551V643.516C2027.75 640.704 2027.32 638.29 2026.48 636.274C2025.64 634.235 2024.43 632.676 2022.86 631.598C2021.29 630.497 2019.43 629.946 2017.27 629.946C2015.21 629.946 2013.38 630.508 2011.79 631.633C2010.19 632.758 2008.94 634.34 2008.02 636.379C2007.13 638.395 2006.69 640.774 2006.69 643.516V643.551C2006.69 646.27 2007.14 648.649 2008.06 650.688C2008.97 652.704 2010.21 654.274 2011.79 655.399C2013.38 656.524 2015.21 657.086 2017.27 657.086ZM2051.24 662.5C2048.82 662.5 2046.7 662.043 2044.88 661.129C2043.05 660.215 2041.62 658.926 2040.59 657.262C2039.58 655.598 2039.07 653.665 2039.07 651.461V651.391C2039.07 649.305 2039.59 647.5 2040.62 645.977C2041.68 644.454 2043.19 643.247 2045.16 642.356C2047.15 641.465 2049.54 640.938 2052.33 640.774L2065.86 640V644.747L2053.03 645.52C2050.59 645.661 2048.7 646.247 2047.34 647.278C2046 648.309 2045.33 649.68 2045.33 651.391V651.461C2045.33 653.219 2045.99 654.614 2047.3 655.645C2048.64 656.676 2050.41 657.192 2052.61 657.192C2054.53 657.192 2056.25 656.793 2057.78 655.997C2059.32 655.176 2060.54 654.063 2061.43 652.657C2062.35 651.25 2062.81 649.668 2062.81 647.911V637.118C2062.81 634.891 2062.1 633.145 2060.7 631.879C2059.31 630.59 2057.34 629.946 2054.79 629.946C2052.45 629.946 2050.55 630.461 2049.09 631.493C2047.66 632.5 2046.77 633.825 2046.42 635.465L2046.35 635.782H2040.45L2040.48 635.395C2040.67 633.379 2041.35 631.551 2042.52 629.911C2043.72 628.27 2045.36 626.969 2047.44 626.008C2049.53 625.024 2052 624.532 2054.86 624.532C2057.74 624.532 2060.23 625.024 2062.31 626.008C2064.42 626.993 2066.05 628.387 2067.2 630.192C2068.35 631.973 2068.92 634.083 2068.92 636.52V661.797H2062.81V655.856H2062.66C2061.96 657.192 2061.02 658.364 2059.85 659.372C2058.68 660.356 2057.36 661.129 2055.88 661.692C2054.43 662.231 2052.88 662.5 2051.24 662.5ZM2092.2 662.5C2088.76 662.5 2085.76 661.727 2083.2 660.18C2080.67 658.61 2078.72 656.407 2077.33 653.571C2075.95 650.711 2075.26 647.348 2075.26 643.481V643.446C2075.26 639.602 2075.96 636.262 2077.37 633.426C2078.77 630.59 2080.74 628.399 2083.27 626.852C2085.81 625.305 2088.76 624.532 2092.13 624.532C2095.18 624.532 2097.79 625.129 2099.97 626.325C2102.15 627.497 2103.86 629.02 2105.11 630.895C2106.37 632.77 2107.13 634.75 2107.39 636.836L2107.43 637.118H2101.45L2101.38 636.836C2100.93 635.008 2099.95 633.403 2098.43 632.02C2096.93 630.637 2094.83 629.946 2092.13 629.946C2090.02 629.946 2088.17 630.508 2086.58 631.633C2084.99 632.735 2083.74 634.305 2082.85 636.344C2081.96 638.36 2081.52 640.75 2081.52 643.516V643.551C2081.52 646.387 2081.96 648.813 2082.85 650.829C2083.77 652.844 2085.02 654.391 2086.61 655.469C2088.23 656.547 2090.09 657.086 2092.2 657.086C2094.71 657.086 2096.74 656.454 2098.29 655.188C2099.86 653.899 2100.9 652.235 2101.42 650.196L2101.49 649.915H2107.5L2107.46 650.161C2107.13 652.481 2106.28 654.579 2104.9 656.454C2103.54 658.305 2101.77 659.782 2099.59 660.883C2097.43 661.961 2094.97 662.5 2092.2 662.5ZM2128.53 662.5C2125.04 662.5 2122.03 661.727 2119.49 660.18C2116.99 658.633 2115.05 656.454 2113.69 653.641C2112.36 650.805 2111.69 647.477 2111.69 643.657V643.622C2111.69 639.848 2112.37 636.532 2113.73 633.672C2115.09 630.79 2117 628.551 2119.46 626.958C2121.92 625.34 2124.81 624.532 2128.14 624.532C2131.47 624.532 2134.33 625.305 2136.72 626.852C2139.13 628.375 2140.99 630.52 2142.28 633.286C2143.56 636.051 2144.21 639.262 2144.21 642.918V645.168H2114.75V640.387H2141.19L2138.09 644.817V642.461C2138.09 639.625 2137.66 637.282 2136.79 635.43C2135.95 633.579 2134.78 632.208 2133.28 631.317C2131.78 630.403 2130.05 629.946 2128.11 629.946C2126.16 629.946 2124.42 630.426 2122.87 631.387C2121.32 632.325 2120.1 633.731 2119.21 635.606C2118.32 637.458 2117.88 639.743 2117.88 642.461V644.817C2117.88 647.395 2118.31 649.598 2119.18 651.426C2120.07 653.254 2121.32 654.661 2122.94 655.645C2124.56 656.606 2126.47 657.086 2128.67 657.086C2130.22 657.086 2131.6 656.852 2132.82 656.383C2134.04 655.915 2135.06 655.27 2135.88 654.45C2136.7 653.629 2137.28 652.692 2137.63 651.637L2137.74 651.321H2143.75L2143.68 651.672C2143.38 653.172 2142.79 654.579 2141.92 655.891C2141.08 657.204 2139.99 658.364 2138.65 659.372C2137.32 660.356 2135.79 661.129 2134.08 661.692C2132.37 662.231 2130.52 662.5 2128.53 662.5Z" fill="#3C4043"/>
<path d="M1755.56 604.278C1753.45 604.278 1750.06 605.186 1747.2 608.06C1744.38 610.891 1741.9 615.82 1741.9 624.195H1737.65C1737.65 614.937 1740.43 608.846 1744.19 605.064C1747.9 601.327 1752.41 600.03 1755.56 600.03V604.278ZM1755.56 600.03C1758.71 600.03 1763.22 601.326 1766.93 605.064C1770.7 608.846 1773.47 614.937 1773.47 624.195H1769.22C1769.22 615.82 1766.74 610.891 1763.92 608.06C1761.06 605.186 1757.67 604.278 1755.56 604.278V600.03Z" fill="#5F6368"/>
<rect x="1730.31" y="624.195" width="50.512" height="44.1961" rx="4.24768" fill="#5F6368"/>
<path d="M1408.29 523.038C1409.33 523.131 1410.39 523.179 1411.45 523.179H1408.29V523.038ZM2927.56 308.509C2946.32 308.509 2961.54 323.723 2961.54 342.491V460.042H2961.54V488.454C2961.54 507.632 2977.09 523.179 2996.27 523.179H2854.2V523.176H1553.52V523.179H1411.45C1430.58 523.179 1446.1 507.712 1446.18 488.603V342.491C1446.18 323.723 1461.39 308.509 1480.16 308.509H2927.56ZM2999.42 523.179H2996.27C2997.33 523.179 2998.38 523.131 2999.42 523.038V523.179Z" fill="#35363A"/>
<mask id="mask0_13_2" style="mask-type:alpha" maskUnits="userSpaceOnUse" x="1661" y="365" width="1112" height="102">
<rect x="1661" y="365" width="1111.27" height="101.02" fill="#C4C4C4"/>
</mask>
<g mask="url(#mask0_13_2)">
<path d="M1684.86 440.315V389.584H1715.66V395.28H1691.19V412.717H1713.66V418.342H1691.19V440.315H1684.86ZM1722.99 440.315V389.584H1729.11V440.315H1722.99ZM1738.48 440.315V403.752H1744.59V440.315H1738.48ZM1741.53 397.565C1740.48 397.565 1739.58 397.19 1738.83 396.44C1738.08 395.69 1737.7 394.787 1737.7 393.733C1737.7 392.655 1738.08 391.752 1738.83 391.026C1739.58 390.276 1740.48 389.901 1741.53 389.901C1742.61 389.901 1743.52 390.276 1744.24 391.026C1744.99 391.752 1745.37 392.655 1745.37 393.733C1745.37 394.787 1744.99 395.69 1744.24 396.44C1743.52 397.19 1742.61 397.565 1741.53 397.565ZM1753.65 452.619V403.752H1759.76V409.94H1759.9C1760.68 408.51 1761.63 407.291 1762.75 406.283C1763.9 405.252 1765.21 404.455 1766.69 403.893C1768.16 403.33 1769.77 403.049 1771.5 403.049C1774.62 403.049 1777.34 403.834 1779.66 405.405C1782 406.951 1783.82 409.155 1785.11 412.014C1786.4 414.85 1787.04 418.19 1787.04 422.033V422.069C1787.04 425.912 1786.39 429.252 1785.08 432.088C1783.79 434.924 1781.98 437.127 1779.66 438.698C1777.36 440.244 1774.68 441.018 1771.61 441.018C1769.9 441.018 1768.29 440.748 1766.79 440.209C1765.29 439.647 1763.96 438.862 1762.79 437.854C1761.64 436.823 1760.68 435.604 1759.9 434.198H1759.76V452.619H1753.65ZM1770.31 435.604C1772.47 435.604 1774.33 435.053 1775.9 433.951C1777.47 432.85 1778.68 431.291 1779.52 429.276C1780.36 427.237 1780.79 424.834 1780.79 422.069V422.033C1780.79 419.221 1780.36 416.807 1779.52 414.791C1778.68 412.752 1777.47 411.194 1775.9 410.115C1774.33 409.014 1772.47 408.463 1770.31 408.463C1768.25 408.463 1766.42 409.026 1764.83 410.151C1763.23 411.276 1761.98 412.858 1761.06 414.897C1760.17 416.912 1759.73 419.291 1759.73 422.033V422.069C1759.73 424.787 1760.18 427.166 1761.1 429.205C1762.01 431.221 1763.25 432.791 1764.83 433.916C1766.42 435.041 1768.25 435.604 1770.31 435.604ZM1809.65 422.596V416.901H1832.15V422.596H1809.65ZM1860.62 422.209V416.584H1873.91C1877.54 416.584 1880.36 415.647 1882.35 413.772C1884.34 411.873 1885.34 409.26 1885.34 405.932V405.862C1885.34 402.51 1884.34 399.897 1882.35 398.022C1880.36 396.147 1877.54 395.209 1873.91 395.209H1860.62V389.584H1875.53C1878.72 389.584 1881.53 390.264 1883.97 391.623C1886.4 392.983 1888.31 394.881 1889.7 397.319C1891.1 399.756 1891.81 402.58 1891.81 405.791V405.862C1891.81 409.073 1891.1 411.908 1889.7 414.369C1888.31 416.83 1886.4 418.752 1883.97 420.135C1881.53 421.518 1878.72 422.209 1875.53 422.209H1860.62ZM1857.46 440.315V389.584H1863.79V440.315H1857.46ZM1898.85 440.315V403.752H1904.97V409.94H1905.11C1905.72 407.83 1906.78 406.155 1908.28 404.912C1909.78 403.67 1911.56 403.049 1913.62 403.049C1914.16 403.049 1914.64 403.084 1915.06 403.155C1915.51 403.201 1915.85 403.248 1916.08 403.295V409.237C1915.85 409.143 1915.43 409.061 1914.82 408.99C1914.23 408.92 1913.56 408.885 1912.81 408.885C1911.24 408.885 1909.86 409.237 1908.66 409.94C1907.49 410.643 1906.58 411.662 1905.92 412.998C1905.29 414.311 1904.97 415.893 1904.97 417.744V440.315H1898.85ZM1922.18 440.315V403.752H1928.3V440.315H1922.18ZM1925.24 397.565C1924.18 397.565 1923.28 397.19 1922.53 396.44C1921.78 395.69 1921.41 394.787 1921.41 393.733C1921.41 392.655 1921.78 391.752 1922.53 391.026C1923.28 390.276 1924.18 389.901 1925.24 389.901C1926.32 389.901 1927.22 390.276 1927.95 391.026C1928.7 391.752 1929.07 392.655 1929.07 393.733C1929.07 394.787 1928.7 395.69 1927.95 396.44C1927.22 397.19 1926.32 397.565 1925.24 397.565ZM1952.5 441.018C1949.13 441.018 1946.16 440.244 1943.61 438.698C1941.08 437.151 1939.1 434.959 1937.67 432.123C1936.26 429.264 1935.56 425.901 1935.56 422.033V421.963C1935.56 418.073 1936.26 414.721 1937.67 411.908C1939.1 409.073 1941.08 406.893 1943.61 405.369C1946.16 403.823 1949.12 403.049 1952.47 403.049C1955.84 403.049 1958.79 403.823 1961.33 405.369C1963.88 406.893 1965.86 409.073 1967.27 411.908C1968.7 414.721 1969.41 418.073 1969.41 421.963V422.033C1969.41 425.924 1968.7 429.287 1967.27 432.123C1965.86 434.959 1963.89 437.151 1961.36 438.698C1958.83 440.244 1955.88 441.018 1952.5 441.018ZM1952.54 435.604C1954.69 435.604 1956.56 435.076 1958.13 434.022C1959.72 432.944 1960.95 431.397 1961.82 429.381C1962.71 427.342 1963.15 424.893 1963.15 422.033V421.963C1963.15 419.104 1962.71 416.666 1961.82 414.651C1960.95 412.635 1959.71 411.1 1958.09 410.045C1956.5 408.99 1954.62 408.463 1952.47 408.463C1950.36 408.463 1948.49 409.002 1946.88 410.08C1945.28 411.135 1944.04 412.67 1943.15 414.686C1942.26 416.678 1941.81 419.104 1941.81 421.963V422.033C1941.81 424.893 1942.26 427.342 1943.15 429.381C1944.04 431.397 1945.28 432.944 1946.88 434.022C1948.49 435.076 1950.38 435.604 1952.54 435.604ZM1976.32 440.315V403.752H1982.44V409.94H1982.58C1983.19 407.83 1984.24 406.155 1985.74 404.912C1987.24 403.67 1989.02 403.049 1991.09 403.049C1991.62 403.049 1992.1 403.084 1992.53 403.155C1992.97 403.201 1993.31 403.248 1993.55 403.295V409.237C1993.31 409.143 1992.89 409.061 1992.28 408.99C1991.69 408.92 1991.03 408.885 1990.28 408.885C1988.71 408.885 1987.32 409.237 1986.13 409.94C1984.96 410.643 1984.04 411.662 1983.39 412.998C1982.75 414.311 1982.44 415.893 1982.44 417.744V440.315H1976.32ZM1999.64 440.315V403.752H2005.76V440.315H1999.64ZM2002.7 397.565C2001.65 397.565 2000.75 397.19 2000 396.44C1999.25 395.69 1998.87 394.787 1998.87 393.733C1998.87 392.655 1999.25 391.752 2000 391.026C2000.75 390.276 2001.65 389.901 2002.7 389.901C2003.78 389.901 2004.68 390.276 2005.41 391.026C2006.16 391.752 2006.54 392.655 2006.54 393.733C2006.54 394.787 2006.16 395.69 2005.41 396.44C2004.68 397.19 2003.78 397.565 2002.7 397.565ZM2026.7 441.018C2023.35 441.018 2020.84 440.221 2019.17 438.627C2017.51 437.033 2016.68 434.49 2016.68 430.998V408.815H2011.33V403.752H2016.68V393.873H2023.01V403.752H2029.97V408.815H2023.01V430.963C2023.01 432.908 2023.43 434.233 2024.27 434.936C2025.11 435.615 2026.36 435.955 2028 435.955C2028.37 435.955 2028.72 435.944 2029.05 435.92C2029.4 435.873 2029.71 435.838 2029.97 435.815V440.772C2029.59 440.819 2029.1 440.865 2028.49 440.912C2027.9 440.983 2027.31 441.018 2026.7 441.018ZM2037.65 440.315V403.752H2043.76V440.315H2037.65ZM2040.71 397.565C2039.65 397.565 2038.75 397.19 2038 396.44C2037.25 395.69 2036.87 394.787 2036.87 393.733C2036.87 392.655 2037.25 391.752 2038 391.026C2038.75 390.276 2039.65 389.901 2040.71 389.901C2041.78 389.901 2042.69 390.276 2043.41 391.026C2044.16 391.752 2044.54 392.655 2044.54 393.733C2044.54 394.787 2044.16 395.69 2043.41 396.44C2042.69 397.19 2041.78 397.565 2040.71 397.565ZM2052.04 440.315V435.955L2072.26 408.92V408.815H2052.08V403.752H2079.22V408.217L2059.14 435.147V435.252H2079.32V440.315H2052.04ZM2100.86 441.018C2097.36 441.018 2094.35 440.244 2091.82 438.698C2089.31 437.151 2087.38 434.971 2086.02 432.158C2084.69 429.323 2084.02 425.994 2084.02 422.174V422.139C2084.02 418.365 2084.7 415.049 2086.06 412.19C2087.42 409.307 2089.33 407.069 2091.79 405.475C2094.25 403.858 2097.14 403.049 2100.47 403.049C2103.8 403.049 2106.66 403.823 2109.05 405.369C2111.46 406.893 2113.31 409.037 2114.6 411.803C2115.89 414.569 2116.54 417.78 2116.54 421.436V423.686H2087.08V418.905H2113.51L2110.42 423.334V420.979C2110.42 418.143 2109.99 415.799 2109.12 413.948C2108.27 412.096 2107.1 410.725 2105.6 409.834C2104.1 408.92 2102.38 408.463 2100.44 408.463C2098.49 408.463 2096.74 408.944 2095.2 409.905C2093.65 410.842 2092.43 412.248 2091.54 414.123C2090.65 415.975 2090.2 418.26 2090.2 420.979V423.334C2090.2 425.912 2090.64 428.115 2091.51 429.944C2092.4 431.772 2093.65 433.178 2095.27 434.162C2096.88 435.123 2098.79 435.604 2101 435.604C2102.54 435.604 2103.93 435.369 2105.15 434.901C2106.36 434.432 2107.38 433.787 2108.2 432.967C2109.02 432.147 2109.61 431.209 2109.96 430.155L2110.07 429.838H2116.08L2116.01 430.19C2115.7 431.69 2115.12 433.096 2114.25 434.408C2113.41 435.721 2112.32 436.881 2110.98 437.889C2109.65 438.873 2108.12 439.647 2106.41 440.209C2104.7 440.748 2102.85 441.018 2100.86 441.018ZM2142.45 452.619C2141.86 452.619 2141.26 452.584 2140.65 452.514C2140.07 452.467 2139.57 452.408 2139.18 452.338V447.346C2139.43 447.393 2139.73 447.44 2140.05 447.487C2140.41 447.533 2140.77 447.557 2141.14 447.557C2143.09 447.557 2144.64 447.217 2145.79 446.537C2146.96 445.858 2147.91 444.487 2148.63 442.424L2149.37 440.35L2135.8 403.752H2142.34L2152.89 435.604L2151.59 434.198H2153.41L2152.11 435.604L2162.7 403.752H2169.13L2154.86 442.6C2153.99 444.92 2153.02 446.819 2151.94 448.295C2150.86 449.772 2149.56 450.862 2148.04 451.565C2146.51 452.268 2144.65 452.619 2142.45 452.619ZM2188.41 441.018C2185.04 441.018 2182.07 440.244 2179.52 438.698C2176.99 437.151 2175.01 434.959 2173.58 432.123C2172.17 429.264 2171.47 425.901 2171.47 422.033V421.963C2171.47 418.073 2172.17 414.721 2173.58 411.908C2175.01 409.073 2176.99 406.893 2179.52 405.369C2182.07 403.823 2185.02 403.049 2188.38 403.049C2191.75 403.049 2194.7 403.823 2197.24 405.369C2199.79 406.893 2201.77 409.073 2203.18 411.908C2204.61 414.721 2205.32 418.073 2205.32 421.963V422.033C2205.32 425.924 2204.61 429.287 2203.18 432.123C2201.77 434.959 2199.8 437.151 2197.27 438.698C2194.74 440.244 2191.79 441.018 2188.41 441.018ZM2188.45 435.604C2190.6 435.604 2192.47 435.076 2194.04 434.022C2195.63 432.944 2196.86 431.397 2197.73 429.381C2198.62 427.342 2199.06 424.893 2199.06 422.033V421.963C2199.06 419.104 2198.62 416.666 2197.73 414.651C2196.86 412.635 2195.62 411.1 2194 410.045C2192.41 408.99 2190.53 408.463 2188.38 408.463C2186.27 408.463 2184.4 409.002 2182.79 410.08C2181.19 411.135 2179.95 412.67 2179.06 414.686C2178.17 416.678 2177.72 419.104 2177.72 421.963V422.033C2177.72 424.893 2178.17 427.342 2179.06 429.381C2179.95 431.397 2181.19 432.944 2182.79 434.022C2184.4 435.076 2186.29 435.604 2188.45 435.604ZM2224.71 441.018C2222.04 441.018 2219.75 440.467 2217.85 439.365C2215.98 438.264 2214.54 436.705 2213.53 434.69C2212.55 432.651 2212.05 430.248 2212.05 427.483V403.752H2218.17V426.393C2218.17 429.369 2218.86 431.655 2220.24 433.248C2221.65 434.819 2223.76 435.604 2226.57 435.604C2228.03 435.604 2229.33 435.358 2230.48 434.865C2231.65 434.373 2232.65 433.682 2233.5 432.791C2234.34 431.877 2234.99 430.787 2235.43 429.522C2235.88 428.233 2236.1 426.815 2236.1 425.268V403.752H2242.22V440.315H2236.1V435.112H2235.96C2235.3 436.237 2234.45 437.244 2233.39 438.135C2232.36 439.026 2231.12 439.729 2229.67 440.244C2228.21 440.76 2226.56 441.018 2224.71 441.018ZM2250.92 440.315V403.752H2257.04V409.94H2257.18C2257.79 407.83 2258.84 406.155 2260.34 404.912C2261.84 403.67 2263.62 403.049 2265.68 403.049C2266.22 403.049 2266.7 403.084 2267.12 403.155C2267.57 403.201 2267.91 403.248 2268.14 403.295V409.237C2267.91 409.143 2267.49 409.061 2266.88 408.99C2266.29 408.92 2265.62 408.885 2264.87 408.885C2263.3 408.885 2261.92 409.237 2260.73 409.94C2259.55 410.643 2258.64 411.662 2257.98 412.998C2257.35 414.311 2257.04 415.893 2257.04 417.744V440.315H2250.92ZM2289.73 440.315V403.752H2295.85V440.315H2289.73ZM2292.79 397.565C2291.73 397.565 2290.83 397.19 2290.08 396.44C2289.33 395.69 2288.96 394.787 2288.96 393.733C2288.96 392.655 2289.33 391.752 2290.08 391.026C2290.83 390.276 2291.73 389.901 2292.79 389.901C2293.87 389.901 2294.77 390.276 2295.49 391.026C2296.24 391.752 2296.62 392.655 2296.62 393.733C2296.62 394.787 2296.24 395.69 2295.49 396.44C2294.77 397.19 2293.87 397.565 2292.79 397.565ZM2304.9 440.315V403.752H2311.02V408.955H2311.16C2312.14 407.244 2313.57 405.838 2315.45 404.737C2317.32 403.612 2319.64 403.049 2322.41 403.049C2326.41 403.049 2329.52 404.268 2331.72 406.705C2333.95 409.119 2335.06 412.412 2335.06 416.584V440.315H2328.95V417.674C2328.95 414.698 2328.24 412.424 2326.84 410.854C2325.45 409.26 2323.36 408.463 2320.54 408.463C2318.62 408.463 2316.95 408.897 2315.52 409.764C2314.09 410.608 2312.97 411.803 2312.18 413.35C2311.4 414.897 2311.02 416.713 2311.02 418.799V440.315H2304.9ZM2361.76 441.018C2360.03 441.018 2358.42 440.737 2356.95 440.174C2355.47 439.612 2354.16 438.826 2353.01 437.819C2351.88 436.787 2350.93 435.557 2350.16 434.127H2350.02V440.315H2343.9V389.584H2350.02V409.869H2350.16C2350.93 408.463 2351.9 407.256 2353.04 406.248C2354.22 405.217 2355.55 404.432 2357.05 403.893C2358.55 403.33 2360.16 403.049 2361.87 403.049C2364.94 403.049 2367.62 403.834 2369.92 405.405C2372.24 406.951 2374.04 409.143 2375.33 411.979C2376.65 414.815 2377.3 418.155 2377.3 421.998V422.033C2377.3 425.877 2376.66 429.229 2375.37 432.088C2374.08 434.924 2372.26 437.127 2369.92 438.698C2367.6 440.244 2364.88 441.018 2361.76 441.018ZM2360.57 435.604C2362.72 435.604 2364.59 435.065 2366.16 433.987C2367.73 432.885 2368.93 431.315 2369.78 429.276C2370.62 427.237 2371.04 424.823 2371.04 422.033V421.998C2371.04 419.209 2370.62 416.807 2369.78 414.791C2368.93 412.776 2367.73 411.217 2366.16 410.115C2364.59 409.014 2362.72 408.463 2360.57 408.463C2358.5 408.463 2356.68 409.026 2355.08 410.151C2353.51 411.276 2352.27 412.858 2351.36 414.897C2350.44 416.912 2349.99 419.28 2349.99 421.998V422.033C2349.99 424.752 2350.43 427.131 2351.32 429.17C2352.24 431.209 2353.49 432.791 2355.08 433.916C2356.68 435.041 2358.5 435.604 2360.57 435.604ZM2399.33 441.018C2395.95 441.018 2392.99 440.244 2390.43 438.698C2387.9 437.151 2385.92 434.959 2384.49 432.123C2383.08 429.264 2382.38 425.901 2382.38 422.033V421.963C2382.38 418.073 2383.08 414.721 2384.49 411.908C2385.92 409.073 2387.9 406.893 2390.43 405.369C2392.99 403.823 2395.94 403.049 2399.29 403.049C2402.67 403.049 2405.62 403.823 2408.15 405.369C2410.71 406.893 2412.69 409.073 2414.09 411.908C2415.52 414.721 2416.24 418.073 2416.24 421.963V422.033C2416.24 425.924 2415.52 429.287 2414.09 432.123C2412.69 434.959 2410.72 437.151 2408.19 438.698C2405.65 440.244 2402.7 441.018 2399.33 441.018ZM2399.36 435.604C2401.52 435.604 2403.38 435.076 2404.95 434.022C2406.55 432.944 2407.78 431.397 2408.64 429.381C2409.53 427.342 2409.98 424.893 2409.98 422.033V421.963C2409.98 419.104 2409.53 416.666 2408.64 414.651C2407.78 412.635 2406.53 411.1 2404.92 410.045C2403.32 408.99 2401.45 408.463 2399.29 408.463C2397.18 408.463 2395.32 409.002 2393.7 410.08C2392.11 411.135 2390.87 412.67 2389.97 414.686C2389.08 416.678 2388.64 419.104 2388.64 421.963V422.033C2388.64 424.893 2389.08 427.342 2389.97 429.381C2390.87 431.397 2392.11 432.944 2393.7 434.022C2395.32 435.076 2397.21 435.604 2399.36 435.604ZM2417.84 440.315L2430.28 422.033L2418.05 403.752H2424.87L2433.66 417.463H2433.8L2442.48 403.752H2449.3L2436.96 421.787L2449.12 440.315H2442.34L2433.59 426.393H2433.44L2424.62 440.315H2417.84Z" fill="#DEE1E6"/>
</g>
<path d="M1326.21 353.706C1346.58 353.706 1363.1 370.219 1363.1 390.589C1363.1 410.958 1346.58 427.471 1326.21 427.471C1305.84 427.471 1289.33 410.958 1289.33 390.589C1289.33 370.219 1305.84 353.706 1326.21 353.706Z" fill="#00D641" stroke="#12B829" stroke-width="2"/>
<path d="M1199.93 353.706C1220.3 353.706 1236.82 370.219 1236.82 390.589C1236.82 410.958 1220.3 427.471 1199.93 427.471C1179.56 427.471 1163.05 410.958 1163.05 390.589C1163.05 370.219 1179.56 353.706 1199.93 353.706Z" fill="#FFBD00" stroke="#E79F13" stroke-width="2"/>
<path d="M1073.65 353.707C1094.02 353.707 1110.54 370.22 1110.54 390.59C1110.54 410.959 1094.02 427.471 1073.65 427.471C1053.28 427.471 1036.77 410.959 1036.77 390.59C1036.77 370.22 1053.28 353.707 1073.65 353.707Z" fill="#FF3B47" stroke="#EF1320" stroke-width="2"/>
<path d="M1632.66 411.555C1638.35 411.555 1643 407.429 1643 401.75V393.225C1643 387.539 1638.34 383.333 1632.66 383.333H1597.49C1591.8 383.333 1586.5 378.242 1586.5 372.563V365.331C1586.5 359.646 1582.49 355 1576.81 355H1540.34C1534.66 354.993 1530 359.646 1530 365.324V373.849C1530 379.535 1534.66 383.333 1540.34 383.333H1575.51C1581.2 383.333 1586.5 388.833 1586.5 394.511V400.45C1586.5 406.135 1581.19 411.555 1575.51 411.555H1540.34C1534.65 411.555 1530 415.433 1530 421.112V429.637C1530 435.322 1534.66 439.778 1540.34 439.778H1557.92H1575.51C1581.2 439.778 1586.5 444.62 1586.5 450.299V457.531C1586.5 463.216 1590.51 468 1596.19 468H1632.65C1638.34 468 1642.99 463.209 1642.99 457.531V449.006C1642.99 443.32 1638.34 439.778 1632.65 439.778H1597.48C1591.79 439.778 1586.5 434.022 1586.5 428.344V425.374V422.405C1586.5 416.72 1591.8 411.555 1597.48 411.555H1632.65H1632.66Z" fill="white"/>
</g>
<defs>
<filter id="filter0_i_13_2" x="960" y="750" width="1700" height="368" filterUnits="userSpaceOnUse" color-interpolation-filters="sRGB">
<feFlood flood-opacity="0" result="BackgroundImageFix"/>
<feBlend mode="normal" in="SourceGraphic" in2="BackgroundImageFix" result="shape"/>
<feColorMatrix in="SourceAlpha" type="matrix" values="0 0 0 0 0 0 0 0 0 0 0 0 0 0 0 0 0 0 127 0" result="hardAlpha"/>
<feOffset dy="2"/>
<feComposite in2="hardAlpha" operator="arithmetic" k2="-1" k3="1"/>
<feColorMatrix type="matrix" values="0 0 0 0 0 0 0 0 0 0 0 0 0 0 0 0 0 0 0.15 0"/>
<feBlend mode="normal" in2="shape" result="effect1_innerShadow_13_2"/>
</filter>
<clipPath id="clip0_13_2">
<rect width="1920" height="1080" fill="white"/>
</clipPath>
</defs>
</svg>
