<svg width="1920" height="1080" viewBox="0 0 1920 1080" fill="none" xmlns="http://www.w3.org/2000/svg">
<g clip-path="url(#clip0_27_963)">
<rect width="1920" height="1080" fill="#0000FF"/>
<path d="M63.38 106.176V81.424L69.204 75.6H85.532L91.148 81.216V85.324H86.156V82.984L83.14 79.968H71.596L68.372 83.192V104.408L71.596 107.632H83.14L86.156 104.616V102.276H91.148V106.384L85.532 112H69.204L63.38 106.176ZM96.3309 107.008V91.096L101.323 86.104H115.155L120.095 91.096V107.008L115.155 112H101.323L96.3309 107.008ZM112.919 107.788L115.259 105.5V92.604L112.919 90.316H103.507L101.167 92.604V105.5L103.507 107.788H112.919ZM126.863 86.104H131.491V91.2L136.587 86.104H144.699L149.795 91.2V112H144.959V92.656L142.619 90.316H137.679L131.699 96.296V112H126.863V86.104ZM158.656 107.06V90.264H153.976V86.104H158.76V77.68H163.492V86.104H171.552V90.316H163.492V105.5L165.832 107.788H171.552V112H163.648L158.656 107.06ZM175.753 107.06V91.096L180.745 86.104H194.317L199.309 91.096V100.56H180.589V105.552L182.877 107.84H192.185L194.473 105.604V103.836H199.257V107.06L194.369 112H180.693L175.753 107.06ZM194.473 96.764V92.552L192.133 90.264H182.929L180.589 92.552V96.764H194.473ZM205.828 86.104H210.456V91.2L215.551 86.104H223.664L228.76 91.2V112H223.924V92.656L221.584 90.316H216.644L210.664 96.296V112H205.828V86.104ZM237.621 107.06V90.264H232.941V86.104H237.725V77.68H242.457V86.104H250.517V90.316H242.457V105.5L244.797 107.788H250.517V112H242.613L237.621 107.06ZM254.445 107.476V104.252H259.281V106.176L261.049 107.892H270.201L271.969 106.176V102.744L270.201 100.924H259.021L254.653 96.556V90.628L259.125 86.104H271.761L276.285 90.628V93.852H271.449V91.928L269.681 90.212H261.257L259.489 91.928V95.152L261.257 96.972H272.333L276.805 101.444V107.476L272.333 112H258.969L254.445 107.476Z" fill="white"/>
<path d="M60.92 206.2H62.888L68.288 219.208H68.336L73.736 206.2H75.728V223H74V209.728H73.952L69.032 221.32H67.592L62.696 209.728H62.648V223H60.92V206.2ZM79.0963 221.032V217.984L81.0643 216.04H87.4483V213.76L86.2483 212.584H82.1683L80.9683 213.76V214.744H79.1923V213.256L81.4003 211.048H86.9923L89.2003 213.256V223H87.4963V220.888L85.2883 223H81.0643L79.0963 221.032ZM84.9283 221.464L87.4483 219.04V217.576H81.8323L80.8723 218.512V220.528L81.8323 221.464H84.9283ZM92.675 211.048H94.403V213.184L96.539 211.048H99.635V212.632H96.995L94.451 215.176V223H92.675V211.048ZM101.909 205.864H103.685V215.992H106.493L109.997 211.048H111.965L107.933 216.808L112.205 223H110.237L106.493 217.576H103.685V223H101.909V205.864ZM113.646 220.792V213.256L115.854 211.048H121.878L124.11 213.256V217.552H115.422V220.24L116.622 221.416H121.11L122.31 220.24V219.328H124.086V220.792L121.878 223H115.854L113.646 220.792ZM122.334 216.016V213.808L121.134 212.632H116.622L115.422 213.808V216.016H122.334ZM128.419 220.792V212.608H126.259V211.048H128.467V207.16H130.195V211.048H133.939V212.608H130.195V220.24L131.395 221.44H133.939V223H130.627L128.419 220.792ZM60.92 237.2H62.744V252.392H71.288V254H60.92V237.2ZM73.0963 252.032V248.984L75.0643 247.04H81.4483V244.76L80.2483 243.584H76.1683L74.9683 244.76V245.744H73.1923V244.256L75.4003 242.048H80.9923L83.2003 244.256V254H81.4963V251.888L79.2883 254H75.0643L73.0963 252.032ZM78.9283 252.464L81.4483 250.04V248.576H75.8323L74.8723 249.512V251.528L75.8323 252.464H78.9283ZM86.675 242.048H88.403V244.592L90.947 242.048H94.619L96.827 244.256V254H95.051V244.808L93.851 243.632H91.427L88.451 246.608V254H86.675V242.048ZM100.076 251.792V244.256L102.284 242.048H106.892L108.86 243.776V236.864H110.636V254H108.908V251.816L106.724 254H102.284L100.076 251.792ZM106.34 252.416L108.86 249.896V245.648L106.556 243.632H103.052L101.852 244.808V251.24L103.052 252.416H106.34ZM113.638 252.032V250.544H115.414V251.528L116.374 252.464H120.79L121.75 251.528V249.68L120.79 248.72H115.63L113.734 246.824V244.016L115.702 242.048H121.318L123.286 244.016V245.504H121.51V244.52L120.55 243.584H116.47L115.51 244.52V246.272L116.47 247.232H121.558L123.526 249.2V252.032L121.558 254H115.605L113.638 252.032ZM126.279 251.792V244.256L128.487 242.048H134.247L136.455 244.256V245.72H134.679V244.808L133.479 243.632H129.255L128.055 244.808V251.24L129.255 252.416H133.479L134.679 251.24V250.328H136.455V251.792L134.247 254H128.487L126.279 251.792ZM138.979 252.032V248.984L140.947 247.04H147.331V244.76L146.131 243.584H142.051L140.851 244.76V245.744H139.075V244.256L141.283 242.048H146.875L149.083 244.256V254H147.379V251.888L145.171 254H140.947L138.979 252.032ZM144.811 252.464L147.331 250.04V248.576H141.715L140.755 249.512V251.528L141.715 252.464H144.811ZM152.558 242.048H154.286V244.184L156.422 242.048H160.91L163.118 244.256V251.792L160.91 254H156.302L154.334 252.272V259.088H152.558V242.048ZM160.142 252.416L161.342 251.24V244.808L160.142 243.632H156.902L154.334 246.2V250.328L156.638 252.416H160.142ZM166.24 251.792V244.256L168.448 242.048H174.472L176.704 244.256V248.552H168.016V251.24L169.216 252.416H173.704L174.904 251.24V250.328H176.68V251.792L174.472 254H168.448L166.24 251.792ZM174.928 247.016V244.808L173.728 243.632H169.216L168.016 244.808V247.016H174.928ZM60.92 299.2H62.744V306.808H66.656L71 299.2H72.968L68.192 307.576L73.328 316H71.312L66.68 308.44H62.744V316H60.92V299.2ZM75.0209 313.792V306.256L77.2289 304.048H83.2529L85.4849 306.256V310.552H76.7969V313.24L77.9969 314.416H82.4849L83.6849 313.24V312.328H85.4609V313.792L83.2529 316H77.2289L75.0209 313.792ZM83.7089 309.016V306.808L82.5089 305.632H77.9969L76.7969 306.808V309.016H83.7089ZM98.7701 304.048V319.048L96.5621 321.232H90.8021L88.9541 319.384V317.92H90.7301V318.832L91.5701 319.648H95.7941L96.9941 318.472V313.456L94.4501 316H90.8021L88.5941 313.792V304.048H90.3701V313.24L91.5701 314.416H93.9701L96.9941 311.392V304.048H98.7701ZM108.358 299.2H117.958L120.166 301.408V306.808L117.934 309.04H110.182V316H108.358V299.2ZM117.166 307.456L118.366 306.28V301.96L117.166 300.784H110.182V307.456H117.166ZM122.318 313.792V306.256L124.526 304.048H130.67L132.878 306.256V313.792L130.67 316H124.526L122.318 313.792ZM129.902 314.416L131.102 313.24V306.808L129.902 305.632H125.294L124.094 306.808V313.24L125.294 314.416H129.902ZM136.125 301.312V300.256L136.845 299.536H137.901L138.621 300.256V301.312L137.901 302.032H136.845L136.125 301.312ZM136.485 304.048H138.261V316H136.485V304.048ZM142.105 304.048H143.833V306.592L146.377 304.048H150.049L152.257 306.256V316H150.481V306.808L149.281 305.632H146.857L143.881 308.608V316H142.105V304.048ZM156.591 313.792V305.608H154.431V304.048H156.639V300.16H158.367V304.048H162.111V305.608H158.367V313.24L159.567 314.44H162.111V316H158.799L156.591 313.792ZM164.145 314.032V312.544H165.921V313.528L166.881 314.464H171.297L172.257 313.528V311.68L171.297 310.72H166.137L164.241 308.824V306.016L166.209 304.048H171.825L173.793 306.016V307.504H172.017V306.52L171.057 305.584H166.977L166.017 306.52V308.272L166.977 309.232H172.065L174.033 311.2V314.032L172.065 316H166.113L164.145 314.032Z" fill="white"/>
<path d="M224.68 220.36V208.84L227.32 206.2H234.52L237.064 208.744V210.28H235.24V209.344L233.704 207.832H228.136L226.504 209.44V219.76L228.136 221.368H233.704L235.24 219.856V218.92H237.064V220.456L234.52 223H227.32L224.68 220.36ZM239.701 220.792V213.256L241.909 211.048H248.053L250.261 213.256V220.792L248.053 223H241.909L239.701 220.792ZM247.285 221.416L248.485 220.24V213.808L247.285 212.632H242.677L241.477 213.808V220.24L242.677 221.416H247.285ZM253.748 205.864H255.524V223H253.748V205.864ZM259.013 220.792V213.256L261.221 211.048H267.365L269.573 213.256V220.792L267.365 223H261.221L259.013 220.792ZM266.597 221.416L267.797 220.24V213.808L266.597 212.632H261.989L260.789 213.808V220.24L261.989 221.416H266.597ZM272.941 211.048H274.669V213.184L276.805 211.048H279.901V212.632H277.261L274.717 215.176V223H272.941V211.048ZM288.154 206.2H297.754L299.962 208.408V213.808L297.73 216.04H289.978V223H288.154V206.2ZM296.962 214.456L298.162 213.28V208.96L296.962 207.784H289.978V214.456H296.962ZM301.995 221.032V217.984L303.963 216.04H310.347V213.76L309.147 212.584H305.067L303.867 213.76V214.744H302.091V213.256L304.299 211.048H309.891L312.099 213.256V223H310.395V220.888L308.187 223H303.963L301.995 221.032ZM307.827 221.464L310.347 219.04V217.576H304.731L303.771 218.512V220.528L304.731 221.464H307.827ZM315.693 205.864H317.469V223H315.693V205.864ZM320.958 220.792V213.256L323.166 211.048H329.19L331.422 213.256V217.552H322.734V220.24L323.934 221.416H328.422L329.622 220.24V219.328H331.398V220.792L329.19 223H323.166L320.958 220.792ZM329.646 216.016V213.808L328.446 212.632H323.934L322.734 213.808V216.016H329.646ZM335.732 220.792V212.608H333.572V211.048H335.78V207.16H337.508V211.048H341.252V212.608H337.508V220.24L338.708 221.44H341.252V223H337.94L335.732 220.792ZM345.083 220.792V212.608H342.923V211.048H345.131V207.16H346.859V211.048H350.603V212.608H346.859V220.24L348.059 221.44H350.603V223H347.291L345.083 220.792ZM352.763 220.792V213.256L354.971 211.048H360.995L363.227 213.256V217.552H354.539V220.24L355.739 221.416H360.227L361.427 220.24V219.328H363.203V220.792L360.995 223H354.971L352.763 220.792ZM361.451 216.016V213.808L360.251 212.632H355.739L354.539 213.808V216.016H361.451ZM236.824 248.864V254H235V249.368L232.696 246.944H226.744V254H224.92V237.2H234.52L236.728 239.408V244.712L234.784 246.656L236.824 248.864ZM226.744 245.36H233.728L234.928 244.184V239.96L233.728 238.784H226.744V245.36ZM240.193 251.792V244.256L242.401 242.048H248.425L250.657 244.256V248.552H241.969V251.24L243.169 252.416H247.657L248.857 251.24V250.328H250.633V251.792L248.425 254H242.401L240.193 251.792ZM248.881 247.016V244.808L247.681 243.632H243.169L241.969 244.808V247.016H248.881ZM254.966 243.608H252.806V242.048H254.966V239.384L257.054 237.296H260.51V238.832H257.822L256.742 239.888V242.048H260.51V243.608H256.742V254H254.966V243.608ZM262.792 242.048H264.52V244.184L266.656 242.048H269.752V243.632H267.112L264.568 246.176V254H262.792V242.048ZM271.177 251.792V244.256L273.385 242.048H279.409L281.641 244.256V248.552H272.953V251.24L274.153 252.416H278.641L279.841 251.24V250.328H281.617V251.792L279.409 254H273.385L271.177 251.792ZM279.865 247.016V244.808L278.665 243.632H274.153L272.953 244.808V247.016H279.865ZM284.27 252.032V250.544H286.046V251.528L287.006 252.464H291.422L292.382 251.528V249.68L291.422 248.72H286.262L284.366 246.824V244.016L286.334 242.048H291.95L293.918 244.016V245.504H292.142V244.52L291.182 243.584H287.102L286.142 244.52V246.272L287.102 247.232H292.19L294.158 249.2V252.032L292.19 254H286.238L284.27 252.032ZM297.152 236.864H298.928V244.544L301.424 242.048H305.144L307.352 244.256V254H305.576V244.808L304.376 243.632H301.904L298.928 246.608V254H297.152V236.864ZM224.92 299.2H235.528V300.832H226.744V306.88H234.376V308.512H226.744V316H224.92V299.2ZM238.162 298.864H239.938V316H238.162V298.864ZM243.547 301.312V300.256L244.267 299.536H245.323L246.043 300.256V301.312L245.323 302.032H244.267L243.547 301.312ZM243.907 304.048H245.683V316H243.907V304.048ZM249.527 304.048H251.255V306.184L253.391 304.048H257.879L260.087 306.256V313.792L257.879 316H253.271L251.303 314.272V321.088H249.527V304.048ZM257.111 314.416L258.311 313.24V306.808L257.111 305.632H253.871L251.303 308.2V312.328L253.607 314.416H257.111ZM269.188 313.36V301.84L271.828 299.2H279.172L281.716 301.744V303.28H279.892V302.344L278.356 300.832H272.644L271.012 302.44V312.76L272.644 314.368H278.26L279.892 312.76V308.872H276.1V307.24H281.716V313.36L279.076 316H271.828L269.188 313.36ZM284.964 304.048H286.692V306.184L288.828 304.048H291.924V305.632H289.284L286.74 308.176V316H284.964V304.048ZM293.229 314.032V310.984L295.197 309.04H301.581V306.76L300.381 305.584H296.301L295.101 306.76V307.744H293.325V306.256L295.533 304.048H301.125L303.333 306.256V316H301.629V313.888L299.421 316H295.197L293.229 314.032ZM299.061 314.464L301.581 312.04V310.576H295.965L295.005 311.512V313.528L295.965 314.464H299.061ZM306.568 313.792V306.256L308.776 304.048H313.384L315.352 305.776V298.864H317.128V316H315.4V313.816L313.216 316H308.776L306.568 313.792ZM312.832 314.416L315.352 311.896V307.648L313.048 305.632H309.544L308.344 306.808V313.24L309.544 314.416H312.832ZM320.61 301.312V300.256L321.33 299.536H322.386L323.106 300.256V301.312L322.386 302.032H321.33L320.61 301.312ZM320.97 304.048H322.746V316H320.97V304.048ZM326.349 313.792V306.256L328.557 304.048H334.581L336.813 306.256V310.552H328.125V313.24L329.325 314.416H333.813L335.013 313.24V312.328H336.789V313.792L334.581 316H328.557L326.349 313.792ZM335.037 309.016V306.808L333.837 305.632H329.325L328.125 306.808V309.016H335.037ZM340.042 304.048H341.77V306.592L344.314 304.048H347.986L350.194 306.256V316H348.418V306.808L347.218 305.632H344.794L341.818 308.608V316H340.042V304.048ZM354.528 313.792V305.608H352.368V304.048H354.576V300.16H356.304V304.048H360.048V305.608H356.304V313.24L357.504 314.44H360.048V316H356.736L354.528 313.792Z" fill="white"/>
<path d="M407.92 206.2H417.352L419.56 208.408V213.064L418.408 214.216L420.304 216.112V220.648L417.952 223H407.92V206.2ZM416.584 213.784L417.784 212.584V208.96L416.584 207.784H409.696V213.784H416.584ZM417.136 221.416L418.528 220.048V216.688L417.136 215.32H409.696V221.416H417.136ZM423.316 211.048H425.044V213.184L427.18 211.048H430.276V212.632H427.636L425.092 215.176V223H423.316V211.048ZM431.581 221.032V217.984L433.549 216.04H439.933V213.76L438.733 212.584H434.653L433.453 213.76V214.744H431.677V213.256L433.885 211.048H439.477L441.685 213.256V223H439.981V220.888L437.773 223H433.549L431.581 221.032ZM437.413 221.464L439.933 219.04V217.576H434.317L433.357 218.512V220.528L434.317 221.464H437.413ZM445.159 211.048H446.887V213.592L449.431 211.048H453.103L455.311 213.256V223H453.535V213.808L452.335 212.632H449.911L446.935 215.608V223H445.159V211.048ZM458.56 220.792V213.256L460.768 211.048H465.376L467.344 212.776V205.864H469.12V223H467.392V220.816L465.208 223H460.768L458.56 220.792ZM464.824 221.416L467.344 218.896V214.648L465.04 212.632H461.536L460.336 213.808V220.24L461.536 221.416H464.824ZM472.722 211.048H474.45V213.352L476.754 211.048H479.61L481.482 212.92L483.354 211.048H487.122L489.33 213.256V223H487.554V213.808L486.354 212.632H483.714L482.034 214.312V223H480.306V213.808L479.106 212.632H477.09L474.498 215.224V223H472.722V211.048ZM492.448 221.032V217.984L494.416 216.04H500.8V213.76L499.6 212.584H495.52L494.32 213.76V214.744H492.544V213.256L494.752 211.048H500.344L502.552 213.256V223H500.848V220.888L498.64 223H494.416L492.448 221.032ZM498.28 221.464L500.8 219.04V217.576H495.184L494.224 218.512V220.528L495.184 221.464H498.28ZM506.027 211.048H507.755V213.184L509.891 211.048H512.987V212.632H510.347L507.803 215.176V223H506.027V211.048ZM515.261 205.864H517.037V215.992H519.845L523.349 211.048H525.317L521.285 216.808L525.557 223H523.589L519.845 217.576H517.037V223H515.261V205.864ZM419.824 248.864V254H418V249.368L415.696 246.944H409.744V254H407.92V237.2H417.52L419.728 239.408V244.712L417.784 246.656L419.824 248.864ZM409.744 245.36H416.728L417.928 244.184V239.96L416.728 238.784H409.744V245.36ZM423.193 251.792V244.256L425.401 242.048H431.425L433.657 244.256V248.552H424.969V251.24L426.169 252.416H430.657L431.857 251.24V250.328H433.633V251.792L431.425 254H425.401L423.193 251.792ZM431.881 247.016V244.808L430.681 243.632H426.169L424.969 244.808V247.016H431.881ZM437.966 243.608H435.806V242.048H437.966V239.384L440.054 237.296H443.51V238.832H440.822L439.742 239.888V242.048H443.51V243.608H439.742V254H437.966V243.608ZM445.792 242.048H447.52V244.184L449.656 242.048H452.752V243.632H450.112L447.568 246.176V254H445.792V242.048ZM454.177 251.792V244.256L456.385 242.048H462.409L464.641 244.256V248.552H455.953V251.24L457.153 252.416H461.641L462.841 251.24V250.328H464.617V251.792L462.409 254H456.385L454.177 251.792ZM462.865 247.016V244.808L461.665 243.632H457.153L455.953 244.808V247.016H462.865ZM467.27 252.032V250.544H469.046V251.528L470.006 252.464H474.422L475.382 251.528V249.68L474.422 248.72H469.262L467.366 246.824V244.016L469.334 242.048H474.95L476.918 244.016V245.504H475.142V244.52L474.182 243.584H470.102L469.142 244.52V246.272L470.102 247.232H475.19L477.158 249.2V252.032L475.19 254H469.238L467.27 252.032ZM480.152 236.864H481.928V244.544L484.424 242.048H488.144L490.352 244.256V254H488.576V244.808L487.376 243.632H484.904L481.928 246.608V254H480.152V236.864ZM407.92 299.2H417.352L419.56 301.408V306.064L418.408 307.216L420.304 309.112V313.648L417.952 316H407.92V299.2ZM416.584 306.784L417.784 305.584V301.96L416.584 300.784H409.696V306.784H416.584ZM417.136 314.416L418.528 313.048V309.688L417.136 308.32H409.696V314.416H417.136ZM423.316 304.048H425.044V306.184L427.18 304.048H430.276V305.632H427.636L425.092 308.176V316H423.316V304.048ZM431.581 314.032V310.984L433.549 309.04H439.933V306.76L438.733 305.584H434.653L433.453 306.76V307.744H431.677V306.256L433.885 304.048H439.477L441.685 306.256V316H439.981V313.888L437.773 316H433.549L431.581 314.032ZM437.413 314.464L439.933 312.04V310.576H434.317L433.357 311.512V313.528L434.317 314.464H437.413ZM445.159 304.048H446.887V306.592L449.431 304.048H453.103L455.311 306.256V316H453.535V306.808L452.335 305.632H449.911L446.935 308.608V316H445.159V304.048ZM458.56 313.792V306.256L460.768 304.048H465.376L467.344 305.776V298.864H469.12V316H467.392V313.816L465.208 316H460.768L458.56 313.792ZM464.824 314.416L467.344 311.896V307.648L465.04 305.632H461.536L460.336 306.808V313.24L461.536 314.416H464.824ZM472.722 304.048H474.45V306.352L476.754 304.048H479.61L481.482 305.92L483.354 304.048H487.122L489.33 306.256V316H487.554V306.808L486.354 305.632H483.714L482.034 307.312V316H480.306V306.808L479.106 305.632H477.09L474.498 308.224V316H472.722V304.048ZM492.448 314.032V310.984L494.416 309.04H500.8V306.76L499.6 305.584H495.52L494.32 306.76V307.744H492.544V306.256L494.752 304.048H500.344L502.552 306.256V316H500.848V313.888L498.64 316H494.416L492.448 314.032ZM498.28 314.464L500.8 312.04V310.576H495.184L494.224 311.512V313.528L495.184 314.464H498.28ZM506.027 304.048H507.755V306.184L509.891 304.048H512.987V305.632H510.347L507.803 308.176V316H506.027V304.048ZM515.261 298.864H517.037V308.992H519.845L523.349 304.048H525.317L521.285 309.808L525.557 316H523.589L519.845 310.576H517.037V316H515.261V298.864ZM407.92 330.2H409.744V345.392H418.288V347H407.92V330.2ZM420.216 344.792V337.256L422.424 335.048H428.568L430.776 337.256V344.792L428.568 347H422.424L420.216 344.792ZM427.8 345.416L429 344.24V337.808L427.8 336.632H423.192L421.992 337.808V344.24L423.192 345.416H427.8ZM433.904 344.792V337.256L436.112 335.048H441.872L444.08 337.256V338.72H442.304V337.808L441.104 336.632H436.88L435.68 337.808V344.24L436.88 345.416H441.104L442.304 344.24V343.328H444.08V344.792L441.872 347H436.112L433.904 344.792ZM446.964 329.864H448.74V339.992H451.548L455.052 335.048H457.02L452.988 340.808L457.26 347H455.292L451.548 341.576H448.74V347H446.964V329.864ZM459.196 344.792V335.048H460.972V344.24L462.172 345.416H464.572L467.548 342.44V335.048H469.324V347H467.596V344.456L465.052 347H461.404L459.196 344.792ZM472.933 335.048H474.661V337.184L476.797 335.048H481.285L483.493 337.256V344.792L481.285 347H476.677L474.709 345.272V352.088H472.933V335.048ZM480.517 345.416L481.717 344.24V337.808L480.517 336.632H477.277L474.709 339.2V343.328L477.013 345.416H480.517Z" fill="white"/>
<path d="M573.92 206.2H583.52L585.728 208.408V213.808L583.496 216.04H575.744V223H573.92V206.2ZM582.728 214.456L583.928 213.28V208.96L582.728 207.784H575.744V214.456H582.728ZM588.495 211.048H590.223V213.184L592.359 211.048H595.455V212.632H592.815L590.271 215.176V223H588.495V211.048ZM597.61 208.312V207.256L598.33 206.536H599.386L600.106 207.256V208.312L599.386 209.032H598.33L597.61 208.312ZM597.97 211.048H599.746V223H597.97V211.048ZM603.589 211.048H605.317V213.352L607.621 211.048H610.477L612.349 212.92L614.221 211.048H617.989L620.197 213.256V223H618.421V213.808L617.221 212.632H614.581L612.901 214.312V223H611.173V213.808L609.973 212.632H607.957L605.365 215.224V223H603.589V211.048ZM623.315 221.032V217.984L625.283 216.04H631.667V213.76L630.467 212.584H626.387L625.187 213.76V214.744H623.411V213.256L625.619 211.048H631.211L633.419 213.256V223H631.715V220.888L629.507 223H625.283L623.315 221.032ZM629.147 221.464L631.667 219.04V217.576H626.051L625.091 218.512V220.528L626.051 221.464H629.147ZM636.894 211.048H638.622V213.184L640.758 211.048H643.854V212.632H641.214L638.67 215.176V223H636.894V211.048ZM656.184 211.048V226.048L653.976 228.232H648.216L646.368 226.384V224.92H648.144V225.832L648.984 226.648H653.208L654.408 225.472V220.456L651.864 223H648.216L646.008 220.792V211.048H647.784V220.24L648.984 221.416H651.384L654.408 218.392V211.048H656.184ZM669.66 207.808H664.572V206.2H676.572V207.808H671.484V223H669.66V207.808ZM687.098 211.048V226.048L684.89 228.232H679.13L677.282 226.384V224.92H679.058V225.832L679.898 226.648H684.122L685.322 225.472V220.456L682.778 223H679.13L676.922 220.792V211.048H678.698V220.24L679.898 221.416H682.298L685.322 218.392V211.048H687.098ZM690.706 211.048H692.434V213.184L694.57 211.048H699.058L701.266 213.256V220.792L699.058 223H694.45L692.482 221.272V228.088H690.706V211.048ZM698.29 221.416L699.49 220.24V213.808L698.29 212.632H695.05L692.482 215.2V219.328L694.786 221.416H698.29ZM704.388 220.792V213.256L706.596 211.048H712.62L714.852 213.256V217.552H706.164V220.24L707.364 221.416H711.852L713.052 220.24V219.328H714.828V220.792L712.62 223H706.596L704.388 220.792ZM713.076 216.016V213.808L711.876 212.632H707.364L706.164 213.808V216.016H713.076ZM719.161 212.608H717.001V211.048H719.161V208.384L721.249 206.296H724.705V207.832H722.017L720.937 208.888V211.048H724.705V212.608H720.937V223H719.161V212.608ZM726.135 221.032V217.984L728.103 216.04H734.487V213.76L733.287 212.584H729.207L728.007 213.76V214.744H726.231V213.256L728.439 211.048H734.031L736.239 213.256V223H734.535V220.888L732.327 223H728.103L726.135 221.032ZM731.967 221.464L734.487 219.04V217.576H728.871L727.911 218.512V220.528L728.871 221.464H731.967ZM739.474 220.792V213.256L741.682 211.048H747.442L749.65 213.256V214.72H747.874V213.808L746.674 212.632H742.45L741.25 213.808V220.24L742.45 221.416H746.674L747.874 220.24V219.328H749.65V220.792L747.442 223H741.682L739.474 220.792ZM752.294 220.792V213.256L754.502 211.048H760.526L762.758 213.256V217.552H754.07V220.24L755.27 221.416H759.758L760.958 220.24V219.328H762.734V220.792L760.526 223H754.502L752.294 220.792ZM760.982 216.016V213.808L759.782 212.632H755.27L754.07 213.808V216.016H760.982ZM585.824 248.864V254H584V249.368L581.696 246.944H575.744V254H573.92V237.2H583.52L585.728 239.408V244.712L583.784 246.656L585.824 248.864ZM575.744 245.36H582.728L583.928 244.184V239.96L582.728 238.784H575.744V245.36ZM589.193 251.792V244.256L591.401 242.048H597.425L599.657 244.256V248.552H590.969V251.24L592.169 252.416H596.657L597.857 251.24V250.328H599.633V251.792L597.425 254H591.401L589.193 251.792ZM597.881 247.016V244.808L596.681 243.632H592.169L590.969 244.808V247.016H597.881ZM603.966 243.608H601.806V242.048H603.966V239.384L606.054 237.296H609.51V238.832H606.822L605.742 239.888V242.048H609.51V243.608H605.742V254H603.966V243.608ZM611.792 242.048H613.52V244.184L615.656 242.048H618.752V243.632H616.112L613.568 246.176V254H611.792V242.048ZM620.177 251.792V244.256L622.385 242.048H628.409L630.641 244.256V248.552H621.953V251.24L623.153 252.416H627.641L628.841 251.24V250.328H630.617V251.792L628.409 254H622.385L620.177 251.792ZM628.865 247.016V244.808L627.665 243.632H623.153L621.953 244.808V247.016H628.865ZM633.27 252.032V250.544H635.046V251.528L636.006 252.464H640.422L641.382 251.528V249.68L640.422 248.72H635.262L633.366 246.824V244.016L635.334 242.048H640.95L642.918 244.016V245.504H641.142V244.52L640.182 243.584H636.102L635.142 244.52V246.272L636.102 247.232H641.19L643.158 249.2V252.032L641.19 254H635.238L633.27 252.032ZM646.152 236.864H647.928V244.544L650.424 242.048H654.144L656.352 244.256V254H654.576V244.808L653.376 243.632H650.904L647.928 246.608V254H646.152V236.864ZM577.808 300.808H572.72V299.2H584.72V300.808H579.632V316H577.808V300.808ZM595.247 304.048V319.048L593.039 321.232H587.279L585.431 319.384V317.92H587.207V318.832L588.047 319.648H592.271L593.471 318.472V313.456L590.927 316H587.279L585.071 313.792V304.048H586.847V313.24L588.047 314.416H590.447L593.471 311.392V304.048H595.247ZM598.855 304.048H600.583V306.184L602.719 304.048H607.207L609.415 306.256V313.792L607.207 316H602.599L600.631 314.272V321.088H598.855V304.048ZM606.439 314.416L607.639 313.24V306.808L606.439 305.632H603.199L600.631 308.2V312.328L602.935 314.416H606.439ZM612.537 313.792V306.256L614.745 304.048H620.769L623.001 306.256V310.552H614.313V313.24L615.513 314.416H620.001L621.201 313.24V312.328H622.977V313.792L620.769 316H614.745L612.537 313.792ZM621.225 309.016V306.808L620.025 305.632H615.513L614.313 306.808V309.016H621.225ZM626.23 304.048H627.958V306.352L630.262 304.048H633.118L634.99 305.92L636.862 304.048H640.63L642.838 306.256V316H641.062V306.808L639.862 305.632H637.222L635.542 307.312V316H633.814V306.808L632.614 305.632H630.598L628.006 308.224V316H626.23V304.048ZM645.956 314.032V310.984L647.924 309.04H654.308V306.76L653.108 305.584H649.028L647.828 306.76V307.744H646.052V306.256L648.26 304.048H653.852L656.06 306.256V316H654.356V313.888L652.148 316H647.924L645.956 314.032ZM651.788 314.464L654.308 312.04V310.576H648.692L647.732 311.512V313.528L648.692 314.464H651.788ZM659.534 304.048H661.262V306.184L663.398 304.048H666.494V305.632H663.854L661.31 308.176V316H659.534V304.048ZM668.769 298.864H670.545V308.992H673.353L676.857 304.048H678.825L674.793 309.808L679.065 316H677.097L673.353 310.576H670.545V316H668.769V298.864ZM697.054 310.456H692.782V314.584H691.006V310.456H686.734V308.872H691.006V304.744H692.782V308.872H697.054V310.456ZM578.456 330.2H580.424L586.4 347H584.504L582.944 342.464H575.936L574.376 347H572.48L578.456 330.2ZM582.416 340.88L579.464 332.312H579.416L576.488 340.88H582.416ZM588.683 335.048H590.411V337.592L592.955 335.048H596.627L598.835 337.256V347H597.059V337.808L595.859 336.632H593.435L590.459 339.608V347H588.683V335.048ZM601.963 345.032V341.984L603.931 340.04H610.315V337.76L609.115 336.584H605.035L603.835 337.76V338.744H602.059V337.256L604.267 335.048H609.859L612.067 337.256V347H610.363V344.888L608.155 347H603.931L601.963 345.032ZM607.795 345.464L610.315 343.04V341.576H604.699L603.739 342.512V344.528L604.699 345.464H607.795ZM616.388 344.792V336.608H614.228V335.048H616.436V331.16H618.164V335.048H621.908V336.608H618.164V344.24L619.364 345.44H621.908V347H618.596L616.388 344.792ZM624.068 344.792V337.256L626.276 335.048H632.42L634.628 337.256V344.792L632.42 347H626.276L624.068 344.792ZM631.652 345.416L632.852 344.24V337.808L631.652 336.632H627.044L625.844 337.808V344.24L627.044 345.416H631.652ZM637.995 335.048H639.723V337.352L642.027 335.048H644.883L646.755 336.92L648.627 335.048H652.395L654.603 337.256V347H652.827V337.808L651.627 336.632H648.987L647.307 338.312V347H645.579V337.808L644.379 336.632H642.363L639.771 339.224V347H637.995V335.048ZM668.137 335.048V350.048L665.929 352.232H660.169L658.321 350.384V348.92H660.097V349.832L660.937 350.648H665.161L666.361 349.472V344.456L663.817 347H660.169L657.961 344.792V335.048H659.737V344.24L660.937 345.416H663.337L666.361 342.392V335.048H668.137ZM573.56 406.792V405.256H575.36V406.192L576.512 407.368H582.272L583.472 406.144V402.376L582.272 401.2H575.816L573.608 398.992V394.408L575.816 392.2H582.872L585.08 394.408V395.968H583.304V395.008L582.104 393.832H576.608L575.408 395.008V398.392L576.608 399.568H583.064L585.272 401.776V406.744L583.016 409H575.768L573.56 406.792ZM588.162 406.792V399.256L590.37 397.048H596.394L598.626 399.256V403.552H589.938V406.24L591.138 407.416H595.626L596.826 406.24V405.328H598.602V406.792L596.394 409H590.37L588.162 406.792ZM596.85 402.016V399.808L595.65 398.632H591.138L589.938 399.808V402.016H596.85ZM601.615 406.792V399.256L603.823 397.048H609.583L611.791 399.256V400.72H610.015V399.808L608.815 398.632H604.591L603.391 399.808V406.24L604.591 407.416H608.815L610.015 406.24V405.328H611.791V406.792L609.583 409H603.823L601.615 406.792ZM614.435 406.792V399.256L616.643 397.048H622.787L624.995 399.256V406.792L622.787 409H616.643L614.435 406.792ZM622.019 407.416L623.219 406.24V399.808L622.019 398.632H617.411L616.211 399.808V406.24L617.411 407.416H622.019ZM628.363 397.048H630.09V399.592L632.635 397.048H636.307L638.515 399.256V409H636.739V399.808L635.539 398.632H633.115L630.139 401.608V409H628.363V397.048ZM641.763 406.792V399.256L643.971 397.048H648.579L650.547 398.776V391.864H652.323V409H650.595V406.816L648.411 409H643.971L641.763 406.792ZM648.027 407.416L650.547 404.896V400.648L648.243 398.632H644.739L643.539 399.808V406.24L644.739 407.416H648.027ZM655.565 407.032V403.984L657.533 402.04H663.917V399.76L662.717 398.584H658.637L657.437 399.76V400.744H655.661V399.256L657.869 397.048H663.461L665.669 399.256V409H663.965V406.888L661.757 409H657.533L655.565 407.032ZM661.397 407.464L663.917 405.04V403.576H658.301L657.341 404.512V406.528L658.301 407.464H661.397ZM669.144 397.048H670.872V399.184L673.008 397.048H676.104V398.632H673.464L670.92 401.176V409H669.144V397.048ZM688.434 397.048V412.048L686.226 414.232H680.466L678.618 412.384V410.92H680.394V411.832L681.234 412.648H685.458L686.658 411.472V406.456L684.114 409H680.466L678.258 406.792V397.048H680.034V406.24L681.234 407.416H683.634L686.658 404.392V397.048H688.434ZM577.808 424.808H572.72V423.2H584.72V424.808H579.632V440H577.808V424.808ZM595.247 428.048V443.048L593.039 445.232H587.279L585.431 443.384V441.92H587.207V442.832L588.047 443.648H592.271L593.471 442.472V437.456L590.927 440H587.279L585.071 437.792V428.048H586.847V437.24L588.047 438.416H590.447L593.471 435.392V428.048H595.247ZM598.855 428.048H600.583V430.184L602.719 428.048H607.207L609.415 430.256V437.792L607.207 440H602.599L600.631 438.272V445.088H598.855V428.048ZM606.439 438.416L607.639 437.24V430.808L606.439 429.632H603.199L600.631 432.2V436.328L602.935 438.416H606.439ZM612.537 437.792V430.256L614.745 428.048H620.769L623.001 430.256V434.552H614.313V437.24L615.513 438.416H620.001L621.201 437.24V436.328H622.977V437.792L620.769 440H614.745L612.537 437.792ZM621.225 433.016V430.808L620.025 429.632H615.513L614.313 430.808V433.016H621.225ZM627.31 429.608H625.15V428.048H627.31V425.384L629.398 423.296H632.854V424.832H630.166L629.086 425.888V428.048H632.854V429.608H629.086V440H627.31V429.608ZM634.284 438.032V434.984L636.252 433.04H642.636V430.76L641.436 429.584H637.356L636.156 430.76V431.744H634.38V430.256L636.588 428.048H642.18L644.388 430.256V440H642.684V437.888L640.476 440H636.252L634.284 438.032ZM640.116 438.464L642.636 436.04V434.576H637.02L636.06 435.512V437.528L637.02 438.464H640.116ZM647.623 437.792V430.256L649.831 428.048H655.591L657.799 430.256V431.72H656.023V430.808L654.823 429.632H650.599L649.399 430.808V437.24L650.599 438.416H654.823L656.023 437.24V436.328H657.799V437.792L655.591 440H649.831L647.623 437.792ZM660.443 437.792V430.256L662.651 428.048H668.675L670.907 430.256V434.552H662.219V437.24L663.419 438.416H667.907L669.107 437.24V436.328H670.883V437.792L668.675 440H662.651L660.443 437.792ZM669.131 433.016V430.808L667.931 429.632H663.419L662.219 430.808V433.016H669.131ZM577.808 486.808H572.72V485.2H584.72V486.808H579.632V502H577.808V486.808ZM587.23 484.864H589.006V492.544L591.502 490.048H595.222L597.43 492.256V502H595.654V492.808L594.454 491.632H591.982L589.006 494.608V502H587.23V484.864ZM600.677 499.792V492.256L602.885 490.048H608.909L611.141 492.256V496.552H602.453V499.24L603.653 500.416H608.141L609.341 499.24V498.328H611.117V499.792L608.909 502H602.885L600.677 499.792ZM609.365 495.016V492.808L608.165 491.632H603.653L602.453 492.808V495.016H609.365ZM621.142 488.176H621.43L622.126 488.872V489.928L621.43 490.624H620.374L619.678 489.928V488.176L620.878 485.2H621.862L621.142 488.176ZM624.718 488.176H625.006L625.702 488.872V489.928L625.006 490.624H623.95L623.254 489.928V488.176L624.454 485.2H625.438L624.718 488.176ZM631.729 485.2H633.697L639.673 502H637.777L636.217 497.464H629.209L627.649 502H625.753L631.729 485.2ZM635.689 495.88L632.737 487.312H632.689L629.761 495.88H635.689ZM642.196 485.2H644.02V502H642.196V485.2ZM648.295 487.648H648.007L647.311 486.952V485.896L648.007 485.2H649.062L649.759 485.896V487.648L648.559 490.624H647.575L648.295 487.648ZM651.871 487.648H651.583L650.887 486.952V485.896L651.583 485.2H652.639L653.335 485.896V487.648L652.135 490.624H651.151L651.871 487.648ZM662.373 485.2H672.069L674.709 487.84V499.36L672.069 502H662.373V485.2ZM671.253 500.368L672.885 498.76V488.44L671.253 486.832H664.197V500.368H671.253ZM678.071 487.312V486.256L678.791 485.536H679.847L680.567 486.256V487.312L679.847 488.032H678.791L678.071 487.312ZM678.431 490.048H680.207V502H678.431V490.048ZM684.17 484.864H685.946V502H684.17V484.864ZM689.435 499.792V492.256L691.643 490.048H697.667L699.899 492.256V496.552H691.211V499.24L692.411 500.416H696.899L698.099 499.24V498.328H699.875V499.792L697.667 502H691.643L689.435 499.792ZM698.123 495.016V492.808L696.923 491.632H692.411L691.211 492.808V495.016H698.123ZM703.128 490.048H704.856V492.352L707.16 490.048H710.016L711.888 491.92L713.76 490.048H717.528L719.736 492.256V502H717.96V492.808L716.76 491.632H714.12L712.44 493.312V502H710.712V492.808L709.512 491.632H707.496L704.904 494.224V502H703.128V490.048ZM723.214 490.048H724.942V492.352L727.246 490.048H730.102L731.974 491.92L733.846 490.048H737.614L739.822 492.256V502H738.046V492.808L736.846 491.632H734.206L732.526 493.312V502H730.798V492.808L729.598 491.632H727.582L724.99 494.224V502H723.214V490.048ZM742.94 500.032V496.984L744.908 495.04H751.292V492.76L750.092 491.584H746.012L744.812 492.76V493.744H743.036V492.256L745.244 490.048H750.836L753.044 492.256V502H751.34V499.888L749.132 502H744.908L742.94 500.032ZM748.772 500.464L751.292 498.04V496.576H745.676L744.716 497.512V499.528L745.676 500.464H748.772ZM577.808 548.808H572.72V547.2H584.72V548.808H579.632V564H577.808V548.808ZM587.23 546.864H589.006V554.544L591.502 552.048H595.222L597.43 554.256V564H595.654V554.808L594.454 553.632H591.982L589.006 556.608V564H587.23V546.864ZM600.677 561.792V554.256L602.885 552.048H608.909L611.141 554.256V558.552H602.453V561.24L603.653 562.416H608.141L609.341 561.24V560.328H611.117V561.792L608.909 564H602.885L600.677 561.792ZM609.365 557.016V554.808L608.165 553.632H603.653L602.453 554.808V557.016H609.365ZM619.03 547.2H620.926L625.918 561.816H625.966L630.958 547.2H632.854L626.926 564H624.958L619.03 547.2ZM634.407 549.312V548.256L635.127 547.536H636.183L636.903 548.256V549.312L636.183 550.032H635.127L634.407 549.312ZM634.767 552.048H636.543V564H634.767V552.048ZM639.786 562.032V560.544H641.562V561.528L642.522 562.464H646.938L647.898 561.528V559.68L646.938 558.72H641.778L639.882 556.824V554.016L641.85 552.048H647.466L649.434 554.016V555.504H647.658V554.52L646.698 553.584H642.618L641.658 554.52V556.272L642.618 557.232H647.706L649.674 559.2V562.032L647.706 564H641.754L639.786 562.032ZM652.547 549.312V548.256L653.267 547.536H654.323L655.043 548.256V549.312L654.323 550.032H653.267L652.547 549.312ZM652.907 552.048H654.683V564H652.907V552.048ZM658.287 561.792V554.256L660.495 552.048H666.639L668.847 554.256V561.792L666.639 564H660.495L658.287 561.792ZM665.871 562.416L667.071 561.24V554.808L665.871 553.632H661.263L660.063 554.808V561.24L661.263 562.416H665.871ZM672.214 552.048H673.942V554.592L676.486 552.048H680.158L682.366 554.256V564H680.59V554.808L679.39 553.632H676.966L673.99 556.608V564H672.214V552.048Z" fill="white"/>
<path d="M813.456 206.2H815.424L821.4 223H819.504L817.944 218.464H810.936L809.376 223H807.48L813.456 206.2ZM817.416 216.88L814.464 208.312H814.416L811.488 216.88H817.416ZM823.683 211.048H825.411V213.184L827.547 211.048H832.035L834.243 213.256V220.792L832.035 223H827.427L825.459 221.272V228.088H823.683V211.048ZM831.267 221.416L832.467 220.24V213.808L831.267 212.632H828.027L825.459 215.2V219.328L827.763 221.416H831.267ZM837.605 211.048H839.333V213.184L841.469 211.048H845.957L848.165 213.256V220.792L845.957 223H841.349L839.381 221.272V228.088H837.605V211.048ZM845.189 221.416L846.389 220.24V213.808L845.189 212.632H841.949L839.381 215.2V219.328L841.685 221.416H845.189ZM851.647 205.864H853.423V223H851.647V205.864ZM857.032 208.312V207.256L857.752 206.536H858.808L859.528 207.256V208.312L858.808 209.032H857.752L857.032 208.312ZM857.392 211.048H859.168V223H857.392V211.048ZM862.771 220.792V213.256L864.979 211.048H870.739L872.947 213.256V214.72H871.171V213.808L869.971 212.632H865.747L864.547 213.808V220.24L865.747 221.416H869.971L871.171 220.24V219.328H872.947V220.792L870.739 223H864.979L862.771 220.792ZM875.471 221.032V217.984L877.439 216.04H883.823V213.76L882.623 212.584H878.543L877.343 213.76V214.744H875.567V213.256L877.775 211.048H883.367L885.575 213.256V223H883.871V220.888L881.663 223H877.439L875.471 221.032ZM881.303 221.464L883.823 219.04V217.576H878.207L877.247 218.512V220.528L878.207 221.464H881.303ZM889.896 220.792V212.608H887.736V211.048H889.944V207.16H891.672V211.048H895.416V212.608H891.672V220.24L892.872 221.44H895.416V223H892.104L889.896 220.792ZM898.047 208.312V207.256L898.767 206.536H899.823L900.543 207.256V208.312L899.823 209.032H898.767L898.047 208.312ZM898.407 211.048H900.183V223H898.407V211.048ZM903.787 220.792V213.256L905.995 211.048H912.139L914.347 213.256V220.792L912.139 223H905.995L903.787 220.792ZM911.371 221.416L912.571 220.24V213.808L911.371 212.632H906.763L905.563 213.808V220.24L906.763 221.416H911.371ZM917.714 211.048H919.442V213.592L921.986 211.048H925.658L927.866 213.256V223H926.09V213.808L924.89 212.632H922.466L919.49 215.608V223H917.714V211.048Z" fill="white"/>
<path d="M1381.68 220.36V208.84L1384.32 206.2H1391.9L1394.54 208.84V220.36L1391.9 223H1384.32L1381.68 220.36ZM1391.09 221.368L1392.72 219.76V209.44L1391.09 207.832H1385.14L1383.5 209.44V219.76L1385.14 221.368H1391.09ZM1396.58 211.048H1398.4L1401.95 221.224H1402.05L1405.6 211.048H1407.43L1403.03 223H1400.97L1396.58 211.048ZM1409.12 220.792V213.256L1411.33 211.048H1417.35L1419.59 213.256V217.552H1410.9V220.24L1412.1 221.416H1416.59L1417.79 220.24V219.328H1419.56V220.792L1417.35 223H1411.33L1409.12 220.792ZM1417.81 216.016V213.808L1416.61 212.632H1412.1L1410.9 213.808V216.016H1417.81ZM1422.82 211.048H1424.54V213.184L1426.68 211.048H1429.78V212.632H1427.14L1424.59 215.176V223H1422.82V211.048ZM1430.61 211.048H1432.43L1435.99 221.224H1436.08L1439.63 211.048H1441.46L1437.07 223H1435L1430.61 211.048ZM1443.51 208.312V207.256L1444.23 206.536H1445.28L1446 207.256V208.312L1445.28 209.032H1444.23L1443.51 208.312ZM1443.87 211.048H1445.64V223H1443.87V211.048ZM1449.25 220.792V213.256L1451.46 211.048H1457.48L1459.71 213.256V217.552H1451.02V220.24L1452.22 221.416H1456.71L1457.91 220.24V219.328H1459.69V220.792L1457.48 223H1451.46L1449.25 220.792ZM1457.94 216.016V213.808L1456.74 212.632H1452.22L1451.02 213.808V216.016H1457.94ZM1461.75 211.048H1463.57L1465.61 220.984H1465.68L1468.56 211.048H1470.29L1472.91 220.984H1472.98L1475.21 211.048H1477.03L1474.01 223H1472.09L1469.45 213.136H1469.38L1466.5 223H1464.55L1461.75 211.048Z" fill="white"/>
<path d="M971.92 206.2H981.52L983.728 208.408V213.808L981.496 216.04H973.744V223H971.92V206.2ZM980.728 214.456L981.928 213.28V208.96L980.728 207.784H973.744V214.456H980.728ZM985.76 221.032V217.984L987.728 216.04H994.112V213.76L992.912 212.584H988.832L987.632 213.76V214.744H985.856V213.256L988.064 211.048H993.656L995.864 213.256V223H994.16V220.888L991.952 223H987.728L985.76 221.032ZM991.592 221.464L994.112 219.04V217.576H988.496L987.536 218.512V220.528L988.496 221.464H991.592ZM1000.18 220.792V212.608H998.025V211.048H1000.23V207.16H1001.96V211.048H1005.7V212.608H1001.96V220.24L1003.16 221.44H1005.7V223H1002.39L1000.18 220.792ZM1009.54 220.792V212.608H1007.38V211.048H1009.58V207.16H1011.31V211.048H1015.06V212.608H1011.31V220.24L1012.51 221.44H1015.06V223H1011.74L1009.54 220.792ZM1017.22 220.792V213.256L1019.42 211.048H1025.45L1027.68 213.256V217.552H1018.99V220.24L1020.19 221.416H1024.68L1025.88 220.24V219.328H1027.66V220.792L1025.45 223H1019.42L1017.22 220.792ZM1025.9 216.016V213.808L1024.7 212.632H1020.19L1018.99 213.808V216.016H1025.9ZM1030.91 211.048H1032.64V213.184L1034.77 211.048H1037.87V212.632H1035.23L1032.69 215.176V223H1030.91V211.048ZM1040.14 211.048H1041.87V213.592L1044.42 211.048H1048.09L1050.3 213.256V223H1048.52V213.808L1047.32 212.632H1044.9L1041.92 215.608V223H1040.14V211.048ZM1059.76 206.2H1069.46L1072.1 208.84V220.36L1069.46 223H1059.76V206.2ZM1068.64 221.368L1070.28 219.76V209.44L1068.64 207.832H1061.59V221.368H1068.64ZM1075.34 220.792V213.256L1077.55 211.048H1083.57L1085.81 213.256V217.552H1077.12V220.24L1078.32 221.416H1082.81L1084.01 220.24V219.328H1085.78V220.792L1083.57 223H1077.55L1075.34 220.792ZM1084.03 216.016V213.808L1082.83 212.632H1078.32L1077.12 213.808V216.016H1084.03ZM1088.43 221.032V219.544H1090.21V220.528L1091.17 221.464H1095.59L1096.55 220.528V218.68L1095.59 217.72H1090.43L1088.53 215.824V213.016L1090.5 211.048H1096.11L1098.08 213.016V214.504H1096.31V213.52L1095.35 212.584H1091.27L1090.31 213.52V215.272L1091.27 216.232H1096.35L1098.32 218.2V221.032L1096.35 223H1090.4L1088.43 221.032ZM1101.2 208.312V207.256L1101.92 206.536H1102.97L1103.69 207.256V208.312L1102.97 209.032H1101.92L1101.2 208.312ZM1101.56 211.048H1103.33V223H1101.56V211.048ZM1117.49 211.048V226.048L1115.31 228.232H1109.38L1107.54 226.384V224.92H1109.31V225.808L1110.15 226.648H1114.52L1115.72 225.472V221.008L1113.51 223H1109.14L1106.94 220.792V213.256L1109.14 211.048H1113.68L1115.77 213.136V211.048H1117.49ZM1115.72 215.152L1113.2 212.632H1109.91L1108.71 213.808V220.24L1109.91 221.416H1113.22L1115.72 219.088V215.152ZM1121.1 211.048H1122.82V213.592L1125.37 211.048H1129.04L1131.25 213.256V223H1129.47V213.808L1128.27 212.632H1125.85L1122.87 215.608V223H1121.1V211.048ZM972.04 268.2H973.864V285H972.04V268.2ZM978.786 282.792V274.608H976.626V273.048H978.834V269.16H980.562V273.048H984.306V274.608H980.562V282.24L981.762 283.44H984.306V285H980.994L978.786 282.792ZM986.466 282.792V275.256L988.674 273.048H994.698L996.93 275.256V279.552H988.242V282.24L989.442 283.416H993.93L995.13 282.24V281.328H996.906V282.792L994.698 285H988.674L986.466 282.792ZM995.154 278.016V275.808L993.954 274.632H989.442L988.242 275.808V278.016H995.154ZM1000.16 273.048H1001.89V275.184L1004.02 273.048H1007.12V274.632H1004.48L1001.94 277.176V285H1000.16V273.048ZM1008.42 283.032V279.984L1010.39 278.04H1016.78V275.76L1015.58 274.584H1011.5L1010.3 275.76V276.744H1008.52V275.256L1010.73 273.048H1016.32L1018.53 275.256V285H1016.82V282.888L1014.62 285H1010.39L1008.42 283.032ZM1014.26 283.464L1016.78 281.04V279.576H1011.16L1010.2 280.512V282.528L1011.16 283.464H1014.26ZM1022.85 282.792V274.608H1020.69V273.048H1022.9V269.16H1024.62V273.048H1028.37V274.608H1024.62V282.24L1025.82 283.44H1028.37V285H1025.06L1022.85 282.792ZM1031 270.312V269.256L1031.72 268.536H1032.78L1033.5 269.256V270.312L1032.78 271.032H1031.72L1031 270.312ZM1031.36 273.048H1033.14V285H1031.36V273.048ZM1036.74 282.792V275.256L1038.95 273.048H1045.09L1047.3 275.256V282.792L1045.09 285H1038.95L1036.74 282.792ZM1044.32 283.416L1045.52 282.24V275.808L1044.32 274.632H1039.72L1038.52 275.808V282.24L1039.72 283.416H1044.32ZM1050.67 273.048H1052.4V275.592L1054.94 273.048H1058.61L1060.82 275.256V285H1059.04V275.808L1057.84 274.632H1055.42L1052.44 277.608V285H1050.67V273.048ZM1073.1 270.072L1069.33 272.016V270.336L1073.24 268.2H1074.92V285H1073.1V270.072ZM972.04 330.2H973.864V347H972.04V330.2ZM978.786 344.792V336.608H976.626V335.048H978.834V331.16H980.562V335.048H984.306V336.608H980.562V344.24L981.762 345.44H984.306V347H980.994L978.786 344.792ZM986.466 344.792V337.256L988.674 335.048H994.698L996.93 337.256V341.552H988.242V344.24L989.442 345.416H993.93L995.13 344.24V343.328H996.906V344.792L994.698 347H988.674L986.466 344.792ZM995.154 340.016V337.808L993.954 336.632H989.442L988.242 337.808V340.016H995.154ZM1000.16 335.048H1001.89V337.184L1004.02 335.048H1007.12V336.632H1004.48L1001.94 339.176V347H1000.16V335.048ZM1008.42 345.032V341.984L1010.39 340.04H1016.78V337.76L1015.58 336.584H1011.5L1010.3 337.76V338.744H1008.52V337.256L1010.73 335.048H1016.32L1018.53 337.256V347H1016.82V344.888L1014.62 347H1010.39L1008.42 345.032ZM1014.26 345.464L1016.78 343.04V341.576H1011.16L1010.2 342.512V344.528L1011.16 345.464H1014.26ZM1022.85 344.792V336.608H1020.69V335.048H1022.9V331.16H1024.62V335.048H1028.37V336.608H1024.62V344.24L1025.82 345.44H1028.37V347H1025.06L1022.85 344.792ZM1031 332.312V331.256L1031.72 330.536H1032.78L1033.5 331.256V332.312L1032.78 333.032H1031.72L1031 332.312ZM1031.36 335.048H1033.14V347H1031.36V335.048ZM1036.74 344.792V337.256L1038.95 335.048H1045.09L1047.3 337.256V344.792L1045.09 347H1038.95L1036.74 344.792ZM1044.32 345.416L1045.52 344.24V337.808L1044.32 336.632H1039.72L1038.52 337.808V344.24L1039.72 345.416H1044.32ZM1050.67 335.048H1052.4V337.592L1054.94 335.048H1058.61L1060.82 337.256V347H1059.04V337.808L1057.84 336.632H1055.42L1052.44 339.608V347H1050.67V335.048ZM1069.66 343.784L1078.45 335.096V333.008L1077.25 331.832H1072.59L1071.39 333.008V334.28H1069.57V332.408L1071.78 330.2H1078.06L1080.27 332.408V335.624L1071.49 344.312V345.368H1080.37V347H1069.66V343.784Z" fill="white"/>
<path d="M1177.92 206.2H1187.62L1190.26 208.84V220.36L1187.62 223H1177.92V206.2ZM1186.8 221.368L1188.43 219.76V209.44L1186.8 207.832H1179.74V221.368H1186.8ZM1193.5 220.792V213.256L1195.71 211.048H1201.73L1203.96 213.256V217.552H1195.27V220.24L1196.47 221.416H1200.96L1202.16 220.24V219.328H1203.94V220.792L1201.73 223H1195.71L1193.5 220.792ZM1202.19 216.016V213.808L1200.99 212.632H1196.47L1195.27 213.808V216.016H1202.19ZM1206.59 221.032V219.544H1208.37V220.528L1209.33 221.464H1213.74L1214.7 220.528V218.68L1213.74 217.72H1208.58L1206.69 215.824V213.016L1208.65 211.048H1214.27L1216.24 213.016V214.504H1214.46V213.52L1213.5 212.584H1209.42L1208.46 213.52V215.272L1209.42 216.232H1214.51L1216.48 218.2V221.032L1214.51 223H1208.56L1206.59 221.032ZM1219.35 208.312V207.256L1220.07 206.536H1221.13L1221.85 207.256V208.312L1221.13 209.032H1220.07L1219.35 208.312ZM1219.71 211.048H1221.49V223H1219.71V211.048ZM1235.65 211.048V226.048L1233.47 228.232H1227.54L1225.69 226.384V224.92H1227.47V225.808L1228.31 226.648H1232.68L1233.88 225.472V221.008L1231.67 223H1227.3L1225.09 220.792V213.256L1227.3 211.048H1231.84L1233.92 213.136V211.048H1235.65ZM1233.88 215.152L1231.36 212.632H1228.07L1226.87 213.808V220.24L1228.07 221.416H1231.38L1233.88 219.088V215.152ZM1239.25 211.048H1240.98V213.592L1243.53 211.048H1247.2L1249.41 213.256V223H1247.63V213.808L1246.43 212.632H1244.01L1241.03 215.608V223H1239.25V211.048ZM1177.92 268.2H1188.77V269.832H1179.74V275.736H1188.07V277.368H1179.74V283.368H1188.77V285H1177.92V268.2ZM1191.77 273.048H1193.5V275.352L1195.8 273.048H1198.66L1200.53 274.92L1202.4 273.048H1206.17L1208.38 275.256V285H1206.6V275.808L1205.4 274.632H1202.76L1201.08 276.312V285H1199.35V275.808L1198.15 274.632H1196.14L1193.54 277.224V285H1191.77V273.048ZM1211.85 273.048H1213.58V275.184L1215.72 273.048H1220.21L1222.41 275.256V282.792L1220.21 285H1215.6L1213.63 283.272V290.088H1211.85V273.048ZM1219.44 283.416L1220.64 282.24V275.808L1219.44 274.632H1216.2L1213.63 277.2V281.328L1215.93 283.416H1219.44ZM1225.9 267.864H1227.67V285H1225.9V267.864ZM1231.16 282.792V275.256L1233.37 273.048H1239.51L1241.72 275.256V282.792L1239.51 285H1233.37L1231.16 282.792ZM1238.75 283.416L1239.95 282.24V275.808L1238.75 274.632H1234.14L1232.94 275.808V282.24L1234.14 283.416H1238.75ZM1255.15 273.048V288.048L1252.94 290.232H1247.18L1245.33 288.384V286.92H1247.11V287.832L1247.95 288.648H1252.17L1253.37 287.472V282.456L1250.83 285H1247.18L1244.97 282.792V273.048H1246.75V282.24L1247.95 283.416H1250.35L1253.37 280.392V273.048H1255.15ZM1258.75 273.048H1260.48V275.352L1262.79 273.048H1265.64L1267.51 274.92L1269.39 273.048H1273.15L1275.36 275.256V285H1273.59V275.808L1272.39 274.632H1269.75L1268.07 276.312V285H1266.34V275.808L1265.14 274.632H1263.12L1260.53 277.224V285H1258.75V273.048ZM1278.6 282.792V275.256L1280.81 273.048H1286.83L1289.06 275.256V279.552H1280.38V282.24L1281.58 283.416H1286.06L1287.26 282.24V281.328H1289.04V282.792L1286.83 285H1280.81L1278.6 282.792ZM1287.29 278.016V275.808L1286.09 274.632H1281.58L1280.38 275.808V278.016H1287.29ZM1292.29 273.048H1294.02V275.592L1296.56 273.048H1300.24L1302.44 275.256V285H1300.67V275.808L1299.47 274.632H1297.04L1294.07 277.608V285H1292.29V273.048ZM1306.78 282.792V274.608H1304.62V273.048H1306.83V269.16H1308.55V273.048H1312.3V274.608H1308.55V282.24L1309.75 283.44H1312.3V285H1308.99L1306.78 282.792ZM1177.92 330.2H1188.77V331.832H1179.74V337.736H1188.07V339.368H1179.74V345.368H1188.77V347H1177.92V330.2ZM1191.77 335.048H1193.5V337.352L1195.8 335.048H1198.66L1200.53 336.92L1202.4 335.048H1206.17L1208.38 337.256V347H1206.6V337.808L1205.4 336.632H1202.76L1201.08 338.312V347H1199.35V337.808L1198.15 336.632H1196.14L1193.54 339.224V347H1191.77V335.048ZM1211.85 335.048H1213.58V337.184L1215.72 335.048H1220.21L1222.41 337.256V344.792L1220.21 347H1215.6L1213.63 345.272V352.088H1211.85V335.048ZM1219.44 345.416L1220.64 344.24V337.808L1219.44 336.632H1216.2L1213.63 339.2V343.328L1215.93 345.416H1219.44ZM1225.9 329.864H1227.67V347H1225.9V329.864ZM1231.16 344.792V337.256L1233.37 335.048H1239.51L1241.72 337.256V344.792L1239.51 347H1233.37L1231.16 344.792ZM1238.75 345.416L1239.95 344.24V337.808L1238.75 336.632H1234.14L1232.94 337.808V344.24L1234.14 345.416H1238.75ZM1255.15 335.048V350.048L1252.94 352.232H1247.18L1245.33 350.384V348.92H1247.11V349.832L1247.95 350.648H1252.17L1253.37 349.472V344.456L1250.83 347H1247.18L1244.97 344.792V335.048H1246.75V344.24L1247.95 345.416H1250.35L1253.37 342.392V335.048H1255.15ZM1258.75 335.048H1260.48V337.352L1262.79 335.048H1265.64L1267.51 336.92L1269.39 335.048H1273.15L1275.36 337.256V347H1273.59V337.808L1272.39 336.632H1269.75L1268.07 338.312V347H1266.34V337.808L1265.14 336.632H1263.12L1260.53 339.224V347H1258.75V335.048ZM1278.6 344.792V337.256L1280.81 335.048H1286.83L1289.06 337.256V341.552H1280.38V344.24L1281.58 345.416H1286.06L1287.26 344.24V343.328H1289.04V344.792L1286.83 347H1280.81L1278.6 344.792ZM1287.29 340.016V337.808L1286.09 336.632H1281.58L1280.38 337.808V340.016H1287.29ZM1292.29 335.048H1294.02V337.592L1296.56 335.048H1300.24L1302.44 337.256V347H1300.67V337.808L1299.47 336.632H1297.04L1294.07 339.608V347H1292.29V335.048ZM1306.78 344.792V336.608H1304.62V335.048H1306.83V331.16H1308.55V335.048H1312.3V336.608H1308.55V344.24L1309.75 345.44H1312.3V347H1308.99L1306.78 344.792ZM1323.84 332.072L1320.07 334.016V332.336L1323.98 330.2H1325.66V347H1323.84V332.072ZM1177.92 392.2H1188.77V393.832H1179.74V399.736H1188.07V401.368H1179.74V407.368H1188.77V409H1177.92V392.2ZM1191.77 397.048H1193.5V399.352L1195.8 397.048H1198.66L1200.53 398.92L1202.4 397.048H1206.17L1208.38 399.256V409H1206.6V399.808L1205.4 398.632H1202.76L1201.08 400.312V409H1199.35V399.808L1198.15 398.632H1196.14L1193.54 401.224V409H1191.77V397.048ZM1211.85 397.048H1213.58V399.184L1215.72 397.048H1220.21L1222.41 399.256V406.792L1220.21 409H1215.6L1213.63 407.272V414.088H1211.85V397.048ZM1219.44 407.416L1220.64 406.24V399.808L1219.44 398.632H1216.2L1213.63 401.2V405.328L1215.93 407.416H1219.44ZM1225.9 391.864H1227.67V409H1225.9V391.864ZM1231.16 406.792V399.256L1233.37 397.048H1239.51L1241.72 399.256V406.792L1239.51 409H1233.37L1231.16 406.792ZM1238.75 407.416L1239.95 406.24V399.808L1238.75 398.632H1234.14L1232.94 399.808V406.24L1234.14 407.416H1238.75ZM1255.15 397.048V412.048L1252.94 414.232H1247.18L1245.33 412.384V410.92H1247.11V411.832L1247.95 412.648H1252.17L1253.37 411.472V406.456L1250.83 409H1247.18L1244.97 406.792V397.048H1246.75V406.24L1247.95 407.416H1250.35L1253.37 404.392V397.048H1255.15ZM1258.75 397.048H1260.48V399.352L1262.79 397.048H1265.64L1267.51 398.92L1269.39 397.048H1273.15L1275.36 399.256V409H1273.59V399.808L1272.39 398.632H1269.75L1268.07 400.312V409H1266.34V399.808L1265.14 398.632H1263.12L1260.53 401.224V409H1258.75V397.048ZM1278.6 406.792V399.256L1280.81 397.048H1286.83L1289.06 399.256V403.552H1280.38V406.24L1281.58 407.416H1286.06L1287.26 406.24V405.328H1289.04V406.792L1286.83 409H1280.81L1278.6 406.792ZM1287.29 402.016V399.808L1286.09 398.632H1281.58L1280.38 399.808V402.016H1287.29ZM1292.29 397.048H1294.02V399.592L1296.56 397.048H1300.24L1302.44 399.256V409H1300.67V399.808L1299.47 398.632H1297.04L1294.07 401.608V409H1292.29V397.048ZM1306.78 406.792V398.608H1304.62V397.048H1306.83V393.16H1308.55V397.048H1312.3V398.608H1308.55V406.24L1309.75 407.44H1312.3V409H1308.99L1306.78 406.792ZM1320.41 405.784L1329.19 397.096V395.008L1327.99 393.832H1323.33L1322.13 395.008V396.28H1320.31V394.408L1322.52 392.2H1328.81L1331.01 394.408V397.624L1322.23 406.312V407.368H1331.11V409H1320.41V405.784ZM1177.92 454.2H1188.77V455.832H1179.74V461.736H1188.07V463.368H1179.74V469.368H1188.77V471H1177.92V454.2ZM1191.77 459.048H1193.5V461.352L1195.8 459.048H1198.66L1200.53 460.92L1202.4 459.048H1206.17L1208.38 461.256V471H1206.6V461.808L1205.4 460.632H1202.76L1201.08 462.312V471H1199.35V461.808L1198.15 460.632H1196.14L1193.54 463.224V471H1191.77V459.048ZM1211.85 459.048H1213.58V461.184L1215.72 459.048H1220.21L1222.41 461.256V468.792L1220.21 471H1215.6L1213.63 469.272V476.088H1211.85V459.048ZM1219.44 469.416L1220.64 468.24V461.808L1219.44 460.632H1216.2L1213.63 463.2V467.328L1215.93 469.416H1219.44ZM1225.9 453.864H1227.67V471H1225.9V453.864ZM1231.16 468.792V461.256L1233.37 459.048H1239.51L1241.72 461.256V468.792L1239.51 471H1233.37L1231.16 468.792ZM1238.75 469.416L1239.95 468.24V461.808L1238.75 460.632H1234.14L1232.94 461.808V468.24L1234.14 469.416H1238.75ZM1255.15 459.048V474.048L1252.94 476.232H1247.18L1245.33 474.384V472.92H1247.11V473.832L1247.95 474.648H1252.17L1253.37 473.472V468.456L1250.83 471H1247.18L1244.97 468.792V459.048H1246.75V468.24L1247.95 469.416H1250.35L1253.37 466.392V459.048H1255.15ZM1258.75 459.048H1260.48V461.352L1262.79 459.048H1265.64L1267.51 460.92L1269.39 459.048H1273.15L1275.36 461.256V471H1273.59V461.808L1272.39 460.632H1269.75L1268.07 462.312V471H1266.34V461.808L1265.14 460.632H1263.12L1260.53 463.224V471H1258.75V459.048ZM1278.6 468.792V461.256L1280.81 459.048H1286.83L1289.06 461.256V465.552H1280.38V468.24L1281.58 469.416H1286.06L1287.26 468.24V467.328H1289.04V468.792L1286.83 471H1280.81L1278.6 468.792ZM1287.29 464.016V461.808L1286.09 460.632H1281.58L1280.38 461.808V464.016H1287.29ZM1292.29 459.048H1294.02V461.592L1296.56 459.048H1300.24L1302.44 461.256V471H1300.67V461.808L1299.47 460.632H1297.04L1294.07 463.608V471H1292.29V459.048ZM1306.78 468.792V460.608H1304.62V459.048H1306.83V455.16H1308.55V459.048H1312.3V460.608H1308.55V468.24L1309.75 469.44H1312.3V471H1308.99L1306.78 468.792ZM1320.31 468.792V466.92H1322.13V468.192L1323.33 469.368H1328.42L1329.62 468.192V464.52L1328.47 463.368H1323.67V461.736H1328.47L1329.62 460.584V457.008L1328.42 455.832H1323.48L1322.28 457.008V458.28H1320.45V456.408L1322.66 454.2H1329.24L1331.45 456.408V461.112L1329.98 462.552L1331.45 464.016V468.792L1329.24 471H1322.52L1320.31 468.792ZM1177.92 516.2H1188.77V517.832H1179.74V523.736H1188.07V525.368H1179.74V531.368H1188.77V533H1177.92V516.2ZM1191.77 521.048H1193.5V523.352L1195.8 521.048H1198.66L1200.53 522.92L1202.4 521.048H1206.17L1208.38 523.256V533H1206.6V523.808L1205.4 522.632H1202.76L1201.08 524.312V533H1199.35V523.808L1198.15 522.632H1196.14L1193.54 525.224V533H1191.77V521.048ZM1211.85 521.048H1213.58V523.184L1215.72 521.048H1220.21L1222.41 523.256V530.792L1220.21 533H1215.6L1213.63 531.272V538.088H1211.85V521.048ZM1219.44 531.416L1220.64 530.24V523.808L1219.44 522.632H1216.2L1213.63 525.2V529.328L1215.93 531.416H1219.44ZM1225.9 515.864H1227.67V533H1225.9V515.864ZM1231.16 530.792V523.256L1233.37 521.048H1239.51L1241.72 523.256V530.792L1239.51 533H1233.37L1231.16 530.792ZM1238.75 531.416L1239.95 530.24V523.808L1238.75 522.632H1234.14L1232.94 523.808V530.24L1234.14 531.416H1238.75ZM1255.15 521.048V536.048L1252.94 538.232H1247.18L1245.33 536.384V534.92H1247.11V535.832L1247.95 536.648H1252.17L1253.37 535.472V530.456L1250.83 533H1247.18L1244.97 530.792V521.048H1246.75V530.24L1247.95 531.416H1250.35L1253.37 528.392V521.048H1255.15ZM1258.75 521.048H1260.48V523.352L1262.79 521.048H1265.64L1267.51 522.92L1269.39 521.048H1273.15L1275.36 523.256V533H1273.59V523.808L1272.39 522.632H1269.75L1268.07 524.312V533H1266.34V523.808L1265.14 522.632H1263.12L1260.53 525.224V533H1258.75V521.048ZM1278.6 530.792V523.256L1280.81 521.048H1286.83L1289.06 523.256V527.552H1280.38V530.24L1281.58 531.416H1286.06L1287.26 530.24V529.328H1289.04V530.792L1286.83 533H1280.81L1278.6 530.792ZM1287.29 526.016V523.808L1286.09 522.632H1281.58L1280.38 523.808V526.016H1287.29ZM1292.29 521.048H1294.02V523.592L1296.56 521.048H1300.24L1302.44 523.256V533H1300.67V523.808L1299.47 522.632H1297.04L1294.07 525.608V533H1292.29V521.048ZM1306.78 530.792V522.608H1304.62V521.048H1306.83V517.16H1308.55V521.048H1312.3V522.608H1308.55V530.24L1309.75 531.44H1312.3V533H1308.99L1306.78 530.792ZM1327.97 529.568H1319.71V526.736L1326.89 516.2H1329.79V527.936H1331.83V529.568H1329.79V533H1327.97V529.568ZM1327.97 527.984V517.736H1327.82L1321.49 527.024V527.984H1327.97ZM1177.92 578.2H1188.77V579.832H1179.74V585.736H1188.07V587.368H1179.74V593.368H1188.77V595H1177.92V578.2ZM1191.77 583.048H1193.5V585.352L1195.8 583.048H1198.66L1200.53 584.92L1202.4 583.048H1206.17L1208.38 585.256V595H1206.6V585.808L1205.4 584.632H1202.76L1201.08 586.312V595H1199.35V585.808L1198.15 584.632H1196.14L1193.54 587.224V595H1191.77V583.048ZM1211.85 583.048H1213.58V585.184L1215.72 583.048H1220.21L1222.41 585.256V592.792L1220.21 595H1215.6L1213.63 593.272V600.088H1211.85V583.048ZM1219.44 593.416L1220.64 592.24V585.808L1219.44 584.632H1216.2L1213.63 587.2V591.328L1215.93 593.416H1219.44ZM1225.9 577.864H1227.67V595H1225.9V577.864ZM1231.16 592.792V585.256L1233.37 583.048H1239.51L1241.72 585.256V592.792L1239.51 595H1233.37L1231.16 592.792ZM1238.75 593.416L1239.95 592.24V585.808L1238.75 584.632H1234.14L1232.94 585.808V592.24L1234.14 593.416H1238.75ZM1255.15 583.048V598.048L1252.94 600.232H1247.18L1245.33 598.384V596.92H1247.11V597.832L1247.95 598.648H1252.17L1253.37 597.472V592.456L1250.83 595H1247.18L1244.97 592.792V583.048H1246.75V592.24L1247.95 593.416H1250.35L1253.37 590.392V583.048H1255.15ZM1258.75 583.048H1260.48V585.352L1262.79 583.048H1265.64L1267.51 584.92L1269.39 583.048H1273.15L1275.36 585.256V595H1273.59V585.808L1272.39 584.632H1269.75L1268.07 586.312V595H1266.34V585.808L1265.14 584.632H1263.12L1260.53 587.224V595H1258.75V583.048ZM1278.6 592.792V585.256L1280.81 583.048H1286.83L1289.06 585.256V589.552H1280.38V592.24L1281.58 593.416H1286.06L1287.26 592.24V591.328H1289.04V592.792L1286.83 595H1280.81L1278.6 592.792ZM1287.29 588.016V585.808L1286.09 584.632H1281.58L1280.38 585.808V588.016H1287.29ZM1292.29 583.048H1294.02V585.592L1296.56 583.048H1300.24L1302.44 585.256V595H1300.67V585.808L1299.47 584.632H1297.04L1294.07 587.608V595H1292.29V583.048ZM1306.78 592.792V584.608H1304.62V583.048H1306.83V579.16H1308.55V583.048H1312.3V584.608H1308.55V592.24L1309.75 593.44H1312.3V595H1308.99L1306.78 592.792ZM1320.55 592.792V590.92H1322.37V592.192L1323.57 593.368H1328.61L1329.81 592.192V587.392L1328.61 586.216H1320.79V578.2H1331.3V579.808H1322.57V584.584H1329.41L1331.64 586.816V592.792L1329.43 595H1322.76L1320.55 592.792ZM1177.92 640.2H1188.77V641.832H1179.74V647.736H1188.07V649.368H1179.74V655.368H1188.77V657H1177.92V640.2ZM1191.77 645.048H1193.5V647.352L1195.8 645.048H1198.66L1200.53 646.92L1202.4 645.048H1206.17L1208.38 647.256V657H1206.6V647.808L1205.4 646.632H1202.76L1201.08 648.312V657H1199.35V647.808L1198.15 646.632H1196.14L1193.54 649.224V657H1191.77V645.048ZM1211.85 645.048H1213.58V647.184L1215.72 645.048H1220.21L1222.41 647.256V654.792L1220.21 657H1215.6L1213.63 655.272V662.088H1211.85V645.048ZM1219.44 655.416L1220.64 654.24V647.808L1219.44 646.632H1216.2L1213.63 649.2V653.328L1215.93 655.416H1219.44ZM1225.9 639.864H1227.67V657H1225.9V639.864ZM1231.16 654.792V647.256L1233.37 645.048H1239.51L1241.72 647.256V654.792L1239.51 657H1233.37L1231.16 654.792ZM1238.75 655.416L1239.95 654.24V647.808L1238.75 646.632H1234.14L1232.94 647.808V654.24L1234.14 655.416H1238.75ZM1255.15 645.048V660.048L1252.94 662.232H1247.18L1245.33 660.384V658.92H1247.11V659.832L1247.95 660.648H1252.17L1253.37 659.472V654.456L1250.83 657H1247.18L1244.97 654.792V645.048H1246.75V654.24L1247.95 655.416H1250.35L1253.37 652.392V645.048H1255.15ZM1258.75 645.048H1260.48V647.352L1262.79 645.048H1265.64L1267.51 646.92L1269.39 645.048H1273.15L1275.36 647.256V657H1273.59V647.808L1272.39 646.632H1269.75L1268.07 648.312V657H1266.34V647.808L1265.14 646.632H1263.12L1260.53 649.224V657H1258.75V645.048ZM1278.6 654.792V647.256L1280.81 645.048H1286.83L1289.06 647.256V651.552H1280.38V654.24L1281.58 655.416H1286.06L1287.26 654.24V653.328H1289.04V654.792L1286.83 657H1280.81L1278.6 654.792ZM1287.29 650.016V647.808L1286.09 646.632H1281.58L1280.38 647.808V650.016H1287.29ZM1292.29 645.048H1294.02V647.592L1296.56 645.048H1300.24L1302.44 647.256V657H1300.67V647.808L1299.47 646.632H1297.04L1294.07 649.608V657H1292.29V645.048ZM1306.78 654.792V646.608H1304.62V645.048H1306.83V641.16H1308.55V645.048H1312.3V646.608H1308.55V654.24L1309.75 655.44H1312.3V657H1308.99L1306.78 654.792ZM1320.79 654.792V642.408L1323 640.2H1329.72L1331.93 642.408V644.28H1330.1V643.008L1328.9 641.832H1323.81L1322.61 643.008V648.672L1324.56 646.728H1329.81L1332.02 648.936V654.792L1329.81 657H1323L1320.79 654.792ZM1329 655.368L1330.2 654.192V649.536L1329 648.36H1325.04L1322.61 650.784V654.192L1323.81 655.368H1329ZM1177.92 702.2H1188.77V703.832H1179.74V709.736H1188.07V711.368H1179.74V717.368H1188.77V719H1177.92V702.2ZM1191.77 707.048H1193.5V709.352L1195.8 707.048H1198.66L1200.53 708.92L1202.4 707.048H1206.17L1208.38 709.256V719H1206.6V709.808L1205.4 708.632H1202.76L1201.08 710.312V719H1199.35V709.808L1198.15 708.632H1196.14L1193.54 711.224V719H1191.77V707.048ZM1211.85 707.048H1213.58V709.184L1215.72 707.048H1220.21L1222.41 709.256V716.792L1220.21 719H1215.6L1213.63 717.272V724.088H1211.85V707.048ZM1219.44 717.416L1220.64 716.24V709.808L1219.44 708.632H1216.2L1213.63 711.2V715.328L1215.93 717.416H1219.44ZM1225.9 701.864H1227.67V719H1225.9V701.864ZM1231.16 716.792V709.256L1233.37 707.048H1239.51L1241.72 709.256V716.792L1239.51 719H1233.37L1231.16 716.792ZM1238.75 717.416L1239.95 716.24V709.808L1238.75 708.632H1234.14L1232.94 709.808V716.24L1234.14 717.416H1238.75ZM1255.15 707.048V722.048L1252.94 724.232H1247.18L1245.33 722.384V720.92H1247.11V721.832L1247.95 722.648H1252.17L1253.37 721.472V716.456L1250.83 719H1247.18L1244.97 716.792V707.048H1246.75V716.24L1247.95 717.416H1250.35L1253.37 714.392V707.048H1255.15ZM1258.75 707.048H1260.48V709.352L1262.79 707.048H1265.64L1267.51 708.92L1269.39 707.048H1273.15L1275.36 709.256V719H1273.59V709.808L1272.39 708.632H1269.75L1268.07 710.312V719H1266.34V709.808L1265.14 708.632H1263.12L1260.53 711.224V719H1258.75V707.048ZM1278.6 716.792V709.256L1280.81 707.048H1286.83L1289.06 709.256V713.552H1280.38V716.24L1281.58 717.416H1286.06L1287.26 716.24V715.328H1289.04V716.792L1286.83 719H1280.81L1278.6 716.792ZM1287.29 712.016V709.808L1286.09 708.632H1281.58L1280.38 709.808V712.016H1287.29ZM1292.29 707.048H1294.02V709.592L1296.56 707.048H1300.24L1302.44 709.256V719H1300.67V709.808L1299.47 708.632H1297.04L1294.07 711.608V719H1292.29V707.048ZM1306.78 716.792V708.608H1304.62V707.048H1306.83V703.16H1308.55V707.048H1312.3V708.608H1308.55V716.24L1309.75 717.44H1312.3V719H1308.99L1306.78 716.792ZM1328.28 704.744V703.832H1319.59V702.2H1330.1V704.864L1323.53 719H1321.61L1328.28 704.744Z" fill="white"/>
<path d="M61.28 1025.8H68.352V1026.89H62.496V1030.92H67.584V1032.01H62.496V1037H61.28V1025.8ZM70.1081 1025.58H71.2921V1037H70.1081V1025.58ZM73.6981 1027.21V1026.5L74.1781 1026.02H74.8821L75.3621 1026.5V1027.21L74.8821 1027.69H74.1781L73.6981 1027.21ZM73.9381 1029.03H75.1221V1037H73.9381V1029.03ZM77.6844 1029.03H78.8364V1030.46L80.2604 1029.03H83.2524L84.7244 1030.5V1035.53L83.2524 1037H80.1804L78.8684 1035.85V1040.39H77.6844V1029.03ZM82.7404 1035.94L83.5404 1035.16V1030.87L82.7404 1030.09H80.5804L78.8684 1031.8V1034.55L80.4044 1035.94H82.7404ZM93.5439 1026.87H90.1519V1025.8H98.1519V1026.87H94.7599V1037H93.5439V1026.87ZM98.2275 1035.53V1030.5L99.6995 1029.03H103.716L105.204 1030.5V1033.37H99.4115V1035.16L100.212 1035.94H103.204L104.004 1035.16V1034.55H105.188V1035.53L103.716 1037H99.6995L98.2275 1035.53ZM104.02 1032.34V1030.87L103.22 1030.09H100.212L99.4115 1030.87V1032.34H104.02ZM107.196 1035.53V1030.5L108.668 1029.03H112.508L113.98 1030.5V1031.48H112.796V1030.87L111.996 1030.09H109.18L108.38 1030.87V1035.16L109.18 1035.94H111.996L112.796 1035.16V1034.55H113.98V1035.53L112.508 1037H108.668L107.196 1035.53ZM115.903 1025.58H117.087V1030.7L118.751 1029.03H121.231L122.703 1030.5V1037H121.519V1030.87L120.719 1030.09H119.071L117.087 1032.07V1037H115.903V1025.58ZM125.028 1029.03H126.18V1030.73L127.876 1029.03H130.324L131.796 1030.5V1037H130.612V1030.87L129.812 1030.09H128.196L126.212 1032.07V1037H125.028V1029.03ZM133.962 1035.53V1030.5L135.434 1029.03H139.53L141.002 1030.5V1035.53L139.53 1037H135.434L133.962 1035.53ZM139.018 1035.94L139.818 1035.16V1030.87L139.018 1030.09H135.946L135.146 1030.87V1035.16L135.946 1035.94H139.018ZM143.327 1025.58H144.511V1037H143.327V1025.58ZM146.837 1035.53V1030.5L148.309 1029.03H152.405L153.877 1030.5V1035.53L152.405 1037H148.309L146.837 1035.53ZM151.893 1035.94L152.693 1035.16V1030.87L151.893 1030.09H148.821L148.021 1030.87V1035.16L148.821 1035.94H151.893ZM163.002 1029.03V1039.03L161.546 1040.49H157.594L156.362 1039.26V1038.28H157.546V1038.87L158.106 1039.43H161.018L161.818 1038.65V1035.67L160.346 1037H157.434L155.962 1035.53V1030.5L157.434 1029.03H160.458L161.85 1030.42V1029.03H163.002ZM161.818 1031.77L160.138 1030.09H157.946L157.146 1030.87V1035.16L157.946 1035.94H160.154L161.818 1034.39V1031.77ZM172.107 1029.03V1039.03L170.635 1040.49H166.795L165.563 1039.26V1038.28H166.747V1038.89L167.307 1039.43H170.123L170.923 1038.65V1035.3L169.227 1037H166.795L165.323 1035.53V1029.03H166.507V1035.16L167.307 1035.94H168.907L170.923 1033.93V1029.03H172.107ZM178.339 1035.24V1027.56L180.099 1025.8H184.899L186.595 1027.5V1028.52H185.379V1027.9L184.355 1026.89H180.643L179.555 1027.96V1034.84L180.643 1035.91H184.355L185.379 1034.9V1034.28H186.595V1035.3L184.899 1037H180.099L178.339 1035.24ZM188.353 1035.53V1030.5L189.825 1029.03H193.921L195.392 1030.5V1035.53L193.921 1037H189.825L188.353 1035.53ZM193.409 1035.94L194.209 1035.16V1030.87L193.409 1030.09H190.337L189.537 1030.87V1035.16L190.337 1035.94H193.409ZM197.638 1029.03H198.789V1030.46L200.214 1029.03H202.278V1030.09H200.518L198.822 1031.78V1037H197.638V1029.03ZM203.794 1029.03H204.946V1030.46L206.37 1029.03H209.362L210.834 1030.5V1035.53L209.362 1037H206.29L204.978 1035.85V1040.39H203.794V1029.03ZM208.85 1035.94L209.65 1035.16V1030.87L208.85 1030.09H206.69L204.978 1031.8V1034.55L206.514 1035.94H208.85ZM212.915 1035.53V1030.5L214.387 1029.03H218.483L219.955 1030.5V1035.53L218.483 1037H214.387L212.915 1035.53ZM217.971 1035.94L218.771 1035.16V1030.87L217.971 1030.09H214.899L214.099 1030.87V1035.16L214.899 1035.94H217.971ZM222.2 1029.03H223.352V1030.46L224.776 1029.03H226.84V1030.09H225.08L223.384 1031.78V1037H222.2V1029.03ZM227.71 1035.69V1033.66L229.022 1032.36H233.278V1030.84L232.478 1030.06H229.758L228.958 1030.84V1031.5H227.774V1030.5L229.246 1029.03H232.974L234.446 1030.5V1037H233.31V1035.59L231.838 1037H229.022L227.71 1035.69ZM231.598 1035.98L233.278 1034.36V1033.38H229.534L228.894 1034.01V1035.35L229.534 1035.98H231.598ZM237.326 1035.53V1030.07H235.886V1029.03H237.358V1026.44H238.51V1029.03H241.006V1030.07H238.51V1035.16L239.31 1035.96H241.006V1037H238.798L237.326 1035.53ZM242.761 1027.21V1026.5L243.241 1026.02H243.945L244.425 1026.5V1027.21L243.945 1027.69H243.241L242.761 1027.21ZM243.001 1029.03H244.185V1037H243.001V1029.03ZM246.587 1035.53V1030.5L248.059 1029.03H252.155L253.627 1030.5V1035.53L252.155 1037H248.059L246.587 1035.53ZM251.643 1035.94L252.443 1035.16V1030.87L251.643 1030.09H248.571L247.771 1030.87V1035.16L248.571 1035.94H251.643ZM255.872 1029.03H257.024V1030.73L258.72 1029.03H261.168L262.64 1030.5V1037H261.456V1030.87L260.656 1030.09H259.04L257.056 1032.07V1037H255.872V1029.03ZM268.952 1023.46H270.136V1040.26H268.952V1023.46ZM276.448 1035.53V1027.27L277.92 1025.8H282.4L283.872 1027.27V1028.52H282.656V1027.67L281.856 1026.89H278.464L277.664 1027.67V1031.45L278.96 1030.15H282.464L283.936 1031.62V1035.53L282.464 1037H277.92L276.448 1035.53ZM281.92 1035.91L282.72 1035.13V1032.02L281.92 1031.24H279.28L277.664 1032.86V1035.13L278.464 1035.91H281.92ZM285.851 1035.53V1034.28H287.067V1035.13L287.867 1035.91H291.227L292.027 1035.13V1031.93L291.227 1031.14H286.011V1025.8H293.019V1026.87H287.195V1030.06H291.755L293.243 1031.54V1035.53L291.771 1037H287.323L285.851 1035.53ZM295.323 1035.4V1027.4L296.923 1025.8H301.531L303.131 1027.4V1035.4L301.531 1037H296.923L295.323 1035.4ZM300.987 1035.91L301.915 1035V1027.8L300.987 1026.89H297.467L296.539 1027.8V1035L297.467 1035.91H300.987ZM309.276 1035.24V1027.56L311.036 1025.8H315.836L317.532 1027.5V1028.52H316.316V1027.9L315.292 1026.89H311.58L310.492 1027.96V1034.84L311.58 1035.91H315.292L316.316 1034.9V1034.28H317.532V1035.3L315.836 1037H311.036L309.276 1035.24ZM319.21 1035.69V1033.66L320.522 1032.36H324.778V1030.84L323.978 1030.06H321.258L320.458 1030.84V1031.5H319.274V1030.5L320.746 1029.03H324.474L325.946 1030.5V1037H324.81V1035.59L323.338 1037H320.522L319.21 1035.69ZM323.098 1035.98L324.778 1034.36V1033.38H321.034L320.394 1034.01V1035.35L321.034 1035.98H323.098ZM328.343 1025.58H329.527V1037H328.343V1025.58ZM331.933 1027.21V1026.5L332.413 1026.02H333.117L333.597 1026.5V1027.21L333.117 1027.69H332.413L331.933 1027.21ZM332.173 1029.03H333.357V1037H332.173V1029.03ZM336.639 1030.07H335.199V1029.03H336.639V1027.26L338.031 1025.86H340.335V1026.89H338.543L337.823 1027.59V1029.03H340.335V1030.07H337.823V1037H336.639V1030.07ZM341.462 1035.53V1030.5L342.934 1029.03H347.03L348.502 1030.5V1035.53L347.03 1037H342.934L341.462 1035.53ZM346.518 1035.94L347.318 1035.16V1030.87L346.518 1030.09H343.446L342.646 1030.87V1035.16L343.446 1035.94H346.518ZM350.747 1029.03H351.899V1030.46L353.323 1029.03H355.387V1030.09H353.627L351.931 1031.78V1037H350.747V1029.03ZM356.903 1029.03H358.055V1030.73L359.751 1029.03H362.199L363.671 1030.5V1037H362.487V1030.87L361.687 1030.09H360.071L358.087 1032.07V1037H356.903V1029.03ZM365.917 1027.21V1026.5L366.397 1026.02H367.101L367.581 1026.5V1027.21L367.101 1027.69H366.397L365.917 1027.21ZM366.157 1029.03H367.341V1037H366.157V1029.03ZM369.663 1035.69V1033.66L370.975 1032.36H375.231V1030.84L374.431 1030.06H371.711L370.911 1030.84V1031.5H369.727V1030.5L371.199 1029.03H374.927L376.399 1030.5V1037H375.263V1035.59L373.791 1037H370.975L369.663 1035.69ZM373.551 1035.98L375.231 1034.36V1033.38H371.487L370.847 1034.01V1035.35L371.487 1035.98H373.551ZM382.462 1035.53V1034.5H383.662V1035.13L384.43 1035.91H388.27L389.07 1035.1V1032.58L388.27 1031.8H383.966L382.494 1030.33V1027.27L383.966 1025.8H388.67L390.142 1027.27V1028.31H388.958V1027.67L388.158 1026.89H384.494L383.694 1027.67V1029.93L384.494 1030.71H388.798L390.27 1032.18V1035.5L388.766 1037H383.934L382.462 1035.53ZM392.998 1035.53V1030.07H391.558V1029.03H393.03V1026.44H394.182V1029.03H396.678V1030.07H394.182V1035.16L394.982 1035.96H396.678V1037H394.47L392.998 1035.53ZM398.801 1037H398.609L398.145 1036.54V1035.83L398.609 1035.37H399.312L399.777 1035.83V1037L398.977 1038.98H398.321L398.801 1037ZM410.628 1027.5V1026.89H404.836V1025.8H411.844V1027.58L407.46 1037H406.18L410.628 1027.5ZM414.404 1035.53V1030.07H412.964V1029.03H414.436V1026.44H415.588V1029.03H418.084V1030.07H415.588V1035.16L416.388 1035.96H418.084V1037H415.876L414.404 1035.53ZM419.919 1025.58H421.103V1030.7L422.767 1029.03H425.247L426.719 1030.5V1037H425.535V1030.87L424.735 1030.09H423.087L421.103 1032.07V1037H419.919V1025.58ZM433.03 1025.8H440.102V1026.89H434.246V1030.92H439.334V1032.01H434.246V1037H433.03V1025.8ZM441.858 1025.58H443.042V1037H441.858V1025.58ZM445.368 1035.53V1030.5L446.84 1029.03H450.936L452.408 1030.5V1035.53L450.936 1037H446.84L445.368 1035.53ZM450.424 1035.94L451.224 1035.16V1030.87L450.424 1030.09H447.352L446.552 1030.87V1035.16L447.352 1035.94H450.424ZM454.493 1035.53V1030.5L455.965 1029.03H460.061L461.533 1030.5V1035.53L460.061 1037H455.965L454.493 1035.53ZM459.549 1035.94L460.349 1035.16V1030.87L459.549 1030.09H456.477L455.677 1030.87V1035.16L456.477 1035.94H459.549ZM463.778 1029.03H464.93V1030.46L466.354 1029.03H468.418V1030.09H466.658L464.962 1031.78V1037H463.778V1029.03ZM469.269 1037H469.077L468.613 1036.54V1035.83L469.077 1035.37H469.781L470.245 1035.83V1037L469.445 1038.98H468.789L469.269 1037ZM476.024 1035.53V1034.5H477.224V1035.13L477.992 1035.91H481.832L482.632 1035.1V1032.58L481.832 1031.8H477.528L476.056 1030.33V1027.27L477.528 1025.8H482.232L483.704 1027.27V1028.31H482.52V1027.67L481.72 1026.89H478.056L477.256 1027.67V1029.93L478.056 1030.71H482.36L483.832 1032.18V1035.5L482.328 1037H477.496L476.024 1035.53ZM485.679 1035.69V1033.66L486.991 1032.36H491.247V1030.84L490.447 1030.06H487.727L486.927 1030.84V1031.5H485.743V1030.5L487.215 1029.03H490.943L492.415 1030.5V1037H491.279V1035.59L489.807 1037H486.991L485.679 1035.69ZM489.567 1035.98L491.247 1034.36V1033.38H487.503L486.863 1034.01V1035.35L487.503 1035.98H489.567ZM494.731 1029.03H495.883V1030.73L497.579 1029.03H500.027L501.499 1030.5V1037H500.315V1030.87L499.515 1030.09H497.899L495.915 1032.07V1037H494.731V1029.03ZM507.811 1025.8H514.883V1026.89H509.027V1030.92H514.115V1032.01H509.027V1037H507.811V1025.8ZM516.153 1029.03H517.305V1030.46L518.729 1029.03H520.793V1030.09H519.033L517.337 1031.78V1037H516.153V1029.03ZM521.663 1035.69V1033.66L522.975 1032.36H527.231V1030.84L526.431 1030.06H523.711L522.911 1030.84V1031.5H521.727V1030.5L523.199 1029.03H526.927L528.399 1030.5V1037H527.263V1035.59L525.791 1037H522.975L521.663 1035.69ZM525.551 1035.98L527.231 1034.36V1033.38H523.487L522.847 1034.01V1035.35L523.487 1035.98H525.551ZM530.716 1029.03H531.868V1030.73L533.564 1029.03H536.012L537.484 1030.5V1037H536.3V1030.87L535.5 1030.09H533.884L531.9 1032.07V1037H530.716V1029.03ZM539.649 1035.53V1030.5L541.121 1029.03H544.961L546.433 1030.5V1031.48H545.249V1030.87L544.449 1030.09H541.633L540.833 1030.87V1035.16L541.633 1035.94H544.449L545.249 1035.16V1034.55H546.433V1035.53L544.961 1037H541.121L539.649 1035.53ZM548.276 1027.21V1026.5L548.756 1026.02H549.46L549.94 1026.5V1027.21L549.46 1027.69H548.756L548.276 1027.21ZM548.516 1029.03H549.7V1037H548.516V1029.03ZM551.863 1035.69V1034.7H553.047V1035.35L553.687 1035.98H556.631L557.271 1035.35V1034.12L556.631 1033.48H553.191L551.927 1032.22V1030.34L553.239 1029.03H556.983L558.295 1030.34V1031.34H557.111V1030.68L556.471 1030.06H553.751L553.111 1030.68V1031.85L553.751 1032.49H557.143L558.455 1033.8V1035.69L557.143 1037H553.174L551.863 1035.69ZM560.29 1035.53V1030.5L561.762 1029.03H565.602L567.074 1030.5V1031.48H565.89V1030.87L565.09 1030.09H562.274L561.474 1030.87V1035.16L562.274 1035.94H565.09L565.89 1035.16V1034.55H567.074V1035.53L565.602 1037H561.762L560.29 1035.53ZM568.837 1035.53V1030.5L570.309 1029.03H574.405L575.877 1030.5V1035.53L574.405 1037H570.309L568.837 1035.53ZM573.893 1035.94L574.693 1035.16V1030.87L573.893 1030.09H570.821L570.021 1030.87V1035.16L570.821 1035.94H573.893ZM578.254 1037H578.062L577.598 1036.54V1035.83L578.062 1035.37H578.766L579.23 1035.83V1037L578.43 1038.98H577.774L578.254 1037ZM585.089 1035.24V1027.56L586.849 1025.8H591.649L593.345 1027.5V1028.52H592.129V1027.9L591.105 1026.89H587.393L586.305 1027.96V1034.84L587.393 1035.91H591.105L592.129 1034.9V1034.28H593.345V1035.3L591.649 1037H586.849L585.089 1035.24ZM598.288 1025.8H599.6L603.584 1037H602.32L601.28 1033.98H596.608L595.568 1037H594.304L598.288 1025.8ZM600.928 1032.92L598.96 1027.21H598.928L596.976 1032.92H600.928ZM609.013 1035.53V1034.28H610.229V1035.13L611.029 1035.91H614.325L615.125 1035.13V1031.58L613.989 1032.71H610.325L608.853 1031.24V1027.27L610.325 1025.8H614.869L616.341 1027.27V1035.53L614.869 1037H610.485L609.013 1035.53ZM613.669 1031.62L615.125 1030.17V1027.67L614.325 1026.89H610.869L610.069 1027.67V1030.84L610.869 1031.62H613.669ZM623.357 1034.71H617.853V1032.82L622.637 1025.8H624.573V1033.62H625.933V1034.71H624.573V1037H623.357V1034.71ZM623.357 1033.66V1026.82H623.261L619.037 1033.02V1033.66H623.357ZM629.48 1027.05L626.968 1028.34V1027.22L629.576 1025.8H630.696V1037H629.48V1027.05ZM633.183 1035.4V1027.4L634.783 1025.8H639.391L640.991 1027.4V1035.4L639.391 1037H634.783L633.183 1035.4ZM638.847 1035.91L639.775 1035V1027.8L638.847 1026.89H635.327L634.399 1027.8V1035L635.327 1035.91H638.847ZM643.149 1035.53V1032.23L644.157 1031.22L643.309 1030.38V1027.27L644.781 1025.8H649.261L650.733 1027.27V1030.38L649.885 1031.22L650.893 1032.23V1035.53L649.421 1037H644.621L643.149 1035.53ZM648.717 1030.78L649.517 1029.99V1027.67L648.717 1026.89H645.325L644.525 1027.67V1029.99L645.325 1030.78H648.717ZM648.877 1035.91L649.677 1035.13V1032.62L648.877 1031.83H645.165L644.365 1032.62V1035.13L645.165 1035.91H648.877ZM657.124 1023.46H658.308V1040.26H657.124V1023.46ZM664.7 1025.58H665.884V1030.7L667.548 1029.03H670.028L671.5 1030.5V1037H670.316V1030.87L669.516 1030.09H667.868L665.884 1032.07V1037H664.7V1025.58ZM674.389 1035.53V1030.07H672.949V1029.03H674.421V1026.44H675.573V1029.03H678.069V1030.07H675.573V1035.16L676.373 1035.96H678.069V1037H675.861L674.389 1035.53ZM680.623 1035.53V1030.07H679.183V1029.03H680.655V1026.44H681.807V1029.03H684.303V1030.07H681.807V1035.16L682.607 1035.96H684.303V1037H682.095L680.623 1035.53ZM686.138 1029.03H687.289V1030.46L688.714 1029.03H691.706L693.178 1030.5V1035.53L691.706 1037H688.634L687.322 1035.85V1040.39H686.138V1029.03ZM691.194 1035.94L691.994 1035.16V1030.87L691.194 1030.09H689.034L687.322 1031.8V1034.55L688.858 1035.94H691.194ZM695.019 1035.69V1034.7H696.203V1035.35L696.843 1035.98H699.787L700.427 1035.35V1034.12L699.787 1033.48H696.347L695.083 1032.22V1030.34L696.395 1029.03H700.139L701.451 1030.34V1031.34H700.267V1030.68L699.627 1030.06H696.907L696.267 1030.68V1031.85L696.907 1032.49H700.299L701.611 1033.8V1035.69L700.299 1037H696.331L695.019 1035.69ZM703.238 1030.84V1030.14L703.702 1029.67H704.406L704.87 1030.14V1030.84L704.406 1031.3H703.702L703.238 1030.84ZM703.238 1036.54V1035.83L703.702 1035.37H704.406L704.87 1035.83V1036.54L704.406 1037H703.702L703.238 1036.54ZM711.895 1025.78H713.143L706.951 1037H705.703L711.895 1025.78ZM719.333 1025.78H720.581L714.389 1037H713.141L719.333 1025.78ZM721.138 1029.03H722.354L723.714 1035.66H723.762L725.682 1029.03H726.834L728.578 1035.66H728.626L730.114 1029.03H731.33L729.314 1037H728.034L726.274 1030.42H726.226L724.306 1037H723.01L721.138 1029.03ZM732.451 1029.03H733.667L735.027 1035.66H735.075L736.995 1029.03H738.147L739.891 1035.66H739.939L741.427 1029.03H742.643L740.627 1037H739.347L737.587 1030.42H737.539L735.619 1037H734.323L732.451 1029.03ZM743.763 1029.03H744.979L746.339 1035.66H746.387L748.307 1029.03H749.459L751.203 1035.66H751.251L752.739 1029.03H753.955L751.939 1037H750.659L748.899 1030.42H748.851L746.931 1037H745.635L743.763 1029.03ZM754.707 1036.54V1035.83L755.171 1035.37H755.875L756.339 1035.83V1036.54L755.875 1037H755.171L754.707 1036.54ZM765.008 1037H763.824V1026.63H760.512L759.792 1027.35V1029.03H762.304V1030.09H759.792V1037H758.608V1030.09H757.168V1029.03H758.608V1027.03L760 1025.64H765.008V1037ZM767.401 1027.21V1026.5L767.881 1026.02H768.585L769.065 1026.5V1027.21L768.585 1027.69H767.881L767.401 1027.21ZM767.641 1029.03H768.825V1037H767.641V1029.03ZM771.388 1029.03H772.539V1030.46L773.964 1029.03H776.956L778.428 1030.5V1035.53L776.956 1037H773.884L772.572 1035.85V1040.39H771.388V1029.03ZM776.444 1035.94L777.244 1035.16V1030.87L776.444 1030.09H774.284L772.572 1031.8V1034.55L774.108 1035.94H776.444ZM780.066 1036.54V1035.83L780.53 1035.37H781.234L781.698 1035.83V1036.54L781.234 1037H780.53L780.066 1036.54ZM783.335 1035.69V1033.66L784.647 1032.36H788.903V1030.84L788.103 1030.06H785.383L784.583 1030.84V1031.5H783.399V1030.5L784.871 1029.03H788.599L790.071 1030.5V1037H788.935V1035.59L787.463 1037H784.647L783.335 1035.69ZM787.223 1035.98L788.903 1034.36V1033.38H785.159L784.519 1034.01V1035.35L785.159 1035.98H787.223ZM792.308 1027.21V1026.5L792.788 1026.02H793.492L793.972 1026.5V1027.21L793.492 1027.69H792.788L792.308 1027.21ZM792.548 1029.03H793.732V1037H792.548V1029.03ZM800.28 1023.46H801.464V1040.26H800.28V1023.46ZM807.536 1035.16V1027.64L809.376 1025.8H814.848L816.656 1027.61V1029.32H814.48V1028.41L813.728 1027.66H810.528L809.712 1028.47V1034.33L810.528 1035.14H813.728L814.48 1034.39V1033.48H816.656V1035.19L814.848 1037H809.376L807.536 1035.16ZM818.021 1035.16V1027.64L819.861 1025.8H825.621L827.461 1027.64V1035.16L825.621 1037H819.861L818.021 1035.16ZM824.469 1035.14L825.285 1034.33V1028.47L824.469 1027.66H821.013L820.197 1028.47V1034.33L821.013 1035.14H824.469ZM829.384 1025.8H831.336L836.328 1033.4H836.36V1025.8H838.456V1037H836.504L831.512 1029.42H831.48V1037H829.384V1025.8ZM840.54 1025.8H848.476V1027.64H842.716V1030.74H847.708V1032.58H842.716V1037H840.54V1025.8ZM849.839 1025.8H852.015V1037H849.839V1025.8ZM854.181 1025.8H861.349L863.269 1027.72V1035.08L861.349 1037H854.181V1025.8ZM860.277 1035.14L861.093 1034.33V1028.47L860.277 1027.66H856.357V1035.14H860.277ZM865.196 1025.8H873.292V1027.64H867.372V1030.47H872.828V1032.28H867.372V1035.16H873.292V1037H865.196V1025.8ZM874.899 1025.8H876.851L881.843 1033.4H881.875V1025.8H883.971V1037H882.019L877.027 1029.42H876.995V1037H874.899V1025.8ZM888.6 1027.64H885.256V1025.8H894.12V1027.64H890.776V1037H888.6V1027.64ZM895.479 1025.8H897.655V1037H895.479V1025.8ZM902.957 1025.8H904.941L909.037 1037H906.829L905.917 1034.52H901.981L901.069 1037H898.861L902.957 1025.8ZM905.437 1032.73L903.949 1028.47H903.917L902.477 1032.73H905.437ZM910.165 1025.8H912.341V1035.16H917.941V1037H910.165V1025.8Z" fill="white"/>
<path d="M64.728 156.072L60.96 158.016V156.336L64.872 154.2H66.552V171H64.728V156.072Z" fill="white"/>
<path d="M60 173.4H68.592V174.6H60V173.4Z" fill="white"/>
<path d="M225.296 167.784L234.08 159.096V157.008L232.88 155.832H228.224L227.024 157.008V158.28H225.2V156.408L227.408 154.2H233.696L235.904 156.408V159.624L227.12 168.312V169.368H236V171H225.296V167.784Z" fill="white"/>
<path d="M224 173.4H237.2V174.6H224V173.4Z" fill="white"/>
<path d="M408.2 168.792V166.92H410.024V168.192L411.224 169.368H416.312L417.512 168.192V164.52L416.36 163.368H411.56V161.736H416.36L417.512 160.584V157.008L416.312 155.832H411.368L410.168 157.008V158.28H408.344V156.408L410.552 154.2H417.128L419.336 156.408V161.112L417.872 162.552L419.336 164.016V168.792L417.128 171H410.408L408.2 168.792Z" fill="white"/>
<path d="M407 173.4H420.896V174.6H407V173.4Z" fill="white"/>
<path d="M581.856 167.568H573.6V164.736L580.776 154.2H583.68V165.936H585.72V167.568H583.68V171H581.856V167.568ZM581.856 165.984V155.736H581.712L575.376 165.024V165.984H581.856Z" fill="white"/>
<path d="M573 173.4H586.32V174.6H573V173.4Z" fill="white"/>
<path d="M809.44 168.792V166.92H811.264V168.192L812.464 169.368H817.504L818.704 168.192V163.392L817.504 162.216H809.68V154.2H820.192V155.808H811.456V160.584H818.296L820.528 162.816V168.792L818.32 171H811.648L809.44 168.792Z" fill="white"/>
<path d="M808 173.4H821.968V174.6H808V173.4Z" fill="white"/>
<path d="M972.68 168.792V156.408L974.888 154.2H981.608L983.816 156.408V158.28H981.992V157.008L980.792 155.832H975.704L974.504 157.008V162.672L976.448 160.728H981.704L983.912 162.936V168.792L981.704 171H974.888L972.68 168.792ZM980.888 169.368L982.088 168.192V163.536L980.888 162.36H976.928L974.504 164.784V168.192L975.704 169.368H980.888Z" fill="white"/>
<path d="M971 173.4H985.352V174.6H971V173.4Z" fill="white"/>
<path d="M1186.17 156.744V155.832H1177.48V154.2H1187.99V156.864L1181.42 171H1179.5L1186.17 156.744Z" fill="white"/>
<path d="M1177 173.4H1188.95V174.6H1177V173.4Z" fill="white"/>
<path d="M1382.56 168.792V163.848L1384.07 162.336L1382.8 161.064V156.408L1385.01 154.2H1391.73L1393.94 156.408V161.064L1392.66 162.336L1394.18 163.848V168.792L1391.97 171H1384.77L1382.56 168.792ZM1390.91 161.664L1392.11 160.488V157.008L1390.91 155.832H1385.82L1384.62 157.008V160.488L1385.82 161.664H1390.91ZM1391.15 169.368L1392.35 168.192V164.424L1391.15 163.248H1385.58L1384.38 164.424V168.192L1385.58 169.368H1391.15Z" fill="white"/>
</g>
<defs>
<clipPath id="clip0_27_963">
<rect width="1920" height="1080" fill="white"/>
</clipPath>
</defs>
</svg>
